<?xml version="1.0" encoding="UTF-8" standalone="no"?>
<!DOCTYPE svg PUBLIC "-//W3C//DTD SVG 1.1//EN"
 "http://www.w3.org/Graphics/SVG/1.1/DTD/svg11.dtd">
<!-- Generated by graphviz version 2.42.3 (20191010.1750)
 -->
<!-- Title: snakemake_dag Pages: 1 -->
<svg width="374pt" height="620pt"
 viewBox="0.00 0.00 373.50 620.00" xmlns="http://www.w3.org/2000/svg" xmlns:xlink="http://www.w3.org/1999/xlink">
<g id="graph0" class="graph" transform="scale(1 1) rotate(0) translate(4 616)">
<title>snakemake_dag</title>
<polygon fill="white" stroke="transparent" points="-4,4 -4,-616 369.5,-616 369.5,4 -4,4"/>
<!-- 0 -->
<g id="node1" class="node">
<title>0</title>
<path fill="none" stroke="#61d856" stroke-width="2" d="M281.5,-36C281.5,-36 251.5,-36 251.5,-36 245.5,-36 239.5,-30 239.5,-24 239.5,-24 239.5,-12 239.5,-12 239.5,-6 245.5,0 251.5,0 251.5,0 281.5,0 281.5,0 287.5,0 293.5,-6 293.5,-12 293.5,-12 293.5,-24 293.5,-24 293.5,-30 287.5,-36 281.5,-36"/>
<text text-anchor="middle" x="266.5" y="-15.5" font-family="sans" font-size="10.00">all</text>
</g>
<!-- 1 -->
<g id="node2" class="node">
<title>1</title>
<path fill="none" stroke="#56d863" stroke-width="2" stroke-dasharray="5,2" d="M325.5,-396C325.5,-396 263.5,-396 263.5,-396 257.5,-396 251.5,-390 251.5,-384 251.5,-384 251.5,-372 251.5,-372 251.5,-366 257.5,-360 263.5,-360 263.5,-360 325.5,-360 325.5,-360 331.5,-360 337.5,-366 337.5,-372 337.5,-372 337.5,-384 337.5,-384 337.5,-390 331.5,-396 325.5,-396"/>
<text text-anchor="middle" x="294.5" y="-375.5" font-family="sans" font-size="10.00">color_palettes</text>
</g>
<!-- 3 -->
<g id="node4" class="node">
<title>3</title>
<path fill="none" stroke="#d88d56" stroke-width="2" d="M309.5,-108C309.5,-108 223.5,-108 223.5,-108 217.5,-108 211.5,-102 211.5,-96 211.5,-96 211.5,-84 211.5,-84 211.5,-78 217.5,-72 223.5,-72 223.5,-72 309.5,-72 309.5,-72 315.5,-72 321.5,-78 321.5,-84 321.5,-84 321.5,-96 321.5,-96 321.5,-102 315.5,-108 309.5,-108"/>
<text text-anchor="middle" x="266.5" y="-87.5" font-family="sans" font-size="10.00">one_vs_rest_report</text>
</g>
<!-- 1&#45;&gt;3 -->
<g id="edge3" class="edge">
<title>1&#45;&gt;3</title>
<path fill="none" stroke="grey" stroke-width="2" d="M299.59,-359.75C310.32,-320.31 332.3,-221.01 306.5,-144 303.15,-134 297.08,-124.38 290.67,-116.14"/>
<polygon fill="grey" stroke="grey" stroke-width="2" points="293.32,-113.85 284.23,-108.4 287.94,-118.33 293.32,-113.85"/>
</g>
<!-- 6 -->
<g id="node7" class="node">
<title>6</title>
<path fill="none" stroke="#56c1d8" stroke-width="2" stroke-dasharray="5,2" d="M253,-252C253,-252 194,-252 194,-252 188,-252 182,-246 182,-240 182,-240 182,-228 182,-228 182,-222 188,-216 194,-216 194,-216 253,-216 253,-216 259,-216 265,-222 265,-228 265,-228 265,-240 265,-240 265,-246 259,-252 253,-252"/>
<text text-anchor="middle" x="223.5" y="-231.5" font-family="sans" font-size="10.00">batch_effects</text>
</g>
<!-- 1&#45;&gt;6 -->
<g id="edge9" class="edge">
<title>1&#45;&gt;6</title>
<path fill="none" stroke="grey" stroke-width="2" d="M289.59,-359.69C284.04,-341.31 274.11,-311.72 261.5,-288 256.48,-278.55 249.99,-268.86 243.79,-260.39"/>
<polygon fill="grey" stroke="grey" stroke-width="2" points="246.57,-258.26 237.77,-252.38 240.98,-262.47 246.57,-258.26"/>
</g>
<!-- 9 -->
<g id="node10" class="node">
<title>9</title>
<path fill="none" stroke="#ced856" stroke-width="2" stroke-dasharray="5,2" d="M240.5,-324C240.5,-324 206.5,-324 206.5,-324 200.5,-324 194.5,-318 194.5,-312 194.5,-312 194.5,-300 194.5,-300 194.5,-294 200.5,-288 206.5,-288 206.5,-288 240.5,-288 240.5,-288 246.5,-288 252.5,-294 252.5,-300 252.5,-300 252.5,-312 252.5,-312 252.5,-318 246.5,-324 240.5,-324"/>
<text text-anchor="middle" x="223.5" y="-303.5" font-family="sans" font-size="10.00">surv_est</text>
</g>
<!-- 1&#45;&gt;9 -->
<g id="edge14" class="edge">
<title>1&#45;&gt;9</title>
<path fill="none" stroke="grey" stroke-width="2" d="M276.95,-359.7C268.27,-351.14 257.64,-340.66 248.15,-331.3"/>
<polygon fill="grey" stroke="grey" stroke-width="2" points="250.43,-328.63 240.85,-324.1 245.51,-333.62 250.43,-328.63"/>
</g>
<!-- 2 -->
<g id="node3" class="node">
<title>2</title>
<path fill="none" stroke="#56d882" stroke-width="2" stroke-dasharray="5,2" d="M205.5,-180C205.5,-180 139.5,-180 139.5,-180 133.5,-180 127.5,-174 127.5,-168 127.5,-168 127.5,-156 127.5,-156 127.5,-150 133.5,-144 139.5,-144 139.5,-144 205.5,-144 205.5,-144 211.5,-144 217.5,-150 217.5,-156 217.5,-156 217.5,-168 217.5,-168 217.5,-174 211.5,-180 205.5,-180"/>
<text text-anchor="middle" x="172.5" y="-159.5" font-family="sans" font-size="10.00">survival_colors</text>
</g>
<!-- 2&#45;&gt;3 -->
<g id="edge5" class="edge">
<title>2&#45;&gt;3</title>
<path fill="none" stroke="grey" stroke-width="2" d="M195.74,-143.7C207.69,-134.8 222.42,-123.82 235.35,-114.2"/>
<polygon fill="grey" stroke="grey" stroke-width="2" points="237.6,-116.88 243.53,-108.1 233.42,-111.27 237.6,-116.88"/>
</g>
<!-- 3&#45;&gt;0 -->
<g id="edge1" class="edge">
<title>3&#45;&gt;0</title>
<path fill="none" stroke="grey" stroke-width="2" d="M266.5,-71.7C266.5,-63.98 266.5,-54.71 266.5,-46.11"/>
<polygon fill="grey" stroke="grey" stroke-width="2" points="270,-46.1 266.5,-36.1 263,-46.1 270,-46.1"/>
</g>
<!-- 4 -->
<g id="node5" class="node">
<title>4</title>
<path fill="none" stroke="#d8ac56" stroke-width="2" stroke-dasharray="5,2" d="M240,-612C240,-612 157,-612 157,-612 151,-612 145,-606 145,-600 145,-600 145,-588 145,-588 145,-582 151,-576 157,-576 157,-576 240,-576 240,-576 246,-576 252,-582 252,-588 252,-588 252,-600 252,-600 252,-606 246,-612 240,-612"/>
<text text-anchor="middle" x="198.5" y="-591.5" font-family="sans" font-size="10.00">process_metadata</text>
</g>
<!-- 4&#45;&gt;3 -->
<g id="edge7" class="edge">
<title>4&#45;&gt;3</title>
<path fill="none" stroke="grey" stroke-width="2" d="M246.36,-575.92C295.7,-554.88 365.5,-513.98 365.5,-451 365.5,-451 365.5,-451 365.5,-233 365.5,-184.38 325.96,-140.5 296.85,-114.78"/>
<polygon fill="grey" stroke="grey" stroke-width="2" points="298.84,-111.87 288.96,-108.03 294.28,-117.19 298.84,-111.87"/>
</g>
<!-- 4&#45;&gt;6 -->
<g id="edge11" class="edge">
<title>4&#45;&gt;6</title>
<path fill="none" stroke="grey" stroke-width="2" d="M162.41,-575.9C147.6,-567.15 131.6,-555.11 121.5,-540 99.03,-506.37 102.5,-491.45 102.5,-451 102.5,-451 102.5,-451 102.5,-377 102.5,-325.05 150.01,-282.45 185.48,-257.88"/>
<polygon fill="grey" stroke="grey" stroke-width="2" points="187.85,-260.5 194.21,-252.03 183.95,-254.69 187.85,-260.5"/>
</g>
<!-- 8 -->
<g id="node9" class="node">
<title>8</title>
<path fill="none" stroke="#d8c356" stroke-width="2" stroke-dasharray="5,2" d="M190.5,-540C190.5,-540 142.5,-540 142.5,-540 136.5,-540 130.5,-534 130.5,-528 130.5,-528 130.5,-516 130.5,-516 130.5,-510 136.5,-504 142.5,-504 142.5,-504 190.5,-504 190.5,-504 196.5,-504 202.5,-510 202.5,-516 202.5,-516 202.5,-528 202.5,-528 202.5,-534 196.5,-540 190.5,-540"/>
<text text-anchor="middle" x="166.5" y="-519.5" font-family="sans" font-size="10.00">QC_salmon</text>
</g>
<!-- 4&#45;&gt;8 -->
<g id="edge13" class="edge">
<title>4&#45;&gt;8</title>
<path fill="none" stroke="grey" stroke-width="2" d="M190.59,-575.7C186.95,-567.73 182.55,-558.1 178.51,-549.26"/>
<polygon fill="grey" stroke="grey" stroke-width="2" points="181.66,-547.74 174.32,-540.1 175.29,-550.65 181.66,-547.74"/>
</g>
<!-- 4&#45;&gt;9 -->
<g id="edge15" class="edge">
<title>4&#45;&gt;9</title>
<path fill="none" stroke="grey" stroke-width="2" d="M203.55,-575.98C206.38,-565.66 209.71,-552.19 211.5,-540 222.36,-466.11 223.8,-377.8 223.76,-334.16"/>
<polygon fill="grey" stroke="grey" stroke-width="2" points="227.26,-334.05 223.72,-324.06 220.26,-334.08 227.26,-334.05"/>
</g>
<!-- 5 -->
<g id="node6" class="node">
<title>5</title>
<path fill="none" stroke="#d85656" stroke-width="2" stroke-dasharray="5,2" d="M285,-180C285,-180 248,-180 248,-180 242,-180 236,-174 236,-168 236,-168 236,-156 236,-156 236,-150 242,-144 248,-144 248,-144 285,-144 285,-144 291,-144 297,-150 297,-156 297,-156 297,-168 297,-168 297,-174 291,-180 285,-180"/>
<text text-anchor="middle" x="266.5" y="-159.5" font-family="sans" font-size="10.00">lrt_diffex</text>
</g>
<!-- 5&#45;&gt;3 -->
<g id="edge4" class="edge">
<title>5&#45;&gt;3</title>
<path fill="none" stroke="grey" stroke-width="2" d="M266.5,-143.7C266.5,-135.98 266.5,-126.71 266.5,-118.11"/>
<polygon fill="grey" stroke="grey" stroke-width="2" points="270,-118.1 266.5,-108.1 263,-118.1 270,-118.1"/>
</g>
<!-- 6&#45;&gt;5 -->
<g id="edge8" class="edge">
<title>6&#45;&gt;5</title>
<path fill="none" stroke="grey" stroke-width="2" d="M234.13,-215.7C239.13,-207.56 245.19,-197.69 250.71,-188.7"/>
<polygon fill="grey" stroke="grey" stroke-width="2" points="253.74,-190.46 255.99,-180.1 247.78,-186.79 253.74,-190.46"/>
</g>
<!-- 7 -->
<g id="node8" class="node">
<title>7</title>
<path fill="none" stroke="#56a9d8" stroke-width="2" stroke-dasharray="5,2" d="M97,-180C97,-180 12,-180 12,-180 6,-180 0,-174 0,-168 0,-168 0,-156 0,-156 0,-150 6,-144 12,-144 12,-144 97,-144 97,-144 103,-144 109,-150 109,-156 109,-156 109,-168 109,-168 109,-174 103,-180 97,-180"/>
<text text-anchor="middle" x="54.5" y="-159.5" font-family="sans" font-size="10.00">diffex_one_vs_rest</text>
</g>
<!-- 6&#45;&gt;7 -->
<g id="edge12" class="edge">
<title>6&#45;&gt;7</title>
<path fill="none" stroke="grey" stroke-width="2" d="M182.16,-215.88C158.95,-206.26 129.81,-194.19 105.23,-184.01"/>
<polygon fill="grey" stroke="grey" stroke-width="2" points="106.29,-180.66 95.71,-180.07 103.61,-187.13 106.29,-180.66"/>
</g>
<!-- 7&#45;&gt;3 -->
<g id="edge6" class="edge">
<title>7&#45;&gt;3</title>
<path fill="none" stroke="grey" stroke-width="2" d="M106.09,-143.97C135.97,-134.1 173.76,-121.62 205.16,-111.25"/>
<polygon fill="grey" stroke="grey" stroke-width="2" points="206.28,-114.57 214.68,-108.11 204.09,-107.92 206.28,-114.57"/>
</g>
<!-- 10 -->
<g id="node11" class="node">
<title>10</title>
<path fill="none" stroke="#b6d856" stroke-width="2" stroke-dasharray="5,2" d="M190.5,-468C190.5,-468 144.5,-468 144.5,-468 138.5,-468 132.5,-462 132.5,-456 132.5,-456 132.5,-444 132.5,-444 132.5,-438 138.5,-432 144.5,-432 144.5,-432 190.5,-432 190.5,-432 196.5,-432 202.5,-438 202.5,-444 202.5,-444 202.5,-456 202.5,-456 202.5,-462 196.5,-468 190.5,-468"/>
<text text-anchor="middle" x="167.5" y="-447.5" font-family="sans" font-size="10.00">pam50_ihc</text>
</g>
<!-- 8&#45;&gt;10 -->
<g id="edge17" class="edge">
<title>8&#45;&gt;10</title>
<path fill="none" stroke="grey" stroke-width="2" d="M166.75,-503.7C166.86,-495.98 166.99,-486.71 167.11,-478.11"/>
<polygon fill="grey" stroke="grey" stroke-width="2" points="170.61,-478.15 167.26,-468.1 163.61,-478.05 170.61,-478.15"/>
</g>
<!-- 9&#45;&gt;6 -->
<g id="edge10" class="edge">
<title>9&#45;&gt;6</title>
<path fill="none" stroke="grey" stroke-width="2" d="M223.5,-287.7C223.5,-279.98 223.5,-270.71 223.5,-262.11"/>
<polygon fill="grey" stroke="grey" stroke-width="2" points="227,-262.1 223.5,-252.1 220,-262.1 227,-262.1"/>
</g>
<!-- 10&#45;&gt;1 -->
<g id="edge2" class="edge">
<title>10&#45;&gt;1</title>
<path fill="none" stroke="grey" stroke-width="2" d="M198.57,-431.88C215.33,-422.64 236.21,-411.13 254.2,-401.21"/>
<polygon fill="grey" stroke="grey" stroke-width="2" points="256.24,-404.08 263.31,-396.19 252.87,-397.95 256.24,-404.08"/>
</g>
<!-- 10&#45;&gt;9 -->
<g id="edge16" class="edge">
<title>10&#45;&gt;9</title>
<path fill="none" stroke="grey" stroke-width="2" d="M174.25,-431.87C183.88,-407.46 201.64,-362.43 213,-333.64"/>
<polygon fill="grey" stroke="grey" stroke-width="2" points="216.31,-334.78 216.72,-324.19 209.8,-332.21 216.31,-334.78"/>
</g>
</g>
</svg>
