<?xml version="1.0" encoding="UTF-8" standalone="no"?>
<!DOCTYPE svg PUBLIC "-//W3C//DTD SVG 1.1//EN"
 "http://www.w3.org/Graphics/SVG/1.1/DTD/svg11.dtd">
<!-- Generated by graphviz version 2.42.3 (20191010.1750)
 -->
<!-- Title: snakemake_dag Pages: 1 -->
<svg width="737pt" height="692pt"
 viewBox="0.00 0.00 737.00 692.00" xmlns="http://www.w3.org/2000/svg" xmlns:xlink="http://www.w3.org/1999/xlink">
<g id="graph0" class="graph" transform="scale(1 1) rotate(0) translate(4 688)">
<title>snakemake_dag</title>
<polygon fill="white" stroke="transparent" points="-4,4 -4,-688 733,-688 733,4 -4,4"/>
<!-- 0 -->
<g id="node1" class="node">
<title>0</title>
<path fill="none" stroke="#d86e56" stroke-width="2" stroke-dasharray="5,2" d="M551,-180C551,-180 483,-180 483,-180 477,-180 471,-174 471,-168 471,-168 471,-156 471,-156 471,-150 477,-144 483,-144 483,-144 551,-144 551,-144 557,-144 563,-150 563,-156 563,-156 563,-168 563,-168 563,-174 557,-180 551,-180"/>
<text text-anchor="middle" x="517" y="-159.5" font-family="sans" font-size="10.00">pairwise_report</text>
</g>
<!-- 5 -->
<g id="node6" class="node">
<title>5</title>
<path fill="none" stroke="#a7d856" stroke-width="2" stroke-dasharray="5,2" d="M390.5,-108C390.5,-108 277.5,-108 277.5,-108 271.5,-108 265.5,-102 265.5,-96 265.5,-96 265.5,-84 265.5,-84 265.5,-78 271.5,-72 277.5,-72 277.5,-72 390.5,-72 390.5,-72 396.5,-72 402.5,-78 402.5,-84 402.5,-84 402.5,-96 402.5,-96 402.5,-102 396.5,-108 390.5,-108"/>
<text text-anchor="middle" x="334" y="-87.5" font-family="sans" font-size="10.00">genewise_diffex_reports</text>
</g>
<!-- 0&#45;&gt;5 -->
<g id="edge14" class="edge">
<title>0&#45;&gt;5</title>
<path fill="none" stroke="grey" stroke-width="2" d="M472.23,-143.88C446.88,-134.18 414.99,-121.98 388.23,-111.74"/>
<polygon fill="grey" stroke="grey" stroke-width="2" points="389.21,-108.37 378.62,-108.07 386.71,-114.91 389.21,-108.37"/>
</g>
<!-- 1 -->
<g id="node2" class="node">
<title>1</title>
<path fill="none" stroke="#d88d56" stroke-width="2" stroke-dasharray="5,2" d="M349,-36C349,-36 319,-36 319,-36 313,-36 307,-30 307,-24 307,-24 307,-12 307,-12 307,-6 313,0 319,0 319,0 349,0 349,0 355,0 361,-6 361,-12 361,-12 361,-24 361,-24 361,-30 355,-36 349,-36"/>
<text text-anchor="middle" x="334" y="-15.5" font-family="sans" font-size="10.00">all</text>
</g>
<!-- 2 -->
<g id="node3" class="node">
<title>2</title>
<path fill="none" stroke="#56d8a2" stroke-width="2" stroke-dasharray="5,2" d="M315.5,-252C315.5,-252 230.5,-252 230.5,-252 224.5,-252 218.5,-246 218.5,-240 218.5,-240 218.5,-228 218.5,-228 218.5,-222 224.5,-216 230.5,-216 230.5,-216 315.5,-216 315.5,-216 321.5,-216 327.5,-222 327.5,-228 327.5,-228 327.5,-240 327.5,-240 327.5,-246 321.5,-252 315.5,-252"/>
<text text-anchor="middle" x="273" y="-231.5" font-family="sans" font-size="10.00">diffex_one_vs_rest</text>
</g>
<!-- 14 -->
<g id="node15" class="node">
<title>14</title>
<path fill="none" stroke="#56d8c1" stroke-width="2" stroke-dasharray="5,2" d="M326,-180C326,-180 240,-180 240,-180 234,-180 228,-174 228,-168 228,-168 228,-156 228,-156 228,-150 234,-144 240,-144 240,-144 326,-144 326,-144 332,-144 338,-150 338,-156 338,-156 338,-168 338,-168 338,-174 332,-180 326,-180"/>
<text text-anchor="middle" x="283" y="-159.5" font-family="sans" font-size="10.00">one_vs_rest_report</text>
</g>
<!-- 2&#45;&gt;14 -->
<g id="edge29" class="edge">
<title>2&#45;&gt;14</title>
<path fill="none" stroke="grey" stroke-width="2" d="M275.47,-215.7C276.57,-207.98 277.9,-198.71 279.13,-190.11"/>
<polygon fill="grey" stroke="grey" stroke-width="2" points="282.61,-190.5 280.56,-180.1 275.68,-189.51 282.61,-190.5"/>
</g>
<!-- 3 -->
<g id="node4" class="node">
<title>3</title>
<path fill="none" stroke="#56d88a" stroke-width="2" stroke-dasharray="5,2" d="M133,-180C133,-180 95,-180 95,-180 89,-180 83,-174 83,-168 83,-168 83,-156 83,-156 83,-150 89,-144 95,-144 95,-144 133,-144 133,-144 139,-144 145,-150 145,-156 145,-156 145,-168 145,-168 145,-174 139,-180 133,-180"/>
<text text-anchor="middle" x="114" y="-159.5" font-family="sans" font-size="10.00">lrt_report</text>
</g>
<!-- 3&#45;&gt;5 -->
<g id="edge15" class="edge">
<title>3&#45;&gt;5</title>
<path fill="none" stroke="grey" stroke-width="2" d="M145.05,-151.12C177.51,-140.79 229.35,-124.3 270.53,-111.2"/>
<polygon fill="grey" stroke="grey" stroke-width="2" points="271.74,-114.48 280.21,-108.12 269.62,-107.81 271.74,-114.48"/>
</g>
<!-- 4 -->
<g id="node5" class="node">
<title>4</title>
<path fill="none" stroke="#d8bc56" stroke-width="2" stroke-dasharray="5,2" d="M359,-468C359,-468 297,-468 297,-468 291,-468 285,-462 285,-456 285,-456 285,-444 285,-444 285,-438 291,-432 297,-432 297,-432 359,-432 359,-432 365,-432 371,-438 371,-444 371,-444 371,-456 371,-456 371,-462 365,-468 359,-468"/>
<text text-anchor="middle" x="328" y="-447.5" font-family="sans" font-size="10.00">color_palettes</text>
</g>
<!-- 4&#45;&gt;0 -->
<g id="edge4" class="edge">
<title>4&#45;&gt;0</title>
<path fill="none" stroke="grey" stroke-width="2" d="M335.25,-431.76C344.31,-412.07 361.53,-379.98 385,-360 476.86,-281.81 567.81,-352.85 634,-252 642.78,-238.62 642.67,-229.45 634,-216 620.31,-194.76 595.81,-181.94 572.76,-174.25"/>
<polygon fill="grey" stroke="grey" stroke-width="2" points="573.59,-170.84 563.01,-171.26 571.54,-177.54 573.59,-170.84"/>
</g>
<!-- 4&#45;&gt;3 -->
<g id="edge11" class="edge">
<title>4&#45;&gt;3</title>
<path fill="none" stroke="grey" stroke-width="2" d="M300.22,-431.9C286.04,-422.38 269.07,-409.7 256,-396 194.29,-331.35 146.42,-235.45 125.5,-189.47"/>
<polygon fill="grey" stroke="grey" stroke-width="2" points="128.62,-187.88 121.33,-180.18 122.23,-190.74 128.62,-187.88"/>
</g>
<!-- 4&#45;&gt;5 -->
<g id="edge17" class="edge">
<title>4&#45;&gt;5</title>
<path fill="none" stroke="grey" stroke-width="2" d="M284.93,-433.09C264.69,-424.23 241.08,-411.77 223,-396 124.94,-310.48 -8.3,-244.77 74,-144 96.59,-116.34 187.18,-102.74 255.12,-96.32"/>
<polygon fill="grey" stroke="grey" stroke-width="2" points="255.75,-99.78 265.39,-95.39 255.12,-92.81 255.75,-99.78"/>
</g>
<!-- 7 -->
<g id="node8" class="node">
<title>7</title>
<path fill="none" stroke="#56d873" stroke-width="2" stroke-dasharray="5,2" d="M405.5,-324C405.5,-324 346.5,-324 346.5,-324 340.5,-324 334.5,-318 334.5,-312 334.5,-312 334.5,-300 334.5,-300 334.5,-294 340.5,-288 346.5,-288 346.5,-288 405.5,-288 405.5,-288 411.5,-288 417.5,-294 417.5,-300 417.5,-300 417.5,-312 417.5,-312 417.5,-318 411.5,-324 405.5,-324"/>
<text text-anchor="middle" x="376" y="-303.5" font-family="sans" font-size="10.00">batch_effects</text>
</g>
<!-- 4&#45;&gt;7 -->
<g id="edge21" class="edge">
<title>4&#45;&gt;7</title>
<path fill="none" stroke="grey" stroke-width="2" d="M331.79,-431.68C335.96,-413.56 343.25,-384.4 352,-360 355.14,-351.25 359.12,-341.95 362.93,-333.62"/>
<polygon fill="grey" stroke="grey" stroke-width="2" points="366.19,-334.91 367.27,-324.37 359.85,-331.94 366.19,-334.91"/>
</g>
<!-- 11 -->
<g id="node12" class="node">
<title>11</title>
<path fill="none" stroke="#56d8d8" stroke-width="2" stroke-dasharray="5,2" d="M440,-396C440,-396 406,-396 406,-396 400,-396 394,-390 394,-384 394,-384 394,-372 394,-372 394,-366 400,-360 406,-360 406,-360 440,-360 440,-360 446,-360 452,-366 452,-372 452,-372 452,-384 452,-384 452,-390 446,-396 440,-396"/>
<text text-anchor="middle" x="423" y="-375.5" font-family="sans" font-size="10.00">surv_est</text>
</g>
<!-- 4&#45;&gt;11 -->
<g id="edge26" class="edge">
<title>4&#45;&gt;11</title>
<path fill="none" stroke="grey" stroke-width="2" d="M351.48,-431.7C363.56,-422.8 378.45,-411.82 391.52,-402.2"/>
<polygon fill="grey" stroke="grey" stroke-width="2" points="393.81,-404.85 399.79,-396.1 389.66,-399.22 393.81,-404.85"/>
</g>
<!-- 4&#45;&gt;14 -->
<g id="edge33" class="edge">
<title>4&#45;&gt;14</title>
<path fill="none" stroke="grey" stroke-width="2" d="M313.05,-431.82C285.94,-399.38 229.53,-325.71 209,-252 204.71,-236.59 201.69,-230.23 209,-216 215.27,-203.79 225.81,-193.77 236.99,-185.85"/>
<polygon fill="grey" stroke="grey" stroke-width="2" points="239.16,-188.61 245.61,-180.2 235.33,-182.75 239.16,-188.61"/>
</g>
<!-- 5&#45;&gt;1 -->
<g id="edge6" class="edge">
<title>5&#45;&gt;1</title>
<path fill="none" stroke="grey" stroke-width="2" d="M334,-71.7C334,-63.98 334,-54.71 334,-46.11"/>
<polygon fill="grey" stroke="grey" stroke-width="2" points="337.5,-46.1 334,-36.1 330.5,-46.1 337.5,-46.1"/>
</g>
<!-- 6 -->
<g id="node7" class="node">
<title>6</title>
<path fill="none" stroke="#70d856" stroke-width="2" stroke-dasharray="5,2" d="M503,-252C503,-252 437,-252 437,-252 431,-252 425,-246 425,-240 425,-240 425,-228 425,-228 425,-222 431,-216 437,-216 437,-216 503,-216 503,-216 509,-216 515,-222 515,-228 515,-228 515,-240 515,-240 515,-246 509,-252 503,-252"/>
<text text-anchor="middle" x="470" y="-231.5" font-family="sans" font-size="10.00">survival_colors</text>
</g>
<!-- 6&#45;&gt;0 -->
<g id="edge1" class="edge">
<title>6&#45;&gt;0</title>
<path fill="none" stroke="grey" stroke-width="2" d="M481.62,-215.7C487.14,-207.47 493.85,-197.48 499.93,-188.42"/>
<polygon fill="grey" stroke="grey" stroke-width="2" points="502.85,-190.36 505.52,-180.1 497.04,-186.46 502.85,-190.36"/>
</g>
<!-- 6&#45;&gt;5 -->
<g id="edge13" class="edge">
<title>6&#45;&gt;5</title>
<path fill="none" stroke="grey" stroke-width="2" d="M453.6,-215.87C429.7,-190.92 385.19,-144.45 357.73,-115.77"/>
<polygon fill="grey" stroke="grey" stroke-width="2" points="359.91,-112.99 350.46,-108.19 354.85,-117.83 359.91,-112.99"/>
</g>
<!-- 6&#45;&gt;14 -->
<g id="edge30" class="edge">
<title>6&#45;&gt;14</title>
<path fill="none" stroke="grey" stroke-width="2" d="M424.73,-216.05C398.63,-206.28 365.61,-193.92 338.01,-183.59"/>
<polygon fill="grey" stroke="grey" stroke-width="2" points="339.09,-180.26 328.5,-180.03 336.64,-186.82 339.09,-180.26"/>
</g>
<!-- 7&#45;&gt;2 -->
<g id="edge7" class="edge">
<title>7&#45;&gt;2</title>
<path fill="none" stroke="grey" stroke-width="2" d="M350.8,-287.88C337.59,-278.89 321.21,-267.76 306.89,-258.03"/>
<polygon fill="grey" stroke="grey" stroke-width="2" points="308.53,-254.92 298.29,-252.19 304.6,-260.71 308.53,-254.92"/>
</g>
<!-- 7&#45;&gt;3 -->
<g id="edge8" class="edge">
<title>7&#45;&gt;3</title>
<path fill="none" stroke="grey" stroke-width="2" d="M334.41,-297.21C299.27,-289.39 248.5,-275.15 209,-252 180.04,-235.03 152.7,-207.79 134.86,-187.91"/>
<polygon fill="grey" stroke="grey" stroke-width="2" points="137.27,-185.36 128.04,-180.16 132.02,-189.98 137.27,-185.36"/>
</g>
<!-- 9 -->
<g id="node10" class="node">
<title>9</title>
<path fill="none" stroke="#d8a456" stroke-width="2" stroke-dasharray="5,2" d="M613,-252C613,-252 545,-252 545,-252 539,-252 533,-246 533,-240 533,-240 533,-228 533,-228 533,-222 539,-216 545,-216 545,-216 613,-216 613,-216 619,-216 625,-222 625,-228 625,-228 625,-240 625,-240 625,-246 619,-252 613,-252"/>
<text text-anchor="middle" x="579" y="-231.5" font-family="sans" font-size="10.00">diffex_pairwise</text>
</g>
<!-- 7&#45;&gt;9 -->
<g id="edge23" class="edge">
<title>7&#45;&gt;9</title>
<path fill="none" stroke="grey" stroke-width="2" d="M417.57,-290.67C448.08,-280.14 489.85,-265.74 523.25,-254.22"/>
<polygon fill="grey" stroke="grey" stroke-width="2" points="524.57,-257.47 532.88,-250.9 522.29,-250.85 524.57,-257.47"/>
</g>
<!-- 12 -->
<g id="node13" class="node">
<title>12</title>
<path fill="none" stroke="#56c1d8" stroke-width="2" stroke-dasharray="5,2" d="M394.5,-252C394.5,-252 357.5,-252 357.5,-252 351.5,-252 345.5,-246 345.5,-240 345.5,-240 345.5,-228 345.5,-228 345.5,-222 351.5,-216 357.5,-216 357.5,-216 394.5,-216 394.5,-216 400.5,-216 406.5,-222 406.5,-228 406.5,-228 406.5,-240 406.5,-240 406.5,-246 400.5,-252 394.5,-252"/>
<text text-anchor="middle" x="376" y="-231.5" font-family="sans" font-size="10.00">lrt_diffex</text>
</g>
<!-- 7&#45;&gt;12 -->
<g id="edge28" class="edge">
<title>7&#45;&gt;12</title>
<path fill="none" stroke="grey" stroke-width="2" d="M376,-287.7C376,-279.98 376,-270.71 376,-262.11"/>
<polygon fill="grey" stroke="grey" stroke-width="2" points="379.5,-262.1 376,-252.1 372.5,-262.1 379.5,-262.1"/>
</g>
<!-- 8 -->
<g id="node9" class="node">
<title>8</title>
<path fill="none" stroke="#59d856" stroke-width="2" stroke-dasharray="5,2" d="M400,-612C400,-612 352,-612 352,-612 346,-612 340,-606 340,-600 340,-600 340,-588 340,-588 340,-582 346,-576 352,-576 352,-576 400,-576 400,-576 406,-576 412,-582 412,-588 412,-588 412,-600 412,-600 412,-606 406,-612 400,-612"/>
<text text-anchor="middle" x="376" y="-591.5" font-family="sans" font-size="10.00">QC_salmon</text>
</g>
<!-- 10 -->
<g id="node11" class="node">
<title>10</title>
<path fill="none" stroke="#bed856" stroke-width="2" stroke-dasharray="5,2" d="M399,-540C399,-540 353,-540 353,-540 347,-540 341,-534 341,-528 341,-528 341,-516 341,-516 341,-510 347,-504 353,-504 353,-504 399,-504 399,-504 405,-504 411,-510 411,-516 411,-516 411,-528 411,-528 411,-534 405,-540 399,-540"/>
<text text-anchor="middle" x="376" y="-519.5" font-family="sans" font-size="10.00">pam50_ihc</text>
</g>
<!-- 8&#45;&gt;10 -->
<g id="edge24" class="edge">
<title>8&#45;&gt;10</title>
<path fill="none" stroke="grey" stroke-width="2" d="M376,-575.7C376,-567.98 376,-558.71 376,-550.11"/>
<polygon fill="grey" stroke="grey" stroke-width="2" points="379.5,-550.1 376,-540.1 372.5,-550.1 379.5,-550.1"/>
</g>
<!-- 9&#45;&gt;0 -->
<g id="edge3" class="edge">
<title>9&#45;&gt;0</title>
<path fill="none" stroke="grey" stroke-width="2" d="M563.67,-215.7C556.24,-207.3 547.18,-197.07 539.02,-187.86"/>
<polygon fill="grey" stroke="grey" stroke-width="2" points="541.4,-185.27 532.15,-180.1 536.16,-189.91 541.4,-185.27"/>
</g>
<!-- 10&#45;&gt;4 -->
<g id="edge12" class="edge">
<title>10&#45;&gt;4</title>
<path fill="none" stroke="grey" stroke-width="2" d="M364.13,-503.7C358.5,-495.47 351.65,-485.48 345.43,-476.42"/>
<polygon fill="grey" stroke="grey" stroke-width="2" points="348.27,-474.37 339.73,-468.1 342.5,-478.33 348.27,-474.37"/>
</g>
<!-- 10&#45;&gt;11 -->
<g id="edge27" class="edge">
<title>10&#45;&gt;11</title>
<path fill="none" stroke="grey" stroke-width="2" d="M381.67,-503.87C389.71,-479.56 404.52,-434.82 414.06,-406.01"/>
<polygon fill="grey" stroke="grey" stroke-width="2" points="417.49,-406.78 417.31,-396.19 410.85,-404.58 417.49,-406.78"/>
</g>
<!-- 11&#45;&gt;7 -->
<g id="edge19" class="edge">
<title>11&#45;&gt;7</title>
<path fill="none" stroke="grey" stroke-width="2" d="M411.38,-359.7C405.86,-351.47 399.15,-341.48 393.07,-332.42"/>
<polygon fill="grey" stroke="grey" stroke-width="2" points="395.96,-330.46 387.48,-324.1 390.15,-334.36 395.96,-330.46"/>
</g>
<!-- 12&#45;&gt;0 -->
<g id="edge5" class="edge">
<title>12&#45;&gt;0</title>
<path fill="none" stroke="grey" stroke-width="2" d="M406.59,-217.81C426.23,-208.07 452.01,-195.26 473.73,-184.48"/>
<polygon fill="grey" stroke="grey" stroke-width="2" points="475.35,-187.58 482.75,-180 472.24,-181.31 475.35,-187.58"/>
</g>
<!-- 12&#45;&gt;3 -->
<g id="edge9" class="edge">
<title>12&#45;&gt;3</title>
<path fill="none" stroke="grey" stroke-width="2" d="M345.11,-218.95C342.39,-217.89 339.66,-216.89 337,-216 274.84,-195.25 200.38,-179.26 155.16,-170.5"/>
<polygon fill="grey" stroke="grey" stroke-width="2" points="155.63,-167.03 145.15,-168.58 154.31,-173.9 155.63,-167.03"/>
</g>
<!-- 12&#45;&gt;14 -->
<g id="edge31" class="edge">
<title>12&#45;&gt;14</title>
<path fill="none" stroke="grey" stroke-width="2" d="M353.01,-215.7C341.19,-206.8 326.61,-195.82 313.82,-186.2"/>
<polygon fill="grey" stroke="grey" stroke-width="2" points="315.82,-183.32 305.72,-180.1 311.61,-188.91 315.82,-183.32"/>
</g>
<!-- 13 -->
<g id="node14" class="node">
<title>13</title>
<path fill="none" stroke="#56a2d8" stroke-width="2" stroke-dasharray="5,2" d="M481.5,-684C481.5,-684 398.5,-684 398.5,-684 392.5,-684 386.5,-678 386.5,-672 386.5,-672 386.5,-660 386.5,-660 386.5,-654 392.5,-648 398.5,-648 398.5,-648 481.5,-648 481.5,-648 487.5,-648 493.5,-654 493.5,-660 493.5,-660 493.5,-672 493.5,-672 493.5,-678 487.5,-684 481.5,-684"/>
<text text-anchor="middle" x="440" y="-663.5" font-family="sans" font-size="10.00">process_metadata</text>
</g>
<!-- 13&#45;&gt;0 -->
<g id="edge2" class="edge">
<title>13&#45;&gt;0</title>
<path fill="none" stroke="grey" stroke-width="2" d="M493.54,-658.66C567.25,-646.62 691,-612.99 691,-523 691,-523 691,-523 691,-305 691,-261.63 682.36,-245.96 651,-216 629.59,-195.54 599.32,-182.67 572.97,-174.75"/>
<polygon fill="grey" stroke="grey" stroke-width="2" points="573.67,-171.31 563.09,-171.95 571.76,-178.04 573.67,-171.31"/>
</g>
<!-- 13&#45;&gt;3 -->
<g id="edge10" class="edge">
<title>13&#45;&gt;3</title>
<path fill="none" stroke="grey" stroke-width="2" d="M386.26,-661.31C300.1,-654.68 135.52,-638.89 84,-612 35.78,-586.83 0,-577.39 0,-523 0,-523 0,-523 0,-305 0,-254 45.27,-210.88 78.76,-185.97"/>
<polygon fill="grey" stroke="grey" stroke-width="2" points="80.92,-188.73 86.98,-180.04 76.83,-183.05 80.92,-188.73"/>
</g>
<!-- 13&#45;&gt;5 -->
<g id="edge16" class="edge">
<title>13&#45;&gt;5</title>
<path fill="none" stroke="grey" stroke-width="2" d="M493.68,-662.22C577.26,-654.67 729,-626.7 729,-523 729,-523 729,-523 729,-233 729,-166.51 528.27,-122.65 413,-102.95"/>
<polygon fill="grey" stroke="grey" stroke-width="2" points="413.25,-99.45 402.8,-101.23 412.08,-106.35 413.25,-99.45"/>
</g>
<!-- 13&#45;&gt;7 -->
<g id="edge20" class="edge">
<title>13&#45;&gt;7</title>
<path fill="none" stroke="grey" stroke-width="2" d="M448.09,-647.95C459.78,-621.72 480,-569.61 480,-523 480,-523 480,-523 480,-449 480,-408.55 484.23,-393.11 461,-360 452.15,-347.39 439.26,-337.16 426.17,-329.18"/>
<polygon fill="grey" stroke="grey" stroke-width="2" points="427.54,-325.93 417.12,-324.01 424.07,-332.01 427.54,-325.93"/>
</g>
<!-- 13&#45;&gt;8 -->
<g id="edge22" class="edge">
<title>13&#45;&gt;8</title>
<path fill="none" stroke="grey" stroke-width="2" d="M424.18,-647.7C416.43,-639.22 406.96,-628.86 398.48,-619.58"/>
<polygon fill="grey" stroke="grey" stroke-width="2" points="400.97,-617.12 391.64,-612.1 395.8,-621.85 400.97,-617.12"/>
</g>
<!-- 13&#45;&gt;11 -->
<g id="edge25" class="edge">
<title>13&#45;&gt;11</title>
<path fill="none" stroke="grey" stroke-width="2" d="M438.99,-647.97C436.15,-600.29 428.12,-465.18 424.64,-406.63"/>
<polygon fill="grey" stroke="grey" stroke-width="2" points="428.12,-406.08 424.03,-396.31 421.13,-406.5 428.12,-406.08"/>
</g>
<!-- 13&#45;&gt;14 -->
<g id="edge32" class="edge">
<title>13&#45;&gt;14</title>
<path fill="none" stroke="grey" stroke-width="2" d="M386.2,-657.53C276.66,-640.81 38,-596 38,-523 38,-523 38,-523 38,-449 38,-324.8 172.91,-227.44 242.51,-185.48"/>
<polygon fill="grey" stroke="grey" stroke-width="2" points="244.66,-188.27 251.47,-180.16 241.09,-182.25 244.66,-188.27"/>
</g>
<!-- 14&#45;&gt;5 -->
<g id="edge18" class="edge">
<title>14&#45;&gt;5</title>
<path fill="none" stroke="grey" stroke-width="2" d="M295.61,-143.7C301.6,-135.47 308.88,-125.48 315.48,-116.42"/>
<polygon fill="grey" stroke="grey" stroke-width="2" points="318.48,-118.25 321.54,-108.1 312.82,-114.13 318.48,-118.25"/>
</g>
</g>
</svg>
