<?xml version="1.0" encoding="UTF-8" standalone="no"?>
<!DOCTYPE svg PUBLIC "-//W3C//DTD SVG 1.1//EN"
 "http://www.w3.org/Graphics/SVG/1.1/DTD/svg11.dtd">
<!-- Generated by graphviz version 2.43.0 (0)
 -->
<!-- Title: snakemake_dag Pages: 1 -->
<svg width="1452pt" height="980pt"
 viewBox="0.00 0.00 1452.00 980.00" xmlns="http://www.w3.org/2000/svg" xmlns:xlink="http://www.w3.org/1999/xlink">
<g id="graph0" class="graph" transform="scale(1 1) rotate(0) translate(4 976)">
<title>snakemake_dag</title>
<polygon fill="white" stroke="transparent" points="-4,4 -4,-976 1448,-976 1448,4 -4,4"/>
<!-- 0 -->
<g id="node1" class="node">
<title>0</title>
<path fill="none" stroke="#d6d856" stroke-width="2" stroke-dasharray="5,2" d="M758,-36C758,-36 728,-36 728,-36 722,-36 716,-30 716,-24 716,-24 716,-12 716,-12 716,-6 722,0 728,0 728,0 758,0 758,0 764,0 770,-6 770,-12 770,-12 770,-24 770,-24 770,-30 764,-36 758,-36"/>
<text text-anchor="middle" x="743" y="-15.5" font-family="sans" font-size="10.00">all</text>
</g>
<!-- 1 -->
<g id="node2" class="node">
<title>1</title>
<path fill="none" stroke="#d85656" stroke-width="2" stroke-dasharray="5,2" d="M782.5,-108C782.5,-108 703.5,-108 703.5,-108 697.5,-108 691.5,-102 691.5,-96 691.5,-96 691.5,-84 691.5,-84 691.5,-78 697.5,-72 703.5,-72 703.5,-72 782.5,-72 782.5,-72 788.5,-72 794.5,-78 794.5,-84 794.5,-84 794.5,-96 794.5,-96 794.5,-102 788.5,-108 782.5,-108"/>
<text text-anchor="middle" x="743" y="-87.5" font-family="sans" font-size="10.00">gene_unity_setup</text>
</g>
<!-- 1&#45;&gt;0 -->
<g id="edge1" class="edge">
<title>1&#45;&gt;0</title>
<path fill="none" stroke="grey" stroke-width="2" d="M743,-71.7C743,-63.98 743,-54.71 743,-46.11"/>
<polygon fill="grey" stroke="grey" stroke-width="2" points="746.5,-46.1 743,-36.1 739.5,-46.1 746.5,-46.1"/>
</g>
<!-- 2 -->
<g id="node3" class="node">
<title>2</title>
<path fill="none" stroke="#56d87b" stroke-width="2" stroke-dasharray="5,2" d="M500,-324C500,-324 414,-324 414,-324 408,-324 402,-318 402,-312 402,-312 402,-300 402,-300 402,-294 408,-288 414,-288 414,-288 500,-288 500,-288 506,-288 512,-294 512,-300 512,-300 512,-312 512,-312 512,-318 506,-324 500,-324"/>
<text text-anchor="middle" x="457" y="-303.5" font-family="sans" font-size="10.00">one_vs_rest_report</text>
</g>
<!-- 2&#45;&gt;1 -->
<g id="edge2" class="edge">
<title>2&#45;&gt;1</title>
<path fill="none" stroke="grey" stroke-width="2" d="M401.95,-293.17C379.48,-285.38 355.62,-272.64 342,-252 315.56,-211.93 308.34,-180.09 340,-144 362.12,-118.78 573.65,-101.79 681.06,-94.71"/>
<polygon fill="grey" stroke="grey" stroke-width="2" points="681.37,-98.2 691.12,-94.06 680.91,-91.22 681.37,-98.2"/>
</g>
<!-- 8 -->
<g id="node9" class="node">
<title>8</title>
<path fill="none" stroke="#56b1d8" stroke-width="2" stroke-dasharray="5,2" d="M1128,-252C1128,-252 1004,-252 1004,-252 998,-252 992,-246 992,-240 992,-240 992,-228 992,-228 992,-222 998,-216 1004,-216 1004,-216 1128,-216 1128,-216 1134,-216 1140,-222 1140,-228 1140,-228 1140,-240 1140,-240 1140,-246 1134,-252 1128,-252"/>
<text text-anchor="middle" x="1066" y="-231.5" font-family="sans" font-size="10.00">report_interaction_survival</text>
</g>
<!-- 2&#45;&gt;8 -->
<g id="edge46" class="edge">
<title>2&#45;&gt;8</title>
<path fill="none" stroke="grey" stroke-width="2" d="M512.12,-298.66C619.02,-286.38 855.12,-259.24 981.79,-244.68"/>
<polygon fill="grey" stroke="grey" stroke-width="2" points="982.3,-248.14 991.84,-243.52 981.5,-241.19 982.3,-248.14"/>
</g>
<!-- 9 -->
<g id="node10" class="node">
<title>9</title>
<path fill="none" stroke="#5663d8" stroke-width="2" stroke-dasharray="5,2" d="M740,-180C740,-180 672,-180 672,-180 666,-180 660,-174 660,-168 660,-168 660,-156 660,-156 660,-150 666,-144 672,-144 672,-144 740,-144 740,-144 746,-144 752,-150 752,-156 752,-156 752,-168 752,-168 752,-174 746,-180 740,-180"/>
<text text-anchor="middle" x="706" y="-159.5" font-family="sans" font-size="10.00">report_cox_glm</text>
</g>
<!-- 2&#45;&gt;9 -->
<g id="edge48" class="edge">
<title>2&#45;&gt;9</title>
<path fill="none" stroke="grey" stroke-width="2" d="M420.97,-287.81C407.08,-279.16 392.7,-267.24 385,-252 377.78,-237.72 374.47,-228.05 385,-216 422.41,-173.19 577.24,-190.96 649.84,-179.72"/>
<polygon fill="grey" stroke="grey" stroke-width="2" points="650.74,-183.12 659.93,-177.84 649.46,-176.23 650.74,-183.12"/>
</g>
<!-- 10 -->
<g id="node11" class="node">
<title>10</title>
<path fill="none" stroke="#d85e56" stroke-width="2" stroke-dasharray="5,2" d="M449.5,-180C449.5,-180 360.5,-180 360.5,-180 354.5,-180 348.5,-174 348.5,-168 348.5,-168 348.5,-156 348.5,-156 348.5,-150 354.5,-144 360.5,-144 360.5,-144 449.5,-144 449.5,-144 455.5,-144 461.5,-150 461.5,-156 461.5,-156 461.5,-168 461.5,-168 461.5,-174 455.5,-180 449.5,-180"/>
<text text-anchor="middle" x="405" y="-159.5" font-family="sans" font-size="10.00">report_inv_cox_glm</text>
</g>
<!-- 2&#45;&gt;10 -->
<g id="edge55" class="edge">
<title>2&#45;&gt;10</title>
<path fill="none" stroke="grey" stroke-width="2" d="M401.96,-290.38C382.73,-282.34 363.18,-270.17 352,-252 343.61,-238.37 345.88,-230.78 352,-216 356.54,-205.03 364.59,-195.14 373.05,-186.96"/>
<polygon fill="grey" stroke="grey" stroke-width="2" points="375.44,-189.53 380.52,-180.23 370.75,-184.33 375.44,-189.53"/>
</g>
<!-- 11 -->
<g id="node12" class="node">
<title>11</title>
<path fill="none" stroke="#56d8c9" stroke-width="2" stroke-dasharray="5,2" d="M926,-180C926,-180 820,-180 820,-180 814,-180 808,-174 808,-168 808,-168 808,-156 808,-156 808,-150 814,-144 820,-144 820,-144 926,-144 926,-144 932,-144 938,-150 938,-156 938,-156 938,-168 938,-168 938,-174 932,-180 926,-180"/>
<text text-anchor="middle" x="873" y="-159.5" font-family="sans" font-size="10.00">report_all_inv_cox_glm</text>
</g>
<!-- 2&#45;&gt;11 -->
<g id="edge62" class="edge">
<title>2&#45;&gt;11</title>
<path fill="none" stroke="grey" stroke-width="2" d="M512.23,-302.86C573.78,-298.76 675.16,-286.81 755,-252 790.98,-236.31 826.09,-207.6 848.53,-187.02"/>
<polygon fill="grey" stroke="grey" stroke-width="2" points="851,-189.51 855.91,-180.12 846.22,-184.39 851,-189.51"/>
</g>
<!-- 21 -->
<g id="node22" class="node">
<title>21</title>
<path fill="none" stroke="#d86e56" stroke-width="2" stroke-dasharray="5,2" d="M620,-252C620,-252 502,-252 502,-252 496,-252 490,-246 490,-240 490,-240 490,-228 490,-228 490,-222 496,-216 502,-216 502,-216 620,-216 620,-216 626,-216 632,-222 632,-228 632,-228 632,-240 632,-240 632,-246 626,-252 620,-252"/>
<text text-anchor="middle" x="561" y="-231.5" font-family="sans" font-size="10.00">report_genewise_survival</text>
</g>
<!-- 2&#45;&gt;21 -->
<g id="edge82" class="edge">
<title>2&#45;&gt;21</title>
<path fill="none" stroke="grey" stroke-width="2" d="M482.44,-287.88C495.79,-278.89 512.32,-267.76 526.78,-258.03"/>
<polygon fill="grey" stroke="grey" stroke-width="2" points="529.12,-260.68 535.46,-252.19 525.21,-254.87 529.12,-260.68"/>
</g>
<!-- 3 -->
<g id="node4" class="node">
<title>3</title>
<path fill="none" stroke="#56d8b1" stroke-width="2" stroke-dasharray="5,2" d="M952,-324C952,-324 884,-324 884,-324 878,-324 872,-318 872,-312 872,-312 872,-300 872,-300 872,-294 878,-288 884,-288 884,-288 952,-288 952,-288 958,-288 964,-294 964,-300 964,-300 964,-312 964,-312 964,-318 958,-324 952,-324"/>
<text text-anchor="middle" x="918" y="-303.5" font-family="sans" font-size="10.00">pairwise_report</text>
</g>
<!-- 3&#45;&gt;1 -->
<g id="edge3" class="edge">
<title>3&#45;&gt;1</title>
<path fill="none" stroke="grey" stroke-width="2" d="M928.79,-287.93C947.37,-256.13 980.36,-187.14 947,-144 929.6,-121.5 858.08,-106.78 804.61,-98.69"/>
<polygon fill="grey" stroke="grey" stroke-width="2" points="804.92,-95.2 794.51,-97.21 803.9,-102.12 804.92,-95.2"/>
</g>
<!-- 3&#45;&gt;8 -->
<g id="edge45" class="edge">
<title>3&#45;&gt;8</title>
<path fill="none" stroke="grey" stroke-width="2" d="M954.2,-287.88C974.26,-278.39 999.37,-266.51 1020.71,-256.42"/>
<polygon fill="grey" stroke="grey" stroke-width="2" points="1022.37,-259.51 1029.91,-252.07 1019.38,-253.18 1022.37,-259.51"/>
</g>
<!-- 3&#45;&gt;9 -->
<g id="edge49" class="edge">
<title>3&#45;&gt;9</title>
<path fill="none" stroke="grey" stroke-width="2" d="M892.43,-287.87C854.31,-262.34 782.52,-214.25 740.01,-185.78"/>
<polygon fill="grey" stroke="grey" stroke-width="2" points="741.92,-182.85 731.66,-180.19 738.02,-188.66 741.92,-182.85"/>
</g>
<!-- 3&#45;&gt;10 -->
<g id="edge56" class="edge">
<title>3&#45;&gt;10</title>
<path fill="none" stroke="grey" stroke-width="2" d="M871.91,-291.55C867.22,-290.3 862.53,-289.09 858,-288 779.13,-268.92 751.04,-289.36 679,-252 658.35,-241.29 661.6,-226.82 641,-216 575.43,-181.57 548.43,-196.29 471.94,-180.07"/>
<polygon fill="grey" stroke="grey" stroke-width="2" points="472.37,-176.58 461.84,-177.81 470.84,-183.41 472.37,-176.58"/>
</g>
<!-- 3&#45;&gt;11 -->
<g id="edge63" class="edge">
<title>3&#45;&gt;11</title>
<path fill="none" stroke="grey" stroke-width="2" d="M916.57,-287.85C914.67,-269.61 910.52,-240.13 902,-216 898.72,-206.7 893.94,-197.09 889.2,-188.64"/>
<polygon fill="grey" stroke="grey" stroke-width="2" points="892.22,-186.87 884.15,-180 886.18,-190.4 892.22,-186.87"/>
</g>
<!-- 3&#45;&gt;21 -->
<g id="edge81" class="edge">
<title>3&#45;&gt;21</title>
<path fill="none" stroke="grey" stroke-width="2" d="M871.94,-291.41C867.25,-290.19 862.54,-289.03 858,-288 764.78,-266.94 739.98,-269.37 646,-252 644.75,-251.77 643.49,-251.54 642.23,-251.3"/>
<polygon fill="grey" stroke="grey" stroke-width="2" points="642.87,-247.86 632.39,-249.44 641.57,-254.74 642.87,-247.86"/>
</g>
<!-- 4 -->
<g id="node5" class="node">
<title>4</title>
<path fill="none" stroke="#56d8b9" stroke-width="2" stroke-dasharray="5,2" d="M210,-252C210,-252 172,-252 172,-252 166,-252 160,-246 160,-240 160,-240 160,-228 160,-228 160,-222 166,-216 172,-216 172,-216 210,-216 210,-216 216,-216 222,-222 222,-228 222,-228 222,-240 222,-240 222,-246 216,-252 210,-252"/>
<text text-anchor="middle" x="191" y="-231.5" font-family="sans" font-size="10.00">lrt_report</text>
</g>
<!-- 4&#45;&gt;1 -->
<g id="edge4" class="edge">
<title>4&#45;&gt;1</title>
<path fill="none" stroke="grey" stroke-width="2" d="M174.16,-215.66C157.26,-196.16 136.22,-164.55 155,-144 189.99,-105.72 537.18,-94.84 681.05,-91.96"/>
<polygon fill="grey" stroke="grey" stroke-width="2" points="681.12,-95.46 691.05,-91.77 680.98,-88.46 681.12,-95.46"/>
</g>
<!-- 4&#45;&gt;9 -->
<g id="edge50" class="edge">
<title>4&#45;&gt;9</title>
<path fill="none" stroke="grey" stroke-width="2" d="M222.03,-229.76C313.39,-220.18 579,-192 649.97,-179.8"/>
<polygon fill="grey" stroke="grey" stroke-width="2" points="650.77,-183.21 659.95,-177.91 649.47,-176.33 650.77,-183.21"/>
</g>
<!-- 4&#45;&gt;10 -->
<g id="edge57" class="edge">
<title>4&#45;&gt;10</title>
<path fill="none" stroke="grey" stroke-width="2" d="M222.12,-222.82C253.71,-212.49 303.49,-196.21 343.14,-183.24"/>
<polygon fill="grey" stroke="grey" stroke-width="2" points="344.31,-186.54 352.72,-180.1 342.13,-179.88 344.31,-186.54"/>
</g>
<!-- 4&#45;&gt;11 -->
<g id="edge64" class="edge">
<title>4&#45;&gt;11</title>
<path fill="none" stroke="grey" stroke-width="2" d="M222.16,-230.21C333.42,-220.23 707.36,-186.56 761,-180 772.9,-178.55 785.47,-176.82 797.74,-175.04"/>
<polygon fill="grey" stroke="grey" stroke-width="2" points="798.56,-178.45 807.94,-173.53 797.54,-171.53 798.56,-178.45"/>
</g>
<!-- 5 -->
<g id="node6" class="node">
<title>5</title>
<path fill="none" stroke="#56a2d8" stroke-width="2" stroke-dasharray="5,2" d="M1135.5,-396C1135.5,-396 1042.5,-396 1042.5,-396 1036.5,-396 1030.5,-390 1030.5,-384 1030.5,-384 1030.5,-372 1030.5,-372 1030.5,-366 1036.5,-360 1042.5,-360 1042.5,-360 1135.5,-360 1135.5,-360 1141.5,-360 1147.5,-366 1147.5,-372 1147.5,-372 1147.5,-384 1147.5,-384 1147.5,-390 1141.5,-396 1135.5,-396"/>
<text text-anchor="middle" x="1089" y="-375.5" font-family="sans" font-size="10.00">diffex_breastfeeding</text>
</g>
<!-- 5&#45;&gt;1 -->
<g id="edge5" class="edge">
<title>5&#45;&gt;1</title>
<path fill="none" stroke="grey" stroke-width="2" d="M1147.83,-360.09C1178.05,-350.09 1210.33,-336.9 1219,-324 1227.93,-310.72 1225.02,-302.82 1219,-288 1154.32,-128.69 918.34,-97.55 804.82,-91.93"/>
<polygon fill="grey" stroke="grey" stroke-width="2" points="804.7,-88.42 794.56,-91.47 804.39,-95.41 804.7,-88.42"/>
</g>
<!-- 6 -->
<g id="node7" class="node">
<title>6</title>
<path fill="none" stroke="#d89c56" stroke-width="2" stroke-dasharray="5,2" d="M1252,-396C1252,-396 1178,-396 1178,-396 1172,-396 1166,-390 1166,-384 1166,-384 1166,-372 1166,-372 1166,-366 1172,-360 1178,-360 1178,-360 1252,-360 1252,-360 1258,-360 1264,-366 1264,-372 1264,-372 1264,-384 1264,-384 1264,-390 1258,-396 1252,-396"/>
<text text-anchor="middle" x="1215" y="-375.5" font-family="sans" font-size="10.00">diffex_involution</text>
</g>
<!-- 6&#45;&gt;1 -->
<g id="edge6" class="edge">
<title>6&#45;&gt;1</title>
<path fill="none" stroke="grey" stroke-width="2" d="M1223.31,-359.79C1227.74,-349.63 1232.74,-336.38 1235,-324 1237.87,-308.26 1238.59,-303.59 1235,-288 1215.86,-204.84 1186.46,-177.55 1108,-144 1007.77,-101.14 879.43,-91.84 804.69,-90.43"/>
<polygon fill="grey" stroke="grey" stroke-width="2" points="804.56,-86.93 794.51,-90.28 804.46,-93.92 804.56,-86.93"/>
</g>
<!-- 7 -->
<g id="node8" class="node">
<title>7</title>
<path fill="none" stroke="#c6d856" stroke-width="2" stroke-dasharray="5,2" d="M630,-180C630,-180 492,-180 492,-180 486,-180 480,-174 480,-168 480,-168 480,-156 480,-156 480,-150 486,-144 492,-144 492,-144 630,-144 630,-144 636,-144 642,-150 642,-156 642,-156 642,-168 642,-168 642,-174 636,-180 630,-180"/>
<text text-anchor="middle" x="561" y="-159.5" font-family="sans" font-size="10.00">aggregate_genewise_survival</text>
</g>
<!-- 7&#45;&gt;1 -->
<g id="edge7" class="edge">
<title>7&#45;&gt;1</title>
<path fill="none" stroke="grey" stroke-width="2" d="M605.52,-143.88C630.73,-134.18 662.45,-121.98 689.07,-111.74"/>
<polygon fill="grey" stroke="grey" stroke-width="2" points="690.55,-114.92 698.62,-108.07 688.03,-108.39 690.55,-114.92"/>
</g>
<!-- 8&#45;&gt;1 -->
<g id="edge8" class="edge">
<title>8&#45;&gt;1</title>
<path fill="none" stroke="grey" stroke-width="2" d="M1054.19,-215.67C1039.33,-195.26 1011.86,-161.87 980,-144 925.48,-113.41 854.6,-100.48 804.61,-95.01"/>
<polygon fill="grey" stroke="grey" stroke-width="2" points="804.89,-91.52 794.59,-93.98 804.18,-98.48 804.89,-91.52"/>
</g>
<!-- 8&#45;&gt;9 -->
<g id="edge52" class="edge">
<title>8&#45;&gt;9</title>
<path fill="none" stroke="grey" stroke-width="2" d="M991.84,-218.58C923.6,-205.31 823.88,-185.92 762.06,-173.9"/>
<polygon fill="grey" stroke="grey" stroke-width="2" points="762.59,-170.44 752.1,-171.96 761.25,-177.31 762.59,-170.44"/>
</g>
<!-- 8&#45;&gt;10 -->
<g id="edge59" class="edge">
<title>8&#45;&gt;10</title>
<path fill="none" stroke="grey" stroke-width="2" d="M991.75,-230.28C880.59,-225.35 664.31,-212.43 471.77,-179.96"/>
<polygon fill="grey" stroke="grey" stroke-width="2" points="472.2,-176.48 461.75,-178.25 471.02,-183.38 472.2,-176.48"/>
</g>
<!-- 8&#45;&gt;11 -->
<g id="edge66" class="edge">
<title>8&#45;&gt;11</title>
<path fill="none" stroke="grey" stroke-width="2" d="M1018.79,-215.88C991.93,-206.14 958.12,-193.87 929.82,-183.61"/>
<polygon fill="grey" stroke="grey" stroke-width="2" points="930.65,-180.19 920.06,-180.07 928.27,-186.77 930.65,-180.19"/>
</g>
<!-- 9&#45;&gt;1 -->
<g id="edge9" class="edge">
<title>9&#45;&gt;1</title>
<path fill="none" stroke="grey" stroke-width="2" d="M715.15,-143.7C719.4,-135.64 724.56,-125.89 729.27,-116.98"/>
<polygon fill="grey" stroke="grey" stroke-width="2" points="732.38,-118.58 733.96,-108.1 726.19,-115.31 732.38,-118.58"/>
</g>
<!-- 10&#45;&gt;1 -->
<g id="edge10" class="edge">
<title>10&#45;&gt;1</title>
<path fill="none" stroke="grey" stroke-width="2" d="M461.83,-146.13C464.93,-145.39 468,-144.68 471,-144 542.9,-127.75 626.16,-111.97 681.44,-101.91"/>
<polygon fill="grey" stroke="grey" stroke-width="2" points="682.21,-105.33 691.42,-100.1 680.96,-98.44 682.21,-105.33"/>
</g>
<!-- 11&#45;&gt;1 -->
<g id="edge11" class="edge">
<title>11&#45;&gt;1</title>
<path fill="none" stroke="grey" stroke-width="2" d="M841.2,-143.88C823.89,-134.55 802.28,-122.92 783.74,-112.94"/>
<polygon fill="grey" stroke="grey" stroke-width="2" points="785.39,-109.85 774.92,-108.19 782.07,-116.01 785.39,-109.85"/>
</g>
<!-- 12 -->
<g id="node13" class="node">
<title>12</title>
<path fill="none" stroke="#d87556" stroke-width="2" stroke-dasharray="5,2" d="M280,-180C280,-180 176,-180 176,-180 170,-180 164,-174 164,-168 164,-168 164,-156 164,-156 164,-150 170,-144 176,-144 176,-144 280,-144 280,-144 286,-144 292,-150 292,-156 292,-156 292,-168 292,-168 292,-174 286,-180 280,-180"/>
<text text-anchor="middle" x="228" y="-159.5" font-family="sans" font-size="10.00">report_subgroup_comp</text>
</g>
<!-- 12&#45;&gt;1 -->
<g id="edge12" class="edge">
<title>12&#45;&gt;1</title>
<path fill="none" stroke="grey" stroke-width="2" d="M292.18,-146.51C296.85,-145.61 301.49,-144.76 306,-144 439.05,-121.48 596.46,-104.81 681.33,-96.64"/>
<polygon fill="grey" stroke="grey" stroke-width="2" points="681.69,-100.12 691.31,-95.68 681.02,-93.15 681.69,-100.12"/>
</g>
<!-- 13 -->
<g id="node14" class="node">
<title>13</title>
<path fill="none" stroke="#59d856" stroke-width="2" stroke-dasharray="5,2" d="M902.5,-972C902.5,-972 819.5,-972 819.5,-972 813.5,-972 807.5,-966 807.5,-960 807.5,-960 807.5,-948 807.5,-948 807.5,-942 813.5,-936 819.5,-936 819.5,-936 902.5,-936 902.5,-936 908.5,-936 914.5,-942 914.5,-948 914.5,-948 914.5,-960 914.5,-960 914.5,-966 908.5,-972 902.5,-972"/>
<text text-anchor="middle" x="861" y="-951.5" font-family="sans" font-size="10.00">process_metadata</text>
</g>
<!-- 13&#45;&gt;1 -->
<g id="edge13" class="edge">
<title>13&#45;&gt;1</title>
<path fill="none" stroke="grey" stroke-width="2" d="M914.78,-952.31C1028.52,-950.06 1289.38,-940.51 1367,-900 1413.37,-875.8 1444,-863.3 1444,-811 1444,-811 1444,-811 1444,-233 1444,-103.1 975.76,-90.68 804.65,-90.48"/>
<polygon fill="grey" stroke="grey" stroke-width="2" points="804.55,-86.98 794.55,-90.48 804.55,-93.98 804.55,-86.98"/>
</g>
<!-- 13&#45;&gt;2 -->
<g id="edge20" class="edge">
<title>13&#45;&gt;2</title>
<path fill="none" stroke="grey" stroke-width="2" d="M807.41,-951.59C661.16,-946.31 266,-921.78 266,-811 266,-811 266,-811 266,-449 266,-404.06 280.08,-389.48 314,-360 336.07,-340.82 365.71,-328.32 392.28,-320.31"/>
<polygon fill="grey" stroke="grey" stroke-width="2" points="393.26,-323.67 401.91,-317.56 391.34,-316.94 393.26,-323.67"/>
</g>
<!-- 13&#45;&gt;3 -->
<g id="edge25" class="edge">
<title>13&#45;&gt;3</title>
<path fill="none" stroke="grey" stroke-width="2" d="M914.71,-946.79C1030.25,-931.93 1292,-889.59 1292,-811 1292,-811 1292,-811 1292,-449 1292,-408.55 1302.47,-387.7 1273,-360 1251.56,-339.85 1068.53,-320.58 974.01,-311.87"/>
<polygon fill="grey" stroke="grey" stroke-width="2" points="974.32,-308.38 964.04,-310.96 973.68,-315.35 974.32,-308.38"/>
</g>
<!-- 13&#45;&gt;4 -->
<g id="edge28" class="edge">
<title>13&#45;&gt;4</title>
<path fill="none" stroke="grey" stroke-width="2" d="M807.33,-951.19C677.1,-946.35 347.33,-931.29 242,-900 161.75,-876.16 76,-894.71 76,-811 76,-811 76,-811 76,-449 76,-372.61 133.56,-297.19 167.24,-259.61"/>
<polygon fill="grey" stroke="grey" stroke-width="2" points="169.87,-261.92 174.03,-252.18 164.7,-257.2 169.87,-261.92"/>
</g>
<!-- 13&#45;&gt;5 -->
<g id="edge31" class="edge">
<title>13&#45;&gt;5</title>
<path fill="none" stroke="grey" stroke-width="2" d="M914.77,-947.05C989.58,-935.45 1116,-902.34 1116,-811 1116,-811 1116,-811 1116,-737 1116,-613.19 1099.74,-465.98 1092.46,-406.22"/>
<polygon fill="grey" stroke="grey" stroke-width="2" points="1095.91,-405.6 1091.21,-396.11 1088.96,-406.46 1095.91,-405.6"/>
</g>
<!-- 13&#45;&gt;6 -->
<g id="edge35" class="edge">
<title>13&#45;&gt;6</title>
<path fill="none" stroke="grey" stroke-width="2" d="M914.92,-947.77C963.49,-941.45 1035.84,-927.94 1093,-900 1149.19,-872.53 1202,-873.54 1202,-811 1202,-811 1202,-811 1202,-521 1202,-480.83 1207.22,-434.53 1211.05,-406.01"/>
<polygon fill="grey" stroke="grey" stroke-width="2" points="1214.53,-406.39 1212.43,-396 1207.6,-405.43 1214.53,-406.39"/>
</g>
<!-- 13&#45;&gt;8 -->
<g id="edge43" class="edge">
<title>13&#45;&gt;8</title>
<path fill="none" stroke="grey" stroke-width="2" d="M914.68,-950.29C1011.78,-944.72 1212.39,-929.89 1275,-900 1326.63,-875.35 1368,-868.21 1368,-811 1368,-811 1368,-811 1368,-449 1368,-340.65 1237,-282.2 1147.56,-254.91"/>
<polygon fill="grey" stroke="grey" stroke-width="2" points="1148.54,-251.55 1137.95,-252.05 1146.54,-258.26 1148.54,-251.55"/>
</g>
<!-- 13&#45;&gt;9 -->
<g id="edge53" class="edge">
<title>13&#45;&gt;9</title>
<path fill="none" stroke="grey" stroke-width="2" d="M807.44,-952.06C643.5,-948.79 155.92,-936.11 95,-900 54.59,-876.05 38,-857.97 38,-811 38,-811 38,-811 38,-449 38,-333.91 54.98,-279.46 151,-216 241.4,-156.26 525.4,-198.15 649.87,-179.76"/>
<polygon fill="grey" stroke="grey" stroke-width="2" points="650.7,-183.17 659.98,-178.06 649.54,-176.26 650.7,-183.17"/>
</g>
<!-- 13&#45;&gt;10 -->
<g id="edge60" class="edge">
<title>13&#45;&gt;10</title>
<path fill="none" stroke="grey" stroke-width="2" d="M807.29,-952.51C636.07,-950.54 110.55,-941.18 47,-900 9.46,-875.67 0,-855.73 0,-811 0,-811 0,-811 0,-377 0,-292.77 28.99,-261.31 100,-216 105.04,-212.79 250.35,-188.45 338.56,-173.89"/>
<polygon fill="grey" stroke="grey" stroke-width="2" points="339.19,-177.34 348.49,-172.26 338.05,-170.43 339.19,-177.34"/>
</g>
<!-- 13&#45;&gt;11 -->
<g id="edge67" class="edge">
<title>13&#45;&gt;11</title>
<path fill="none" stroke="grey" stroke-width="2" d="M914.81,-951.46C1020.85,-947.68 1252.63,-935.5 1323,-900 1371.29,-875.64 1406,-865.09 1406,-811 1406,-811 1406,-811 1406,-377 1406,-307.35 1336.08,-324.89 1277,-288 1221.63,-253.43 1210.29,-238.45 1149,-216 1083.3,-191.94 1004.61,-178.21 948.09,-170.78"/>
<polygon fill="grey" stroke="grey" stroke-width="2" points="948.53,-167.3 938.16,-169.51 947.64,-174.25 948.53,-167.3"/>
</g>
<!-- 14 -->
<g id="node15" class="node">
<title>14</title>
<path fill="none" stroke="#56d8a2" stroke-width="2" stroke-dasharray="5,2" d="M733.5,-396C733.5,-396 650.5,-396 650.5,-396 644.5,-396 638.5,-390 638.5,-384 638.5,-384 638.5,-372 638.5,-372 638.5,-366 644.5,-360 650.5,-360 650.5,-360 733.5,-360 733.5,-360 739.5,-360 745.5,-366 745.5,-372 745.5,-372 745.5,-384 745.5,-384 745.5,-390 739.5,-396 733.5,-396"/>
<text text-anchor="middle" x="692" y="-375.5" font-family="sans" font-size="10.00">genewise_survival</text>
</g>
<!-- 13&#45;&gt;14 -->
<g id="edge69" class="edge">
<title>13&#45;&gt;14</title>
<path fill="none" stroke="grey" stroke-width="2" d="M876.41,-935.58C897.29,-910.1 932,-860.34 932,-811 932,-811 932,-811 932,-737 932,-588.46 787.69,-455.02 722.87,-402.58"/>
<polygon fill="grey" stroke="grey" stroke-width="2" points="725.01,-399.81 715.01,-396.3 720.64,-405.28 725.01,-399.81"/>
</g>
<!-- 13&#45;&gt;21 -->
<g id="edge80" class="edge">
<title>13&#45;&gt;21</title>
<path fill="none" stroke="grey" stroke-width="2" d="M807.13,-953.05C684.57,-952.35 388.74,-945.81 302,-900 256.51,-875.98 228,-862.44 228,-811 228,-811 228,-811 228,-449 228,-346.54 299.73,-330.41 393,-288 422.02,-274.81 455.25,-263.57 484.46,-254.89"/>
<polygon fill="grey" stroke="grey" stroke-width="2" points="485.58,-258.21 494.2,-252.04 483.62,-251.49 485.58,-258.21"/>
</g>
<!-- 22 -->
<g id="node23" class="node">
<title>22</title>
<path fill="none" stroke="#d88d56" stroke-width="2" stroke-dasharray="5,2" d="M1198,-324C1198,-324 1146,-324 1146,-324 1140,-324 1134,-318 1134,-312 1134,-312 1134,-300 1134,-300 1134,-294 1140,-288 1146,-288 1146,-288 1198,-288 1198,-288 1204,-288 1210,-294 1210,-300 1210,-300 1210,-312 1210,-312 1210,-318 1204,-324 1198,-324"/>
<text text-anchor="middle" x="1172" y="-303.5" font-family="sans" font-size="10.00">surv_inv_int</text>
</g>
<!-- 13&#45;&gt;22 -->
<g id="edge83" class="edge">
<title>13&#45;&gt;22</title>
<path fill="none" stroke="grey" stroke-width="2" d="M914.65,-953.66C986.82,-952.67 1117.79,-944.16 1219,-900 1276.96,-874.71 1330,-874.23 1330,-811 1330,-811 1330,-811 1330,-449 1330,-406.66 1325.35,-390.52 1296,-360 1275.66,-338.85 1245.5,-325.7 1220.02,-317.79"/>
<polygon fill="grey" stroke="grey" stroke-width="2" points="1220.74,-314.36 1210.16,-314.91 1218.78,-321.08 1220.74,-314.36"/>
</g>
<!-- 27 -->
<g id="node28" class="node">
<title>27</title>
<path fill="none" stroke="#61d856" stroke-width="2" stroke-dasharray="5,2" d="M509,-684C509,-684 475,-684 475,-684 469,-684 463,-678 463,-672 463,-672 463,-660 463,-660 463,-654 469,-648 475,-648 475,-648 509,-648 509,-648 515,-648 521,-654 521,-660 521,-660 521,-672 521,-672 521,-678 515,-684 509,-684"/>
<text text-anchor="middle" x="492" y="-663.5" font-family="sans" font-size="10.00">surv_est</text>
</g>
<!-- 13&#45;&gt;27 -->
<g id="edge90" class="edge">
<title>13&#45;&gt;27</title>
<path fill="none" stroke="grey" stroke-width="2" d="M807.35,-936.01C783.29,-927.14 755.18,-914.99 732,-900 638.39,-839.46 550.21,-738.69 511.96,-692.07"/>
<polygon fill="grey" stroke="grey" stroke-width="2" points="514.65,-689.83 505.62,-684.28 509.22,-694.25 514.65,-689.83"/>
</g>
<!-- 29 -->
<g id="node30" class="node">
<title>29</title>
<path fill="none" stroke="#5692d8" stroke-width="2" stroke-dasharray="5,2" d="M509,-612C509,-612 451,-612 451,-612 445,-612 439,-606 439,-600 439,-600 439,-588 439,-588 439,-582 445,-576 451,-576 451,-576 509,-576 509,-576 515,-576 521,-582 521,-588 521,-588 521,-600 521,-600 521,-606 515,-612 509,-612"/>
<text text-anchor="middle" x="480" y="-591.5" font-family="sans" font-size="10.00">batch_effects</text>
</g>
<!-- 13&#45;&gt;29 -->
<g id="edge94" class="edge">
<title>13&#45;&gt;29</title>
<path fill="none" stroke="grey" stroke-width="2" d="M807.48,-946.61C693.06,-931.46 435,-888.67 435,-811 435,-811 435,-811 435,-737 435,-696.55 440.77,-686.22 454,-648 457.12,-638.99 461.4,-629.54 465.59,-621.14"/>
<polygon fill="grey" stroke="grey" stroke-width="2" points="468.73,-622.69 470.22,-612.2 462.51,-619.48 468.73,-622.69"/>
</g>
<!-- 30 -->
<g id="node31" class="node">
<title>30</title>
<path fill="none" stroke="#afd856" stroke-width="2" stroke-dasharray="5,2" d="M801,-900C801,-900 753,-900 753,-900 747,-900 741,-894 741,-888 741,-888 741,-876 741,-876 741,-870 747,-864 753,-864 753,-864 801,-864 801,-864 807,-864 813,-870 813,-876 813,-876 813,-888 813,-888 813,-894 807,-900 801,-900"/>
<text text-anchor="middle" x="777" y="-879.5" font-family="sans" font-size="10.00">QC_salmon</text>
</g>
<!-- 13&#45;&gt;30 -->
<g id="edge96" class="edge">
<title>13&#45;&gt;30</title>
<path fill="none" stroke="grey" stroke-width="2" d="M840.24,-935.7C829.76,-926.97 816.89,-916.24 805.5,-906.75"/>
<polygon fill="grey" stroke="grey" stroke-width="2" points="807.45,-903.82 797.53,-900.1 802.97,-909.19 807.45,-903.82"/>
</g>
<!-- 14&#45;&gt;1 -->
<g id="edge14" class="edge">
<title>14&#45;&gt;1</title>
<path fill="none" stroke="grey" stroke-width="2" d="M692.63,-359.72C694.02,-340.84 698.4,-310.31 712,-288 724.97,-266.72 743.52,-274.13 755,-252 769.78,-223.49 759.67,-212.08 761,-180 761.66,-164.01 763.61,-159.79 761,-144 759.56,-135.28 756.87,-126.06 754,-117.8"/>
<polygon fill="grey" stroke="grey" stroke-width="2" points="757.23,-116.46 750.48,-108.3 750.67,-118.89 757.23,-116.46"/>
</g>
<!-- 14&#45;&gt;8 -->
<g id="edge44" class="edge">
<title>14&#45;&gt;8</title>
<path fill="none" stroke="grey" stroke-width="2" d="M745.71,-368.56C821.55,-356.39 953.08,-334.24 973,-324 988.89,-315.83 1021.22,-283.13 1043.25,-259.75"/>
<polygon fill="grey" stroke="grey" stroke-width="2" points="1046.01,-261.91 1050.29,-252.22 1040.9,-257.13 1046.01,-261.91"/>
</g>
<!-- 14&#45;&gt;21 -->
<g id="edge77" class="edge">
<title>14&#45;&gt;21</title>
<path fill="none" stroke="grey" stroke-width="2" d="M676.2,-359.87C653.18,-334.92 610.31,-288.45 583.85,-259.77"/>
<polygon fill="grey" stroke="grey" stroke-width="2" points="586.21,-257.17 576.86,-252.19 581.07,-261.91 586.21,-257.17"/>
</g>
<!-- 14&#45;&gt;22 -->
<g id="edge84" class="edge">
<title>14&#45;&gt;22</title>
<path fill="none" stroke="grey" stroke-width="2" d="M745.66,-369.17C839.89,-355.43 1033.61,-327.18 1123.81,-314.03"/>
<polygon fill="grey" stroke="grey" stroke-width="2" points="1124.38,-317.48 1133.77,-312.58 1123.37,-310.55 1124.38,-317.48"/>
</g>
<!-- 23 -->
<g id="node24" class="node">
<title>23</title>
<path fill="none" stroke="#bed856" stroke-width="2" stroke-dasharray="5,2" d="M734,-252C734,-252 700,-252 700,-252 694,-252 688,-246 688,-240 688,-240 688,-228 688,-228 688,-222 694,-216 700,-216 700,-216 734,-216 734,-216 740,-216 746,-222 746,-228 746,-228 746,-240 746,-240 746,-246 740,-252 734,-252"/>
<text text-anchor="middle" x="717" y="-231.5" font-family="sans" font-size="10.00">cox_glm</text>
</g>
<!-- 14&#45;&gt;23 -->
<g id="edge85" class="edge">
<title>14&#45;&gt;23</title>
<path fill="none" stroke="grey" stroke-width="2" d="M684.65,-359.89C677.9,-341.68 670.05,-312.22 678,-288 681.31,-277.91 687.37,-268.15 693.73,-259.82"/>
<polygon fill="grey" stroke="grey" stroke-width="2" points="696.5,-261.97 700.11,-252.01 691.08,-257.54 696.5,-261.97"/>
</g>
<!-- 24 -->
<g id="node25" class="node">
<title>24</title>
<path fill="none" stroke="#56d89a" stroke-width="2" stroke-dasharray="5,2" d="M460,-252C460,-252 406,-252 406,-252 400,-252 394,-246 394,-240 394,-240 394,-228 394,-228 394,-222 400,-216 406,-216 406,-216 460,-216 460,-216 466,-216 472,-222 472,-228 472,-228 472,-240 472,-240 472,-246 466,-252 460,-252"/>
<text text-anchor="middle" x="433" y="-231.5" font-family="sans" font-size="10.00">inv_cox_glm</text>
</g>
<!-- 14&#45;&gt;24 -->
<g id="edge86" class="edge">
<title>14&#45;&gt;24</title>
<path fill="none" stroke="grey" stroke-width="2" d="M660.76,-359.87C613.8,-334.12 525.01,-285.45 473.26,-257.07"/>
<polygon fill="grey" stroke="grey" stroke-width="2" points="474.8,-253.93 464.35,-252.19 471.44,-260.07 474.8,-253.93"/>
</g>
<!-- 25 -->
<g id="node26" class="node">
<title>25</title>
<path fill="none" stroke="#56d892" stroke-width="2" stroke-dasharray="5,2" d="M803.5,-324C803.5,-324 732.5,-324 732.5,-324 726.5,-324 720.5,-318 720.5,-312 720.5,-312 720.5,-300 720.5,-300 720.5,-294 726.5,-288 732.5,-288 732.5,-288 803.5,-288 803.5,-288 809.5,-288 815.5,-294 815.5,-300 815.5,-300 815.5,-312 815.5,-312 815.5,-318 809.5,-324 803.5,-324"/>
<text text-anchor="middle" x="768" y="-303.5" font-family="sans" font-size="10.00">all_inv_cox_glm</text>
</g>
<!-- 14&#45;&gt;25 -->
<g id="edge87" class="edge">
<title>14&#45;&gt;25</title>
<path fill="none" stroke="grey" stroke-width="2" d="M710.79,-359.7C720.17,-351.05 731.68,-340.45 741.91,-331.03"/>
<polygon fill="grey" stroke="grey" stroke-width="2" points="744.45,-333.45 749.43,-324.1 739.7,-328.3 744.45,-333.45"/>
</g>
<!-- 15 -->
<g id="node16" class="node">
<title>15</title>
<path fill="none" stroke="#d8c356" stroke-width="2" stroke-dasharray="5,2" d="M547,-468C547,-468 463,-468 463,-468 457,-468 451,-462 451,-456 451,-456 451,-444 451,-444 451,-438 457,-432 463,-432 463,-432 547,-432 547,-432 553,-432 559,-438 559,-444 559,-444 559,-456 559,-456 559,-462 553,-468 547,-468"/>
<text text-anchor="middle" x="505" y="-447.5" font-family="sans" font-size="10.00">diffex_one_vs_rest</text>
</g>
<!-- 15&#45;&gt;1 -->
<g id="edge15" class="edge">
<title>15&#45;&gt;1</title>
<path fill="none" stroke="grey" stroke-width="2" d="M450.91,-439.23C413.72,-431.09 364.02,-417.32 324,-396 202.3,-331.16 49.88,-245.71 143,-144 178.84,-104.86 535.13,-94.47 681.11,-91.84"/>
<polygon fill="grey" stroke="grey" stroke-width="2" points="681.31,-95.34 691.25,-91.67 681.19,-88.34 681.31,-95.34"/>
</g>
<!-- 15&#45;&gt;2 -->
<g id="edge16" class="edge">
<title>15&#45;&gt;2</title>
<path fill="none" stroke="grey" stroke-width="2" d="M511.93,-431.82C518.29,-413.3 525.29,-383.33 515,-360 510.01,-348.69 501.29,-338.74 492.1,-330.62"/>
<polygon fill="grey" stroke="grey" stroke-width="2" points="494.28,-327.88 484.34,-324.23 489.83,-333.28 494.28,-327.88"/>
</g>
<!-- 15&#45;&gt;5 -->
<g id="edge30" class="edge">
<title>15&#45;&gt;5</title>
<path fill="none" stroke="grey" stroke-width="2" d="M559.17,-439.4C574.6,-436.82 591.44,-434.15 607,-432 753.69,-411.73 926.37,-394.29 1020.06,-385.36"/>
<polygon fill="grey" stroke="grey" stroke-width="2" points="1020.63,-388.83 1030.25,-384.4 1019.97,-381.86 1020.63,-388.83"/>
</g>
<!-- 15&#45;&gt;6 -->
<g id="edge34" class="edge">
<title>15&#45;&gt;6</title>
<path fill="none" stroke="grey" stroke-width="2" d="M559.12,-438.95C574.54,-436.36 591.4,-433.81 607,-432 847.02,-404.21 913.96,-437.77 1155.66,-396"/>
<polygon fill="grey" stroke="grey" stroke-width="2" points="1156.57,-399.39 1165.81,-394.22 1155.36,-392.5 1156.57,-399.39"/>
</g>
<!-- 15&#45;&gt;8 -->
<g id="edge39" class="edge">
<title>15&#45;&gt;8</title>
<path fill="none" stroke="grey" stroke-width="2" d="M559.38,-438.6C610.19,-428.62 688.05,-412.64 755,-396 868.04,-367.9 913.01,-392.8 1007,-324 1028.85,-308 1044.98,-281.28 1054.8,-261.28"/>
<polygon fill="grey" stroke="grey" stroke-width="2" points="1058.04,-262.62 1059.11,-252.08 1051.7,-259.65 1058.04,-262.62"/>
</g>
<!-- 15&#45;&gt;14 -->
<g id="edge71" class="edge">
<title>15&#45;&gt;14</title>
<path fill="none" stroke="grey" stroke-width="2" d="M550.75,-431.88C576.76,-422.14 609.53,-409.87 636.95,-399.61"/>
<polygon fill="grey" stroke="grey" stroke-width="2" points="638.26,-402.85 646.4,-396.07 635.81,-396.3 638.26,-402.85"/>
</g>
<!-- 26 -->
<g id="node27" class="node">
<title>26</title>
<path fill="none" stroke="#78d856" stroke-width="2" stroke-dasharray="5,2" d="M415.5,-396C415.5,-396 344.5,-396 344.5,-396 338.5,-396 332.5,-390 332.5,-384 332.5,-384 332.5,-372 332.5,-372 332.5,-366 338.5,-360 344.5,-360 344.5,-360 415.5,-360 415.5,-360 421.5,-360 427.5,-366 427.5,-372 427.5,-372 427.5,-384 427.5,-384 427.5,-390 421.5,-396 415.5,-396"/>
<text text-anchor="middle" x="380" y="-375.5" font-family="sans" font-size="10.00">subgroup_diffex</text>
</g>
<!-- 15&#45;&gt;26 -->
<g id="edge88" class="edge">
<title>15&#45;&gt;26</title>
<path fill="none" stroke="grey" stroke-width="2" d="M474.42,-431.88C457.93,-422.64 437.38,-411.13 419.66,-401.21"/>
<polygon fill="grey" stroke="grey" stroke-width="2" points="421.13,-398.02 410.7,-396.19 417.71,-404.13 421.13,-398.02"/>
</g>
<!-- 16 -->
<g id="node17" class="node">
<title>16</title>
<path fill="none" stroke="#56d863" stroke-width="2" stroke-dasharray="5,2" d="M766,-756C766,-756 704,-756 704,-756 698,-756 692,-750 692,-744 692,-744 692,-732 692,-732 692,-726 698,-720 704,-720 704,-720 766,-720 766,-720 772,-720 778,-726 778,-732 778,-732 778,-744 778,-744 778,-750 772,-756 766,-756"/>
<text text-anchor="middle" x="735" y="-735.5" font-family="sans" font-size="10.00">color_palettes</text>
</g>
<!-- 16&#45;&gt;2 -->
<g id="edge17" class="edge">
<title>16&#45;&gt;2</title>
<path fill="none" stroke="grey" stroke-width="2" d="M721.92,-719.85C695.63,-686.66 632.89,-613.57 563,-576 502.23,-543.34 467.82,-580.54 412,-540 351.31,-495.92 344.31,-468.2 324,-396 319.67,-380.6 315.02,-373.24 324,-360 339.46,-337.2 366.47,-324.2 392.12,-316.8"/>
<polygon fill="grey" stroke="grey" stroke-width="2" points="393.08,-320.17 401.86,-314.23 391.3,-313.4 393.08,-320.17"/>
</g>
<!-- 16&#45;&gt;3 -->
<g id="edge22" class="edge">
<title>16&#45;&gt;3</title>
<path fill="none" stroke="grey" stroke-width="2" d="M764.29,-719.97C800.1,-696.7 856,-651.36 856,-595 856,-595 856,-595 856,-521 856,-451.11 886.89,-373.27 905.06,-333.52"/>
<polygon fill="grey" stroke="grey" stroke-width="2" points="908.32,-334.8 909.38,-324.26 901.98,-331.84 908.32,-334.8"/>
</g>
<!-- 16&#45;&gt;4 -->
<g id="edge29" class="edge">
<title>16&#45;&gt;4</title>
<path fill="none" stroke="grey" stroke-width="2" d="M707.59,-719.93C691.7,-709.83 671.45,-696.58 654,-684 612.16,-653.85 600.77,-647.12 563,-612 547.11,-597.22 548.81,-586.83 530,-576 465.33,-538.76 427.27,-582.6 366,-540 265.52,-470.14 215.1,-322.67 197.95,-261.97"/>
<polygon fill="grey" stroke="grey" stroke-width="2" points="201.24,-260.73 195.22,-252.01 194.49,-262.58 201.24,-260.73"/>
</g>
<!-- 16&#45;&gt;5 -->
<g id="edge32" class="edge">
<title>16&#45;&gt;5</title>
<path fill="none" stroke="grey" stroke-width="2" d="M778.05,-736.09C862.13,-731.79 1040,-709.19 1040,-595 1040,-595 1040,-595 1040,-521 1040,-478.78 1059.6,-433.16 1074.01,-405.33"/>
<polygon fill="grey" stroke="grey" stroke-width="2" points="1077.23,-406.74 1078.85,-396.27 1071.05,-403.44 1077.23,-406.74"/>
</g>
<!-- 16&#45;&gt;6 -->
<g id="edge36" class="edge">
<title>16&#45;&gt;6</title>
<path fill="none" stroke="grey" stroke-width="2" d="M778.01,-733.2C847.61,-726.37 981.08,-710.22 1020,-684 1073.65,-647.85 1167.12,-472.59 1201.67,-405.34"/>
<polygon fill="grey" stroke="grey" stroke-width="2" points="1204.89,-406.73 1206.33,-396.23 1198.66,-403.54 1204.89,-406.73"/>
</g>
<!-- 16&#45;&gt;8 -->
<g id="edge41" class="edge">
<title>16&#45;&gt;8</title>
<path fill="none" stroke="grey" stroke-width="2" d="M778.02,-721.03C798.04,-712.18 821.29,-699.76 839,-684 925.2,-607.31 931.03,-571.01 983,-468 1005.99,-422.44 992.76,-401.83 1022,-360 1036.28,-339.57 1054.33,-346.52 1065,-324 1074.13,-304.74 1073.71,-280.4 1071.38,-262.04"/>
<polygon fill="grey" stroke="grey" stroke-width="2" points="1074.82,-261.37 1069.85,-252.01 1067.9,-262.42 1074.82,-261.37"/>
</g>
<!-- 16&#45;&gt;21 -->
<g id="edge78" class="edge">
<title>16&#45;&gt;21</title>
<path fill="none" stroke="grey" stroke-width="2" d="M735,-719.95C735,-693.29 735,-640.11 735,-595 735,-595 735,-595 735,-521 735,-480.55 741.82,-463.13 716,-432 689.55,-400.1 659.42,-425.18 630,-396 592.43,-358.74 574.05,-297.75 566.14,-262.51"/>
<polygon fill="grey" stroke="grey" stroke-width="2" points="569.5,-261.51 564.01,-252.45 562.66,-262.96 569.5,-261.51"/>
</g>
<!-- 16&#45;&gt;27 -->
<g id="edge91" class="edge">
<title>16&#45;&gt;27</title>
<path fill="none" stroke="grey" stroke-width="2" d="M691.66,-727.07C650.85,-717.36 588.23,-701.51 535,-684 533.76,-683.59 532.5,-683.16 531.23,-682.73"/>
<polygon fill="grey" stroke="grey" stroke-width="2" points="532.04,-679.3 521.44,-679.17 529.64,-685.87 532.04,-679.3"/>
</g>
<!-- 16&#45;&gt;29 -->
<g id="edge95" class="edge">
<title>16&#45;&gt;29</title>
<path fill="none" stroke="grey" stroke-width="2" d="M691.85,-728.43C657.87,-720.42 610.19,-706.28 573,-684 557.76,-674.87 525.57,-642.74 503.36,-619.71"/>
<polygon fill="grey" stroke="grey" stroke-width="2" points="505.7,-617.09 496.26,-612.29 500.65,-621.93 505.7,-617.09"/>
</g>
<!-- 17 -->
<g id="node18" class="node">
<title>17</title>
<path fill="none" stroke="#d8bc56" stroke-width="2" stroke-dasharray="5,2" d="M962,-468C962,-468 896,-468 896,-468 890,-468 884,-462 884,-456 884,-456 884,-444 884,-444 884,-438 890,-432 896,-432 896,-432 962,-432 962,-432 968,-432 974,-438 974,-444 974,-444 974,-456 974,-456 974,-462 968,-468 962,-468"/>
<text text-anchor="middle" x="929" y="-447.5" font-family="sans" font-size="10.00">survival_colors</text>
</g>
<!-- 17&#45;&gt;2 -->
<g id="edge18" class="edge">
<title>17&#45;&gt;2</title>
<path fill="none" stroke="grey" stroke-width="2" d="M883.89,-445.24C824.43,-439.34 717.17,-425.4 630,-396 580.05,-379.16 526.72,-349.77 492.68,-329.4"/>
<polygon fill="grey" stroke="grey" stroke-width="2" points="494.4,-326.35 484.03,-324.17 490.78,-332.34 494.4,-326.35"/>
</g>
<!-- 17&#45;&gt;3 -->
<g id="edge23" class="edge">
<title>17&#45;&gt;3</title>
<path fill="none" stroke="grey" stroke-width="2" d="M927.67,-431.87C925.8,-407.67 922.35,-363.21 920.12,-334.39"/>
<polygon fill="grey" stroke="grey" stroke-width="2" points="923.59,-333.89 919.33,-324.19 916.61,-334.43 923.59,-333.89"/>
</g>
<!-- 17&#45;&gt;5 -->
<g id="edge33" class="edge">
<title>17&#45;&gt;5</title>
<path fill="none" stroke="grey" stroke-width="2" d="M968.14,-431.88C990.01,-422.31 1017.46,-410.3 1040.66,-400.15"/>
<polygon fill="grey" stroke="grey" stroke-width="2" points="1042.23,-403.28 1049.99,-396.07 1039.42,-396.87 1042.23,-403.28"/>
</g>
<!-- 17&#45;&gt;6 -->
<g id="edge37" class="edge">
<title>17&#45;&gt;6</title>
<path fill="none" stroke="grey" stroke-width="2" d="M974.18,-439.29C1018.24,-429.64 1087.36,-414.04 1156.01,-396.19"/>
<polygon fill="grey" stroke="grey" stroke-width="2" points="1156.9,-399.58 1165.69,-393.66 1155.13,-392.8 1156.9,-399.58"/>
</g>
<!-- 17&#45;&gt;8 -->
<g id="edge42" class="edge">
<title>17&#45;&gt;8</title>
<path fill="none" stroke="grey" stroke-width="2" d="M937.62,-431.75C947.78,-412.61 966.09,-381.61 988,-360 1009.07,-339.23 1026.79,-348.07 1044,-324 1056.91,-305.95 1062.28,-281.17 1064.5,-262.33"/>
<polygon fill="grey" stroke="grey" stroke-width="2" points="1067.99,-262.58 1065.45,-252.3 1061.02,-261.92 1067.99,-262.58"/>
</g>
<!-- 17&#45;&gt;21 -->
<g id="edge79" class="edge">
<title>17&#45;&gt;21</title>
<path fill="none" stroke="grey" stroke-width="2" d="M920.21,-431.93C900.55,-394.41 852.59,-306.6 825,-288 757.22,-242.3 723.02,-267.15 642.27,-252.93"/>
<polygon fill="grey" stroke="grey" stroke-width="2" points="642.67,-249.44 632.19,-250.99 641.35,-256.32 642.67,-249.44"/>
</g>
<!-- 18 -->
<g id="node19" class="node">
<title>18</title>
<path fill="none" stroke="#d8a456" stroke-width="2" stroke-dasharray="5,2" d="M494,-396C494,-396 458,-396 458,-396 452,-396 446,-390 446,-384 446,-384 446,-372 446,-372 446,-366 452,-360 458,-360 458,-360 494,-360 494,-360 500,-360 506,-366 506,-372 506,-372 506,-384 506,-384 506,-390 500,-396 494,-396"/>
<text text-anchor="middle" x="476" y="-375.5" font-family="sans" font-size="10.00">lrt_diffex</text>
</g>
<!-- 18&#45;&gt;2 -->
<g id="edge19" class="edge">
<title>18&#45;&gt;2</title>
<path fill="none" stroke="grey" stroke-width="2" d="M471.3,-359.7C469.19,-351.9 466.64,-342.51 464.28,-333.83"/>
<polygon fill="grey" stroke="grey" stroke-width="2" points="467.64,-332.84 461.64,-324.1 460.88,-334.67 467.64,-332.84"/>
</g>
<!-- 18&#45;&gt;3 -->
<g id="edge24" class="edge">
<title>18&#45;&gt;3</title>
<path fill="none" stroke="grey" stroke-width="2" d="M506.39,-372.7C567.06,-364.04 707.43,-343.67 825,-324 836.89,-322.01 849.61,-319.76 861.71,-317.57"/>
<polygon fill="grey" stroke="grey" stroke-width="2" points="862.48,-320.99 871.69,-315.75 861.22,-314.1 862.48,-320.99"/>
</g>
<!-- 18&#45;&gt;4 -->
<g id="edge26" class="edge">
<title>18&#45;&gt;4</title>
<path fill="none" stroke="grey" stroke-width="2" d="M445.77,-361.94C394.2,-336.24 289.22,-283.94 231.41,-255.14"/>
<polygon fill="grey" stroke="grey" stroke-width="2" points="232.73,-251.88 222.21,-250.55 229.6,-258.15 232.73,-251.88"/>
</g>
<!-- 19 -->
<g id="node20" class="node">
<title>19</title>
<path fill="none" stroke="#566bd8" stroke-width="2" stroke-dasharray="5,2" d="M694.5,-468C694.5,-468 627.5,-468 627.5,-468 621.5,-468 615.5,-462 615.5,-456 615.5,-456 615.5,-444 615.5,-444 615.5,-438 621.5,-432 627.5,-432 627.5,-432 694.5,-432 694.5,-432 700.5,-432 706.5,-438 706.5,-444 706.5,-444 706.5,-456 706.5,-456 706.5,-462 700.5,-468 694.5,-468"/>
<text text-anchor="middle" x="661" y="-447.5" font-family="sans" font-size="10.00">diffex_pairwise</text>
</g>
<!-- 19&#45;&gt;3 -->
<g id="edge21" class="edge">
<title>19&#45;&gt;3</title>
<path fill="none" stroke="grey" stroke-width="2" d="M692,-431.87C738.6,-406.12 826.7,-357.45 878.05,-329.07"/>
<polygon fill="grey" stroke="grey" stroke-width="2" points="879.83,-332.09 886.89,-324.19 876.44,-325.96 879.83,-332.09"/>
</g>
<!-- 20 -->
<g id="node21" class="node">
<title>20</title>
<path fill="none" stroke="#d8d356" stroke-width="2" stroke-dasharray="5,2" d="M527.5,-540C527.5,-540 432.5,-540 432.5,-540 426.5,-540 420.5,-534 420.5,-528 420.5,-528 420.5,-516 420.5,-516 420.5,-510 426.5,-504 432.5,-504 432.5,-504 527.5,-504 527.5,-504 533.5,-504 539.5,-510 539.5,-516 539.5,-516 539.5,-528 539.5,-528 539.5,-534 533.5,-540 527.5,-540"/>
<text text-anchor="middle" x="480" y="-519.5" font-family="sans" font-size="10.00">min_count_threshold</text>
</g>
<!-- 20&#45;&gt;4 -->
<g id="edge27" class="edge">
<title>20&#45;&gt;4</title>
<path fill="none" stroke="grey" stroke-width="2" d="M455.75,-503.98C423.95,-481.14 367.14,-438.5 324,-396 279.19,-351.86 234.03,-293.6 209.58,-260.63"/>
<polygon fill="grey" stroke="grey" stroke-width="2" points="212.28,-258.4 203.53,-252.43 206.65,-262.56 212.28,-258.4"/>
</g>
<!-- 20&#45;&gt;15 -->
<g id="edge72" class="edge">
<title>20&#45;&gt;15</title>
<path fill="none" stroke="grey" stroke-width="2" d="M486.18,-503.7C489,-495.81 492.39,-486.3 495.52,-477.55"/>
<polygon fill="grey" stroke="grey" stroke-width="2" points="498.82,-478.7 498.89,-468.1 492.23,-476.34 498.82,-478.7"/>
</g>
<!-- 20&#45;&gt;18 -->
<g id="edge74" class="edge">
<title>20&#45;&gt;18</title>
<path fill="none" stroke="grey" stroke-width="2" d="M463.54,-503.92C455.35,-494.22 446.3,-481.37 442,-468 437.1,-452.77 437.5,-447.35 442,-432 444.8,-422.45 449.91,-412.98 455.33,-404.76"/>
<polygon fill="grey" stroke="grey" stroke-width="2" points="458.35,-406.56 461.25,-396.37 452.62,-402.52 458.35,-406.56"/>
</g>
<!-- 20&#45;&gt;19 -->
<g id="edge75" class="edge">
<title>20&#45;&gt;19</title>
<path fill="none" stroke="grey" stroke-width="2" d="M524.28,-503.88C549.35,-494.18 580.9,-481.98 607.37,-471.74"/>
<polygon fill="grey" stroke="grey" stroke-width="2" points="608.8,-474.94 616.87,-468.07 606.28,-468.41 608.8,-474.94"/>
</g>
<!-- 21&#45;&gt;7 -->
<g id="edge38" class="edge">
<title>21&#45;&gt;7</title>
<path fill="none" stroke="grey" stroke-width="2" d="M561,-215.7C561,-207.98 561,-198.71 561,-190.11"/>
<polygon fill="grey" stroke="grey" stroke-width="2" points="564.5,-190.1 561,-180.1 557.5,-190.1 564.5,-190.1"/>
</g>
<!-- 21&#45;&gt;9 -->
<g id="edge51" class="edge">
<title>21&#45;&gt;9</title>
<path fill="none" stroke="grey" stroke-width="2" d="M596.47,-215.88C616.12,-206.39 640.72,-194.51 661.63,-184.42"/>
<polygon fill="grey" stroke="grey" stroke-width="2" points="663.16,-187.57 670.64,-180.07 660.12,-181.26 663.16,-187.57"/>
</g>
<!-- 21&#45;&gt;10 -->
<g id="edge58" class="edge">
<title>21&#45;&gt;10</title>
<path fill="none" stroke="grey" stroke-width="2" d="M522.84,-215.88C501.61,-206.35 474.99,-194.41 452.43,-184.28"/>
<polygon fill="grey" stroke="grey" stroke-width="2" points="453.59,-180.97 443.04,-180.07 450.73,-187.36 453.59,-180.97"/>
</g>
<!-- 21&#45;&gt;11 -->
<g id="edge65" class="edge">
<title>21&#45;&gt;11</title>
<path fill="none" stroke="grey" stroke-width="2" d="M632.19,-217.03C681.76,-205.91 747.75,-191.1 798.11,-179.8"/>
<polygon fill="grey" stroke="grey" stroke-width="2" points="798.97,-183.2 807.96,-177.59 797.44,-176.37 798.97,-183.2"/>
</g>
<!-- 22&#45;&gt;8 -->
<g id="edge40" class="edge">
<title>22&#45;&gt;8</title>
<path fill="none" stroke="grey" stroke-width="2" d="M1146.07,-287.88C1132.34,-278.81 1115.29,-267.55 1100.46,-257.76"/>
<polygon fill="grey" stroke="grey" stroke-width="2" points="1102.3,-254.78 1092.03,-252.19 1098.45,-260.62 1102.3,-254.78"/>
</g>
<!-- 23&#45;&gt;9 -->
<g id="edge47" class="edge">
<title>23&#45;&gt;9</title>
<path fill="none" stroke="grey" stroke-width="2" d="M714.28,-215.7C713.07,-207.98 711.61,-198.71 710.26,-190.11"/>
<polygon fill="grey" stroke="grey" stroke-width="2" points="713.7,-189.44 708.69,-180.1 706.78,-190.53 713.7,-189.44"/>
</g>
<!-- 24&#45;&gt;10 -->
<g id="edge54" class="edge">
<title>24&#45;&gt;10</title>
<path fill="none" stroke="grey" stroke-width="2" d="M426.08,-215.7C422.93,-207.81 419.12,-198.3 415.62,-189.55"/>
<polygon fill="grey" stroke="grey" stroke-width="2" points="418.81,-188.09 411.84,-180.1 412.31,-190.69 418.81,-188.09"/>
</g>
<!-- 25&#45;&gt;11 -->
<g id="edge61" class="edge">
<title>25&#45;&gt;11</title>
<path fill="none" stroke="grey" stroke-width="2" d="M790.11,-287.93C801.72,-278.23 815.65,-265.38 826,-252 840.95,-232.67 853.59,-207.89 861.99,-189.39"/>
<polygon fill="grey" stroke="grey" stroke-width="2" points="865.25,-190.66 866.09,-180.1 858.85,-187.83 865.25,-190.66"/>
</g>
<!-- 26&#45;&gt;12 -->
<g id="edge68" class="edge">
<title>26&#45;&gt;12</title>
<path fill="none" stroke="grey" stroke-width="2" d="M363.66,-359.67C342.1,-336.32 303.66,-292.93 276,-252 262.48,-232 249.63,-207.8 240.64,-189.69"/>
<polygon fill="grey" stroke="grey" stroke-width="2" points="243.59,-187.76 236.06,-180.32 237.31,-190.84 243.59,-187.76"/>
</g>
<!-- 27&#45;&gt;14 -->
<g id="edge70" class="edge">
<title>27&#45;&gt;14</title>
<path fill="none" stroke="grey" stroke-width="2" d="M505.66,-647.97C513.39,-637.88 522.89,-624.63 530,-612 572.71,-536.19 550.37,-498.06 607,-432 617.49,-419.76 631.53,-409.44 645.17,-401.25"/>
<polygon fill="grey" stroke="grey" stroke-width="2" points="647.1,-404.18 654.04,-396.17 643.62,-398.1 647.1,-404.18"/>
</g>
<!-- 27&#45;&gt;29 -->
<g id="edge93" class="edge">
<title>27&#45;&gt;29</title>
<path fill="none" stroke="grey" stroke-width="2" d="M489.03,-647.7C487.71,-639.98 486.12,-630.71 484.65,-622.11"/>
<polygon fill="grey" stroke="grey" stroke-width="2" points="488.07,-621.37 482.93,-612.1 481.17,-622.55 488.07,-621.37"/>
</g>
<!-- 28 -->
<g id="node29" class="node">
<title>28</title>
<path fill="none" stroke="#8fd856" stroke-width="2" stroke-dasharray="5,2" d="M758,-828C758,-828 712,-828 712,-828 706,-828 700,-822 700,-816 700,-816 700,-804 700,-804 700,-798 706,-792 712,-792 712,-792 758,-792 758,-792 764,-792 770,-798 770,-804 770,-804 770,-816 770,-816 770,-822 764,-828 758,-828"/>
<text text-anchor="middle" x="735" y="-807.5" font-family="sans" font-size="10.00">pam50_ihc</text>
</g>
<!-- 28&#45;&gt;16 -->
<g id="edge73" class="edge">
<title>28&#45;&gt;16</title>
<path fill="none" stroke="grey" stroke-width="2" d="M735,-791.7C735,-783.98 735,-774.71 735,-766.11"/>
<polygon fill="grey" stroke="grey" stroke-width="2" points="738.5,-766.1 735,-756.1 731.5,-766.1 738.5,-766.1"/>
</g>
<!-- 28&#45;&gt;27 -->
<g id="edge89" class="edge">
<title>28&#45;&gt;27</title>
<path fill="none" stroke="grey" stroke-width="2" d="M705.69,-791.87C661.6,-766.11 578.23,-717.39 529.68,-689.02"/>
<polygon fill="grey" stroke="grey" stroke-width="2" points="531.44,-685.99 521.04,-683.97 527.91,-692.04 531.44,-685.99"/>
</g>
<!-- 29&#45;&gt;20 -->
<g id="edge76" class="edge">
<title>29&#45;&gt;20</title>
<path fill="none" stroke="grey" stroke-width="2" d="M480,-575.7C480,-567.98 480,-558.71 480,-550.11"/>
<polygon fill="grey" stroke="grey" stroke-width="2" points="483.5,-550.1 480,-540.1 476.5,-550.1 483.5,-550.1"/>
</g>
<!-- 30&#45;&gt;28 -->
<g id="edge92" class="edge">
<title>30&#45;&gt;28</title>
<path fill="none" stroke="grey" stroke-width="2" d="M766.62,-863.7C761.74,-855.56 755.81,-845.69 750.42,-836.7"/>
<polygon fill="grey" stroke="grey" stroke-width="2" points="753.41,-834.88 745.26,-828.1 747.41,-838.48 753.41,-834.88"/>
</g>
</g>
</svg>
