<?xml version="1.0" encoding="UTF-8" standalone="no"?>
<!DOCTYPE svg PUBLIC "-//W3C//DTD SVG 1.1//EN"
 "http://www.w3.org/Graphics/SVG/1.1/DTD/svg11.dtd">
<!-- Generated by graphviz version 2.42.3 (20191010.1750)
 -->
<!-- Title: snakemake_dag Pages: 1 -->
<svg width="226pt" height="620pt"
 viewBox="0.00 0.00 226.00 620.00" xmlns="http://www.w3.org/2000/svg" xmlns:xlink="http://www.w3.org/1999/xlink">
<g id="graph0" class="graph" transform="scale(1 1) rotate(0) translate(4 616)">
<title>snakemake_dag</title>
<polygon fill="white" stroke="transparent" points="-4,4 -4,-616 222,-616 222,4 -4,4"/>
<!-- 0 -->
<g id="node1" class="node">
<title>0</title>
<path fill="none" stroke="#56d892" stroke-width="2" stroke-dasharray="5,2" d="M117.5,-180C117.5,-180 80.5,-180 80.5,-180 74.5,-180 68.5,-174 68.5,-168 68.5,-168 68.5,-156 68.5,-156 68.5,-150 74.5,-144 80.5,-144 80.5,-144 117.5,-144 117.5,-144 123.5,-144 129.5,-150 129.5,-156 129.5,-156 129.5,-168 129.5,-168 129.5,-174 123.5,-180 117.5,-180"/>
<text text-anchor="middle" x="99" y="-159.5" font-family="sans" font-size="10.00">lrt_diffex</text>
</g>
<!-- 4 -->
<g id="node5" class="node">
<title>4</title>
<path fill="none" stroke="#d8ac56" stroke-width="2" d="M88,-108C88,-108 50,-108 50,-108 44,-108 38,-102 38,-96 38,-96 38,-84 38,-84 38,-78 44,-72 50,-72 50,-72 88,-72 88,-72 94,-72 100,-78 100,-84 100,-84 100,-96 100,-96 100,-102 94,-108 88,-108"/>
<text text-anchor="middle" x="69" y="-87.5" font-family="sans" font-size="10.00">lrt_report</text>
</g>
<!-- 0&#45;&gt;4 -->
<g id="edge4" class="edge">
<title>0&#45;&gt;4</title>
<path fill="none" stroke="grey" stroke-width="2" d="M91.58,-143.7C88.21,-135.81 84.13,-126.3 80.38,-117.55"/>
<polygon fill="grey" stroke="grey" stroke-width="2" points="83.49,-115.92 76.33,-108.1 77.05,-118.67 83.49,-115.92"/>
</g>
<!-- 1 -->
<g id="node2" class="node">
<title>1</title>
<path fill="none" stroke="#d85656" stroke-width="2" d="M84,-36C84,-36 54,-36 54,-36 48,-36 42,-30 42,-24 42,-24 42,-12 42,-12 42,-6 48,0 54,0 54,0 84,0 84,0 90,0 96,-6 96,-12 96,-12 96,-24 96,-24 96,-30 90,-36 84,-36"/>
<text text-anchor="middle" x="69" y="-15.5" font-family="sans" font-size="10.00">all</text>
</g>
<!-- 2 -->
<g id="node3" class="node">
<title>2</title>
<path fill="none" stroke="#56d8a9" stroke-width="2" stroke-dasharray="5,2" d="M139,-468C139,-468 93,-468 93,-468 87,-468 81,-462 81,-456 81,-456 81,-444 81,-444 81,-438 87,-432 93,-432 93,-432 139,-432 139,-432 145,-432 151,-438 151,-444 151,-444 151,-456 151,-456 151,-462 145,-468 139,-468"/>
<text text-anchor="middle" x="116" y="-447.5" font-family="sans" font-size="10.00">pam50_ihc</text>
</g>
<!-- 5 -->
<g id="node6" class="node">
<title>5</title>
<path fill="none" stroke="#d8cb56" stroke-width="2" stroke-dasharray="5,2" d="M159,-324C159,-324 125,-324 125,-324 119,-324 113,-318 113,-312 113,-312 113,-300 113,-300 113,-294 119,-288 125,-288 125,-288 159,-288 159,-288 165,-288 171,-294 171,-300 171,-300 171,-312 171,-312 171,-318 165,-324 159,-324"/>
<text text-anchor="middle" x="142" y="-303.5" font-family="sans" font-size="10.00">surv_est</text>
</g>
<!-- 2&#45;&gt;5 -->
<g id="edge9" class="edge">
<title>2&#45;&gt;5</title>
<path fill="none" stroke="grey" stroke-width="2" d="M119.14,-431.87C123.57,-407.67 131.71,-363.21 136.98,-334.39"/>
<polygon fill="grey" stroke="grey" stroke-width="2" points="140.49,-334.66 138.85,-324.19 133.61,-333.4 140.49,-334.66"/>
</g>
<!-- 6 -->
<g id="node7" class="node">
<title>6</title>
<path fill="none" stroke="#56c9d8" stroke-width="2" stroke-dasharray="5,2" d="M102,-396C102,-396 40,-396 40,-396 34,-396 28,-390 28,-384 28,-384 28,-372 28,-372 28,-366 34,-360 40,-360 40,-360 102,-360 102,-360 108,-360 114,-366 114,-372 114,-372 114,-384 114,-384 114,-390 108,-396 102,-396"/>
<text text-anchor="middle" x="71" y="-375.5" font-family="sans" font-size="10.00">color_palettes</text>
</g>
<!-- 2&#45;&gt;6 -->
<g id="edge11" class="edge">
<title>2&#45;&gt;6</title>
<path fill="none" stroke="grey" stroke-width="2" d="M104.88,-431.7C99.64,-423.56 93.3,-413.69 87.52,-404.7"/>
<polygon fill="grey" stroke="grey" stroke-width="2" points="90.35,-402.62 82,-396.1 84.46,-406.41 90.35,-402.62"/>
</g>
<!-- 3 -->
<g id="node4" class="node">
<title>3</title>
<path fill="none" stroke="#56d8c9" stroke-width="2" stroke-dasharray="5,2" d="M189.5,-612C189.5,-612 106.5,-612 106.5,-612 100.5,-612 94.5,-606 94.5,-600 94.5,-600 94.5,-588 94.5,-588 94.5,-582 100.5,-576 106.5,-576 106.5,-576 189.5,-576 189.5,-576 195.5,-576 201.5,-582 201.5,-588 201.5,-588 201.5,-600 201.5,-600 201.5,-606 195.5,-612 189.5,-612"/>
<text text-anchor="middle" x="148" y="-591.5" font-family="sans" font-size="10.00">process_metadata</text>
</g>
<!-- 3&#45;&gt;4 -->
<g id="edge5" class="edge">
<title>3&#45;&gt;4</title>
<path fill="none" stroke="grey" stroke-width="2" d="M108.73,-575.99C64.88,-554.04 0,-511.36 0,-451 0,-451 0,-451 0,-233 0,-188.48 27.78,-143.29 48.08,-116.2"/>
<polygon fill="grey" stroke="grey" stroke-width="2" points="51.02,-118.12 54.37,-108.07 45.48,-113.84 51.02,-118.12"/>
</g>
<!-- 3&#45;&gt;5 -->
<g id="edge8" class="edge">
<title>3&#45;&gt;5</title>
<path fill="none" stroke="grey" stroke-width="2" d="M153.41,-575.53C156.3,-565.29 159.55,-552.04 161,-540 169.98,-465.71 156.17,-377.57 147.74,-334.07"/>
<polygon fill="grey" stroke="grey" stroke-width="2" points="151.12,-333.12 145.73,-324 144.25,-334.49 151.12,-333.12"/>
</g>
<!-- 7 -->
<g id="node8" class="node">
<title>7</title>
<path fill="none" stroke="#8fd856" stroke-width="2" stroke-dasharray="5,2" d="M171.5,-252C171.5,-252 112.5,-252 112.5,-252 106.5,-252 100.5,-246 100.5,-240 100.5,-240 100.5,-228 100.5,-228 100.5,-222 106.5,-216 112.5,-216 112.5,-216 171.5,-216 171.5,-216 177.5,-216 183.5,-222 183.5,-228 183.5,-228 183.5,-240 183.5,-240 183.5,-246 177.5,-252 171.5,-252"/>
<text text-anchor="middle" x="142" y="-231.5" font-family="sans" font-size="10.00">batch_effects</text>
</g>
<!-- 3&#45;&gt;7 -->
<g id="edge13" class="edge">
<title>3&#45;&gt;7</title>
<path fill="none" stroke="grey" stroke-width="2" d="M162.85,-575.97C183.39,-550.58 218,-500.47 218,-451 218,-451 218,-451 218,-377 218,-331.64 187.48,-286.75 165.12,-259.95"/>
<polygon fill="grey" stroke="grey" stroke-width="2" points="167.66,-257.53 158.49,-252.23 162.36,-262.09 167.66,-257.53"/>
</g>
<!-- 8 -->
<g id="node9" class="node">
<title>8</title>
<path fill="none" stroke="#59d856" stroke-width="2" stroke-dasharray="5,2" d="M140,-540C140,-540 92,-540 92,-540 86,-540 80,-534 80,-528 80,-528 80,-516 80,-516 80,-510 86,-504 92,-504 92,-504 140,-504 140,-504 146,-504 152,-510 152,-516 152,-516 152,-528 152,-528 152,-534 146,-540 140,-540"/>
<text text-anchor="middle" x="116" y="-519.5" font-family="sans" font-size="10.00">QC_salmon</text>
</g>
<!-- 3&#45;&gt;8 -->
<g id="edge15" class="edge">
<title>3&#45;&gt;8</title>
<path fill="none" stroke="grey" stroke-width="2" d="M140.09,-575.7C136.45,-567.73 132.05,-558.1 128.01,-549.26"/>
<polygon fill="grey" stroke="grey" stroke-width="2" points="131.16,-547.74 123.82,-540.1 124.79,-550.65 131.16,-547.74"/>
</g>
<!-- 4&#45;&gt;1 -->
<g id="edge2" class="edge">
<title>4&#45;&gt;1</title>
<path fill="none" stroke="grey" stroke-width="2" d="M69,-71.7C69,-63.98 69,-54.71 69,-46.11"/>
<polygon fill="grey" stroke="grey" stroke-width="2" points="72.5,-46.1 69,-36.1 65.5,-46.1 72.5,-46.1"/>
</g>
<!-- 5&#45;&gt;7 -->
<g id="edge14" class="edge">
<title>5&#45;&gt;7</title>
<path fill="none" stroke="grey" stroke-width="2" d="M142,-287.7C142,-279.98 142,-270.71 142,-262.11"/>
<polygon fill="grey" stroke="grey" stroke-width="2" points="145.5,-262.1 142,-252.1 138.5,-262.1 145.5,-262.1"/>
</g>
<!-- 6&#45;&gt;4 -->
<g id="edge7" class="edge">
<title>6&#45;&gt;4</title>
<path fill="none" stroke="grey" stroke-width="2" d="M68.4,-359.72C62.97,-321.02 51.48,-224.46 59,-144 59.8,-135.48 61.3,-126.28 62.9,-117.99"/>
<polygon fill="grey" stroke="grey" stroke-width="2" points="66.36,-118.57 64.94,-108.07 59.5,-117.16 66.36,-118.57"/>
</g>
<!-- 6&#45;&gt;5 -->
<g id="edge10" class="edge">
<title>6&#45;&gt;5</title>
<path fill="none" stroke="grey" stroke-width="2" d="M88.55,-359.7C97.23,-351.14 107.86,-340.66 117.35,-331.3"/>
<polygon fill="grey" stroke="grey" stroke-width="2" points="119.99,-333.62 124.65,-324.1 115.07,-328.63 119.99,-333.62"/>
</g>
<!-- 6&#45;&gt;7 -->
<g id="edge12" class="edge">
<title>6&#45;&gt;7</title>
<path fill="none" stroke="grey" stroke-width="2" d="M75.91,-359.69C81.46,-341.31 91.39,-311.72 104,-288 109.02,-278.55 115.51,-268.86 121.71,-260.39"/>
<polygon fill="grey" stroke="grey" stroke-width="2" points="124.52,-262.47 127.73,-252.38 118.93,-258.26 124.52,-262.47"/>
</g>
<!-- 7&#45;&gt;0 -->
<g id="edge1" class="edge">
<title>7&#45;&gt;0</title>
<path fill="none" stroke="grey" stroke-width="2" d="M131.37,-215.7C126.37,-207.56 120.31,-197.69 114.79,-188.7"/>
<polygon fill="grey" stroke="grey" stroke-width="2" points="117.72,-186.79 109.51,-180.1 111.76,-190.46 117.72,-186.79"/>
</g>
<!-- 7&#45;&gt;4 -->
<g id="edge6" class="edge">
<title>7&#45;&gt;4</title>
<path fill="none" stroke="grey" stroke-width="2" d="M145.31,-215.84C148.05,-197.06 149.79,-166.63 138,-144 131.37,-131.28 120.17,-120.7 108.7,-112.43"/>
<polygon fill="grey" stroke="grey" stroke-width="2" points="110.6,-109.5 100.35,-106.82 106.7,-115.31 110.6,-109.5"/>
</g>
<!-- 8&#45;&gt;2 -->
<g id="edge3" class="edge">
<title>8&#45;&gt;2</title>
<path fill="none" stroke="grey" stroke-width="2" d="M116,-503.7C116,-495.98 116,-486.71 116,-478.11"/>
<polygon fill="grey" stroke="grey" stroke-width="2" points="119.5,-478.1 116,-468.1 112.5,-478.1 119.5,-478.1"/>
</g>
</g>
</svg>
