<?xml version="1.0" encoding="UTF-8" standalone="no"?>
<!DOCTYPE svg PUBLIC "-//W3C//DTD SVG 1.1//EN"
 "http://www.w3.org/Graphics/SVG/1.1/DTD/svg11.dtd">
<!-- Generated by graphviz version 2.42.3 (20191010.1750)
 -->
<!-- Title: snakemake_dag Pages: 1 -->
<svg width="182pt" height="404pt"
 viewBox="0.00 0.00 181.50 404.00" xmlns="http://www.w3.org/2000/svg" xmlns:xlink="http://www.w3.org/1999/xlink">
<g id="graph0" class="graph" transform="scale(1 1) rotate(0) translate(4 400)">
<title>snakemake_dag</title>
<polygon fill="white" stroke="transparent" points="-4,4 -4,-400 177.5,-400 177.5,4 -4,4"/>
<!-- 0 -->
<g id="node1" class="node">
<title>0</title>
<path fill="none" stroke="#d6d856" stroke-width="2" stroke-dasharray="5,2" d="M129,-36C129,-36 99,-36 99,-36 93,-36 87,-30 87,-24 87,-24 87,-12 87,-12 87,-6 93,0 99,0 99,0 129,0 129,0 135,0 141,-6 141,-12 141,-12 141,-24 141,-24 141,-30 135,-36 129,-36"/>
<text text-anchor="middle" x="114" y="-15.5" font-family="sans" font-size="10.00">all</text>
</g>
<!-- 1 -->
<g id="node2" class="node">
<title>1</title>
<path fill="none" stroke="#d85656" stroke-width="2" stroke-dasharray="5,2" d="M112,-324C112,-324 64,-324 64,-324 58,-324 52,-318 52,-312 52,-312 52,-300 52,-300 52,-294 58,-288 64,-288 64,-288 112,-288 112,-288 118,-288 124,-294 124,-300 124,-300 124,-312 124,-312 124,-318 118,-324 112,-324"/>
<text text-anchor="middle" x="88" y="-303.5" font-family="sans" font-size="10.00">QC_salmon</text>
</g>
<!-- 4 -->
<g id="node5" class="node">
<title>4</title>
<path fill="none" stroke="#56d8a9" stroke-width="2" stroke-dasharray="5,2" d="M111,-252C111,-252 65,-252 65,-252 59,-252 53,-246 53,-240 53,-240 53,-228 53,-228 53,-222 59,-216 65,-216 65,-216 111,-216 111,-216 117,-216 123,-222 123,-228 123,-228 123,-240 123,-240 123,-246 117,-252 111,-252"/>
<text text-anchor="middle" x="88" y="-231.5" font-family="sans" font-size="10.00">pam50_ihc</text>
</g>
<!-- 1&#45;&gt;4 -->
<g id="edge4" class="edge">
<title>1&#45;&gt;4</title>
<path fill="none" stroke="grey" stroke-width="2" d="M88,-287.7C88,-279.98 88,-270.71 88,-262.11"/>
<polygon fill="grey" stroke="grey" stroke-width="2" points="91.5,-262.1 88,-252.1 84.5,-262.1 91.5,-262.1"/>
</g>
<!-- 2 -->
<g id="node3" class="node">
<title>2</title>
<path fill="none" stroke="#afd856" stroke-width="2" stroke-dasharray="5,2" d="M161.5,-396C161.5,-396 78.5,-396 78.5,-396 72.5,-396 66.5,-390 66.5,-384 66.5,-384 66.5,-372 66.5,-372 66.5,-366 72.5,-360 78.5,-360 78.5,-360 161.5,-360 161.5,-360 167.5,-360 173.5,-366 173.5,-372 173.5,-372 173.5,-384 173.5,-384 173.5,-390 167.5,-396 161.5,-396"/>
<text text-anchor="middle" x="120" y="-375.5" font-family="sans" font-size="10.00">process_metadata</text>
</g>
<!-- 2&#45;&gt;1 -->
<g id="edge2" class="edge">
<title>2&#45;&gt;1</title>
<path fill="none" stroke="grey" stroke-width="2" d="M112.09,-359.7C108.45,-351.73 104.05,-342.1 100.01,-333.26"/>
<polygon fill="grey" stroke="grey" stroke-width="2" points="103.16,-331.74 95.82,-324.1 96.79,-334.65 103.16,-331.74"/>
</g>
<!-- 5 -->
<g id="node6" class="node">
<title>5</title>
<path fill="none" stroke="#d8ac56" stroke-width="2" stroke-dasharray="5,2" d="M131,-108C131,-108 97,-108 97,-108 91,-108 85,-102 85,-96 85,-96 85,-84 85,-84 85,-78 91,-72 97,-72 97,-72 131,-72 131,-72 137,-72 143,-78 143,-84 143,-84 143,-96 143,-96 143,-102 137,-108 131,-108"/>
<text text-anchor="middle" x="114" y="-87.5" font-family="sans" font-size="10.00">surv_est</text>
</g>
<!-- 2&#45;&gt;5 -->
<g id="edge6" class="edge">
<title>2&#45;&gt;5</title>
<path fill="none" stroke="grey" stroke-width="2" d="M125.41,-359.53C128.3,-349.29 131.55,-336.04 133,-324 141.98,-249.71 128.17,-161.57 119.74,-118.07"/>
<polygon fill="grey" stroke="grey" stroke-width="2" points="123.12,-117.12 117.73,-108 116.25,-118.49 123.12,-117.12"/>
</g>
<!-- 3 -->
<g id="node4" class="node">
<title>3</title>
<path fill="none" stroke="#59d856" stroke-width="2" stroke-dasharray="5,2" d="M74,-180C74,-180 12,-180 12,-180 6,-180 0,-174 0,-168 0,-168 0,-156 0,-156 0,-150 6,-144 12,-144 12,-144 74,-144 74,-144 80,-144 86,-150 86,-156 86,-156 86,-168 86,-168 86,-174 80,-180 74,-180"/>
<text text-anchor="middle" x="43" y="-159.5" font-family="sans" font-size="10.00">color_palettes</text>
</g>
<!-- 3&#45;&gt;5 -->
<g id="edge7" class="edge">
<title>3&#45;&gt;5</title>
<path fill="none" stroke="grey" stroke-width="2" d="M60.55,-143.7C69.23,-135.14 79.86,-124.66 89.35,-115.3"/>
<polygon fill="grey" stroke="grey" stroke-width="2" points="91.99,-117.62 96.65,-108.1 87.07,-112.63 91.99,-117.62"/>
</g>
<!-- 4&#45;&gt;3 -->
<g id="edge3" class="edge">
<title>4&#45;&gt;3</title>
<path fill="none" stroke="grey" stroke-width="2" d="M76.88,-215.7C71.64,-207.56 65.3,-197.69 59.52,-188.7"/>
<polygon fill="grey" stroke="grey" stroke-width="2" points="62.35,-186.62 54,-180.1 56.46,-190.41 62.35,-186.62"/>
</g>
<!-- 4&#45;&gt;5 -->
<g id="edge5" class="edge">
<title>4&#45;&gt;5</title>
<path fill="none" stroke="grey" stroke-width="2" d="M91.14,-215.87C95.57,-191.67 103.71,-147.21 108.98,-118.39"/>
<polygon fill="grey" stroke="grey" stroke-width="2" points="112.49,-118.66 110.85,-108.19 105.61,-117.4 112.49,-118.66"/>
</g>
<!-- 5&#45;&gt;0 -->
<g id="edge1" class="edge">
<title>5&#45;&gt;0</title>
<path fill="none" stroke="grey" stroke-width="2" d="M114,-71.7C114,-63.98 114,-54.71 114,-46.11"/>
<polygon fill="grey" stroke="grey" stroke-width="2" points="117.5,-46.1 114,-36.1 110.5,-46.1 117.5,-46.1"/>
</g>
</g>
</svg>
