<?xml version="1.0" encoding="UTF-8" standalone="no"?>
<!DOCTYPE svg PUBLIC "-//W3C//DTD SVG 1.1//EN"
 "http://www.w3.org/Graphics/SVG/1.1/DTD/svg11.dtd">
<!-- Generated by graphviz version 2.42.3 (20191010.1750)
 -->
<!-- Title: snakemake_dag Pages: 1 -->
<svg width="737pt" height="692pt"
 viewBox="0.00 0.00 737.00 692.00" xmlns="http://www.w3.org/2000/svg" xmlns:xlink="http://www.w3.org/1999/xlink">
<g id="graph0" class="graph" transform="scale(1 1) rotate(0) translate(4 688)">
<title>snakemake_dag</title>
<polygon fill="white" stroke="transparent" points="-4,4 -4,-688 733,-688 733,4 -4,4"/>
<!-- 0 -->
<g id="node1" class="node">
<title>0</title>
<path fill="none" stroke="#d86e56" stroke-width="2" stroke-dasharray="5,2" d="M512,-468C512,-468 450,-468 450,-468 444,-468 438,-462 438,-456 438,-456 438,-444 438,-444 438,-438 444,-432 450,-432 450,-432 512,-432 512,-432 518,-432 524,-438 524,-444 524,-444 524,-456 524,-456 524,-462 518,-468 512,-468"/>
<text text-anchor="middle" x="481" y="-447.5" font-family="sans" font-size="10.00">color_palettes</text>
</g>
<!-- 2 -->
<g id="node3" class="node">
<title>2</title>
<path fill="none" stroke="#d6d856" stroke-width="2" stroke-dasharray="5,2" d="M585.5,-324C585.5,-324 526.5,-324 526.5,-324 520.5,-324 514.5,-318 514.5,-312 514.5,-312 514.5,-300 514.5,-300 514.5,-294 520.5,-288 526.5,-288 526.5,-288 585.5,-288 585.5,-288 591.5,-288 597.5,-294 597.5,-300 597.5,-300 597.5,-312 597.5,-312 597.5,-318 591.5,-324 585.5,-324"/>
<text text-anchor="middle" x="556" y="-303.5" font-family="sans" font-size="10.00">batch_effects</text>
</g>
<!-- 0&#45;&gt;2 -->
<g id="edge3" class="edge">
<title>0&#45;&gt;2</title>
<path fill="none" stroke="grey" stroke-width="2" d="M483.01,-431.97C485.79,-413.31 492,-382.98 505,-360 510.93,-349.51 519.42,-339.56 527.77,-331.16"/>
<polygon fill="grey" stroke="grey" stroke-width="2" points="530.22,-333.67 535.01,-324.22 525.37,-328.61 530.22,-333.67"/>
</g>
<!-- 3 -->
<g id="node4" class="node">
<title>3</title>
<path fill="none" stroke="#a7d856" stroke-width="2" d="M201,-180C201,-180 133,-180 133,-180 127,-180 121,-174 121,-168 121,-168 121,-156 121,-156 121,-150 127,-144 133,-144 133,-144 201,-144 201,-144 207,-144 213,-150 213,-156 213,-156 213,-168 213,-168 213,-174 207,-180 201,-180"/>
<text text-anchor="middle" x="167" y="-159.5" font-family="sans" font-size="10.00">pairwise_report</text>
</g>
<!-- 0&#45;&gt;3 -->
<g id="edge8" class="edge">
<title>0&#45;&gt;3</title>
<path fill="none" stroke="grey" stroke-width="2" d="M437.78,-441.9C354.06,-425.55 171.32,-376.64 95,-252 86.64,-238.35 87.78,-230.28 95,-216 101.14,-203.86 111.52,-193.82 122.51,-185.86"/>
<polygon fill="grey" stroke="grey" stroke-width="2" points="124.62,-188.66 130.97,-180.19 120.72,-182.85 124.62,-188.66"/>
</g>
<!-- 7 -->
<g id="node8" class="node">
<title>7</title>
<path fill="none" stroke="#56d8c1" stroke-width="2" d="M370.5,-108C370.5,-108 257.5,-108 257.5,-108 251.5,-108 245.5,-102 245.5,-96 245.5,-96 245.5,-84 245.5,-84 245.5,-78 251.5,-72 257.5,-72 257.5,-72 370.5,-72 370.5,-72 376.5,-72 382.5,-78 382.5,-84 382.5,-84 382.5,-96 382.5,-96 382.5,-102 376.5,-108 370.5,-108"/>
<text text-anchor="middle" x="314" y="-87.5" font-family="sans" font-size="10.00">genewise_diffex_reports</text>
</g>
<!-- 0&#45;&gt;7 -->
<g id="edge13" class="edge">
<title>0&#45;&gt;7</title>
<path fill="none" stroke="grey" stroke-width="2" d="M437.62,-447.29C381.78,-443.62 282.91,-432.11 207,-396 131.51,-360.09 104.75,-333.46 86,-252 74.93,-203.89 75.55,-177.31 112,-144 145.38,-113.5 194.18,-100.13 235.45,-94.45"/>
<polygon fill="grey" stroke="grey" stroke-width="2" points="236,-97.91 245.49,-93.2 235.14,-90.96 236,-97.91"/>
</g>
<!-- 8 -->
<g id="node9" class="node">
<title>8</title>
<path fill="none" stroke="#bed856" stroke-width="2" d="M634,-180C634,-180 596,-180 596,-180 590,-180 584,-174 584,-168 584,-168 584,-156 584,-156 584,-150 590,-144 596,-144 596,-144 634,-144 634,-144 640,-144 646,-150 646,-156 646,-156 646,-168 646,-168 646,-174 640,-180 634,-180"/>
<text text-anchor="middle" x="615" y="-159.5" font-family="sans" font-size="10.00">lrt_report</text>
</g>
<!-- 0&#45;&gt;8 -->
<g id="edge19" class="edge">
<title>0&#45;&gt;8</title>
<path fill="none" stroke="grey" stroke-width="2" d="M488.68,-431.71C498.02,-412.26 515.39,-380.68 538,-360 563.52,-336.65 587.46,-352.54 607,-324 634.36,-284.03 628.38,-224.5 621.64,-190.14"/>
<polygon fill="grey" stroke="grey" stroke-width="2" points="625.05,-189.39 619.55,-180.34 618.21,-190.85 625.05,-189.39"/>
</g>
<!-- 11 -->
<g id="node12" class="node">
<title>11</title>
<path fill="none" stroke="#56d873" stroke-width="2" d="M406,-180C406,-180 320,-180 320,-180 314,-180 308,-174 308,-168 308,-168 308,-156 308,-156 308,-150 314,-144 320,-144 320,-144 406,-144 406,-144 412,-144 418,-150 418,-156 418,-156 418,-168 418,-168 418,-174 412,-180 406,-180"/>
<text text-anchor="middle" x="363" y="-159.5" font-family="sans" font-size="10.00">one_vs_rest_report</text>
</g>
<!-- 0&#45;&gt;11 -->
<g id="edge27" class="edge">
<title>0&#45;&gt;11</title>
<path fill="none" stroke="grey" stroke-width="2" d="M472.15,-431.95C454.85,-398.22 416,-320.31 390,-252 382.22,-231.56 375.12,-207.84 370.15,-190.03"/>
<polygon fill="grey" stroke="grey" stroke-width="2" points="373.5,-189.02 367.48,-180.3 366.75,-190.87 373.5,-189.02"/>
</g>
<!-- 14 -->
<g id="node15" class="node">
<title>14</title>
<path fill="none" stroke="#5673d8" stroke-width="2" stroke-dasharray="5,2" d="M593,-396C593,-396 559,-396 559,-396 553,-396 547,-390 547,-384 547,-384 547,-372 547,-372 547,-366 553,-360 559,-360 559,-360 593,-360 593,-360 599,-360 605,-366 605,-372 605,-372 605,-384 605,-384 605,-390 599,-396 593,-396"/>
<text text-anchor="middle" x="576" y="-375.5" font-family="sans" font-size="10.00">surv_est</text>
</g>
<!-- 0&#45;&gt;14 -->
<g id="edge32" class="edge">
<title>0&#45;&gt;14</title>
<path fill="none" stroke="grey" stroke-width="2" d="M504.48,-431.7C516.56,-422.8 531.45,-411.82 544.52,-402.2"/>
<polygon fill="grey" stroke="grey" stroke-width="2" points="546.81,-404.85 552.79,-396.1 542.66,-399.22 546.81,-404.85"/>
</g>
<!-- 1 -->
<g id="node2" class="node">
<title>1</title>
<path fill="none" stroke="#d88d56" stroke-width="2" stroke-dasharray="5,2" d="M574.5,-252C574.5,-252 537.5,-252 537.5,-252 531.5,-252 525.5,-246 525.5,-240 525.5,-240 525.5,-228 525.5,-228 525.5,-222 531.5,-216 537.5,-216 537.5,-216 574.5,-216 574.5,-216 580.5,-216 586.5,-222 586.5,-228 586.5,-228 586.5,-240 586.5,-240 586.5,-246 580.5,-252 574.5,-252"/>
<text text-anchor="middle" x="556" y="-231.5" font-family="sans" font-size="10.00">lrt_diffex</text>
</g>
<!-- 1&#45;&gt;3 -->
<g id="edge9" class="edge">
<title>1&#45;&gt;3</title>
<path fill="none" stroke="grey" stroke-width="2" d="M525.19,-218.7C522.45,-217.7 519.7,-216.78 517,-216 489.36,-208.03 314.93,-183.37 223.22,-170.69"/>
<polygon fill="grey" stroke="grey" stroke-width="2" points="223.65,-167.22 213.26,-169.32 222.69,-174.15 223.65,-167.22"/>
</g>
<!-- 1&#45;&gt;8 -->
<g id="edge21" class="edge">
<title>1&#45;&gt;8</title>
<path fill="none" stroke="grey" stroke-width="2" d="M570.58,-215.7C577.66,-207.3 586.28,-197.07 594.05,-187.86"/>
<polygon fill="grey" stroke="grey" stroke-width="2" points="596.81,-190.01 600.58,-180.1 591.46,-185.49 596.81,-190.01"/>
</g>
<!-- 1&#45;&gt;11 -->
<g id="edge28" class="edge">
<title>1&#45;&gt;11</title>
<path fill="none" stroke="grey" stroke-width="2" d="M525.44,-219.4C522.6,-218.22 519.75,-217.07 517,-216 487.18,-204.39 453.64,-192.69 425.48,-183.25"/>
<polygon fill="grey" stroke="grey" stroke-width="2" points="426.36,-179.85 415.77,-180 424.14,-186.49 426.36,-179.85"/>
</g>
<!-- 2&#45;&gt;1 -->
<g id="edge2" class="edge">
<title>2&#45;&gt;1</title>
<path fill="none" stroke="grey" stroke-width="2" d="M556,-287.7C556,-279.98 556,-270.71 556,-262.11"/>
<polygon fill="grey" stroke="grey" stroke-width="2" points="559.5,-262.1 556,-252.1 552.5,-262.1 559.5,-262.1"/>
</g>
<!-- 2&#45;&gt;8 -->
<g id="edge20" class="edge">
<title>2&#45;&gt;8</title>
<path fill="none" stroke="grey" stroke-width="2" d="M572.2,-287.63C580.49,-277.84 590.06,-265 596,-252 605,-232.3 609.81,-208.17 612.33,-190.01"/>
<polygon fill="grey" stroke="grey" stroke-width="2" points="615.81,-190.45 613.57,-180.09 608.86,-189.58 615.81,-190.45"/>
</g>
<!-- 10 -->
<g id="node11" class="node">
<title>10</title>
<path fill="none" stroke="#56a2d8" stroke-width="2" stroke-dasharray="5,2" d="M184,-252C184,-252 116,-252 116,-252 110,-252 104,-246 104,-240 104,-240 104,-228 104,-228 104,-222 110,-216 116,-216 116,-216 184,-216 184,-216 190,-216 196,-222 196,-228 196,-228 196,-240 196,-240 196,-246 190,-252 184,-252"/>
<text text-anchor="middle" x="150" y="-231.5" font-family="sans" font-size="10.00">diffex_pairwise</text>
</g>
<!-- 2&#45;&gt;10 -->
<g id="edge24" class="edge">
<title>2&#45;&gt;10</title>
<path fill="none" stroke="grey" stroke-width="2" d="M514.29,-300.75C449.95,-293.75 322.6,-278.13 205.89,-252.02"/>
<polygon fill="grey" stroke="grey" stroke-width="2" points="206.6,-248.59 196.08,-249.79 205.05,-255.42 206.6,-248.59"/>
</g>
<!-- 12 -->
<g id="node13" class="node">
<title>12</title>
<path fill="none" stroke="#59d856" stroke-width="2" stroke-dasharray="5,2" d="M495.5,-252C495.5,-252 410.5,-252 410.5,-252 404.5,-252 398.5,-246 398.5,-240 398.5,-240 398.5,-228 398.5,-228 398.5,-222 404.5,-216 410.5,-216 410.5,-216 495.5,-216 495.5,-216 501.5,-216 507.5,-222 507.5,-228 507.5,-228 507.5,-240 507.5,-240 507.5,-246 501.5,-252 495.5,-252"/>
<text text-anchor="middle" x="453" y="-231.5" font-family="sans" font-size="10.00">diffex_one_vs_rest</text>
</g>
<!-- 2&#45;&gt;12 -->
<g id="edge30" class="edge">
<title>2&#45;&gt;12</title>
<path fill="none" stroke="grey" stroke-width="2" d="M530.8,-287.88C517.59,-278.89 501.21,-267.76 486.89,-258.03"/>
<polygon fill="grey" stroke="grey" stroke-width="2" points="488.53,-254.92 478.29,-252.19 484.6,-260.71 488.53,-254.92"/>
</g>
<!-- 3&#45;&gt;7 -->
<g id="edge17" class="edge">
<title>3&#45;&gt;7</title>
<path fill="none" stroke="grey" stroke-width="2" d="M202.96,-143.88C222.88,-134.39 247.82,-122.51 269.02,-112.42"/>
<polygon fill="grey" stroke="grey" stroke-width="2" points="270.63,-115.53 278.16,-108.07 267.62,-109.21 270.63,-115.53"/>
</g>
<!-- 4 -->
<g id="node5" class="node">
<title>4</title>
<path fill="none" stroke="#70d856" stroke-width="2" d="M329,-36C329,-36 299,-36 299,-36 293,-36 287,-30 287,-24 287,-24 287,-12 287,-12 287,-6 293,0 299,0 299,0 329,0 329,0 335,0 341,-6 341,-12 341,-12 341,-24 341,-24 341,-30 335,-36 329,-36"/>
<text text-anchor="middle" x="314" y="-15.5" font-family="sans" font-size="10.00">all</text>
</g>
<!-- 5 -->
<g id="node6" class="node">
<title>5</title>
<path fill="none" stroke="#d85656" stroke-width="2" stroke-dasharray="5,2" d="M552,-540C552,-540 506,-540 506,-540 500,-540 494,-534 494,-528 494,-528 494,-516 494,-516 494,-510 500,-504 506,-504 506,-504 552,-504 552,-504 558,-504 564,-510 564,-516 564,-516 564,-528 564,-528 564,-534 558,-540 552,-540"/>
<text text-anchor="middle" x="529" y="-519.5" font-family="sans" font-size="10.00">pam50_ihc</text>
</g>
<!-- 5&#45;&gt;0 -->
<g id="edge1" class="edge">
<title>5&#45;&gt;0</title>
<path fill="none" stroke="grey" stroke-width="2" d="M517.13,-503.7C511.5,-495.47 504.65,-485.48 498.43,-476.42"/>
<polygon fill="grey" stroke="grey" stroke-width="2" points="501.27,-474.37 492.73,-468.1 495.5,-478.33 501.27,-474.37"/>
</g>
<!-- 5&#45;&gt;14 -->
<g id="edge31" class="edge">
<title>5&#45;&gt;14</title>
<path fill="none" stroke="grey" stroke-width="2" d="M534.67,-503.87C542.71,-479.56 557.52,-434.82 567.06,-406.01"/>
<polygon fill="grey" stroke="grey" stroke-width="2" points="570.49,-406.78 570.31,-396.19 563.85,-404.58 570.49,-406.78"/>
</g>
<!-- 6 -->
<g id="node7" class="node">
<title>6</title>
<path fill="none" stroke="#56c1d8" stroke-width="2" stroke-dasharray="5,2" d="M292,-252C292,-252 226,-252 226,-252 220,-252 214,-246 214,-240 214,-240 214,-228 214,-228 214,-222 220,-216 226,-216 226,-216 292,-216 292,-216 298,-216 304,-222 304,-228 304,-228 304,-240 304,-240 304,-246 298,-252 292,-252"/>
<text text-anchor="middle" x="259" y="-231.5" font-family="sans" font-size="10.00">survival_colors</text>
</g>
<!-- 6&#45;&gt;3 -->
<g id="edge6" class="edge">
<title>6&#45;&gt;3</title>
<path fill="none" stroke="grey" stroke-width="2" d="M236.26,-215.7C224.56,-206.8 210.14,-195.82 197.49,-186.2"/>
<polygon fill="grey" stroke="grey" stroke-width="2" points="199.56,-183.37 189.48,-180.1 195.32,-188.94 199.56,-183.37"/>
</g>
<!-- 6&#45;&gt;7 -->
<g id="edge14" class="edge">
<title>6&#45;&gt;7</title>
<path fill="none" stroke="grey" stroke-width="2" d="M265.63,-215.87C275.09,-191.46 292.53,-146.43 303.68,-117.64"/>
<polygon fill="grey" stroke="grey" stroke-width="2" points="306.99,-118.78 307.34,-108.19 300.47,-116.25 306.99,-118.78"/>
</g>
<!-- 6&#45;&gt;11 -->
<g id="edge25" class="edge">
<title>6&#45;&gt;11</title>
<path fill="none" stroke="grey" stroke-width="2" d="M284.44,-215.88C297.79,-206.89 314.32,-195.76 328.78,-186.03"/>
<polygon fill="grey" stroke="grey" stroke-width="2" points="331.12,-188.68 337.46,-180.19 327.21,-182.87 331.12,-188.68"/>
</g>
<!-- 7&#45;&gt;4 -->
<g id="edge11" class="edge">
<title>7&#45;&gt;4</title>
<path fill="none" stroke="grey" stroke-width="2" d="M314,-71.7C314,-63.98 314,-54.71 314,-46.11"/>
<polygon fill="grey" stroke="grey" stroke-width="2" points="317.5,-46.1 314,-36.1 310.5,-46.1 317.5,-46.1"/>
</g>
<!-- 8&#45;&gt;7 -->
<g id="edge15" class="edge">
<title>8&#45;&gt;7</title>
<path fill="none" stroke="grey" stroke-width="2" d="M583.92,-153.77C539.15,-143.36 455.03,-123.8 392.55,-109.27"/>
<polygon fill="grey" stroke="grey" stroke-width="2" points="393.25,-105.84 382.72,-106.98 391.67,-112.66 393.25,-105.84"/>
</g>
<!-- 9 -->
<g id="node10" class="node">
<title>9</title>
<path fill="none" stroke="#568ad8" stroke-width="2" stroke-dasharray="5,2" d="M553,-612C553,-612 505,-612 505,-612 499,-612 493,-606 493,-600 493,-600 493,-588 493,-588 493,-582 499,-576 505,-576 505,-576 553,-576 553,-576 559,-576 565,-582 565,-588 565,-588 565,-600 565,-600 565,-606 559,-612 553,-612"/>
<text text-anchor="middle" x="529" y="-591.5" font-family="sans" font-size="10.00">QC_salmon</text>
</g>
<!-- 9&#45;&gt;5 -->
<g id="edge12" class="edge">
<title>9&#45;&gt;5</title>
<path fill="none" stroke="grey" stroke-width="2" d="M529,-575.7C529,-567.98 529,-558.71 529,-550.11"/>
<polygon fill="grey" stroke="grey" stroke-width="2" points="532.5,-550.1 529,-540.1 525.5,-550.1 532.5,-550.1"/>
</g>
<!-- 10&#45;&gt;3 -->
<g id="edge7" class="edge">
<title>10&#45;&gt;3</title>
<path fill="none" stroke="grey" stroke-width="2" d="M154.2,-215.7C156.1,-207.9 158.38,-198.51 160.48,-189.83"/>
<polygon fill="grey" stroke="grey" stroke-width="2" points="163.89,-190.65 162.85,-180.1 157.08,-189 163.89,-190.65"/>
</g>
<!-- 11&#45;&gt;7 -->
<g id="edge16" class="edge">
<title>11&#45;&gt;7</title>
<path fill="none" stroke="grey" stroke-width="2" d="M350.89,-143.7C345.13,-135.47 338.14,-125.48 331.79,-116.42"/>
<polygon fill="grey" stroke="grey" stroke-width="2" points="334.58,-114.29 325.97,-108.1 328.84,-118.3 334.58,-114.29"/>
</g>
<!-- 12&#45;&gt;11 -->
<g id="edge26" class="edge">
<title>12&#45;&gt;11</title>
<path fill="none" stroke="grey" stroke-width="2" d="M430.75,-215.7C419.42,-206.88 405.47,-196.03 393.18,-186.47"/>
<polygon fill="grey" stroke="grey" stroke-width="2" points="395.03,-183.48 384.99,-180.1 390.74,-189.01 395.03,-183.48"/>
</g>
<!-- 13 -->
<g id="node14" class="node">
<title>13</title>
<path fill="none" stroke="#56d88a" stroke-width="2" stroke-dasharray="5,2" d="M634.5,-684C634.5,-684 551.5,-684 551.5,-684 545.5,-684 539.5,-678 539.5,-672 539.5,-672 539.5,-660 539.5,-660 539.5,-654 545.5,-648 551.5,-648 551.5,-648 634.5,-648 634.5,-648 640.5,-648 646.5,-654 646.5,-660 646.5,-660 646.5,-672 646.5,-672 646.5,-678 640.5,-684 634.5,-684"/>
<text text-anchor="middle" x="593" y="-663.5" font-family="sans" font-size="10.00">process_metadata</text>
</g>
<!-- 13&#45;&gt;2 -->
<g id="edge5" class="edge">
<title>13&#45;&gt;2</title>
<path fill="none" stroke="grey" stroke-width="2" d="M601.09,-647.95C612.78,-621.72 633,-569.61 633,-523 633,-523 633,-523 633,-449 633,-408.55 634.11,-395.09 614,-360 607.69,-349 598.32,-339 588.94,-330.72"/>
<polygon fill="grey" stroke="grey" stroke-width="2" points="591.04,-327.92 581.12,-324.19 586.55,-333.29 591.04,-327.92"/>
</g>
<!-- 13&#45;&gt;3 -->
<g id="edge10" class="edge">
<title>13&#45;&gt;3</title>
<path fill="none" stroke="grey" stroke-width="2" d="M539.22,-664.19C424.78,-661.69 161.13,-651.68 82,-612 33.92,-587.89 0,-576.79 0,-523 0,-523 0,-523 0,-305 0,-245.11 63.1,-205.2 111.72,-183.33"/>
<polygon fill="grey" stroke="grey" stroke-width="2" points="113.15,-186.52 120.92,-179.32 110.36,-180.1 113.15,-186.52"/>
</g>
<!-- 13&#45;&gt;7 -->
<g id="edge18" class="edge">
<title>13&#45;&gt;7</title>
<path fill="none" stroke="grey" stroke-width="2" d="M627.67,-647.93C667.96,-625.38 729,-581.54 729,-523 729,-523 729,-523 729,-233 729,-181.56 699.75,-169.37 655,-144 611.38,-119.28 479.04,-104.23 392.63,-96.77"/>
<polygon fill="grey" stroke="grey" stroke-width="2" points="392.85,-93.27 382.59,-95.92 392.26,-100.25 392.85,-93.27"/>
</g>
<!-- 13&#45;&gt;8 -->
<g id="edge22" class="edge">
<title>13&#45;&gt;8</title>
<path fill="none" stroke="grey" stroke-width="2" d="M615.24,-647.92C644.15,-623.6 691,-576.02 691,-523 691,-523 691,-523 691,-305 691,-259.64 660.48,-214.75 638.12,-187.95"/>
<polygon fill="grey" stroke="grey" stroke-width="2" points="640.66,-185.53 631.49,-180.23 635.36,-190.09 640.66,-185.53"/>
</g>
<!-- 13&#45;&gt;9 -->
<g id="edge23" class="edge">
<title>13&#45;&gt;9</title>
<path fill="none" stroke="grey" stroke-width="2" d="M577.18,-647.7C569.43,-639.22 559.96,-628.86 551.48,-619.58"/>
<polygon fill="grey" stroke="grey" stroke-width="2" points="553.97,-617.12 544.64,-612.1 548.8,-621.85 553.97,-617.12"/>
</g>
<!-- 13&#45;&gt;11 -->
<g id="edge29" class="edge">
<title>13&#45;&gt;11</title>
<path fill="none" stroke="grey" stroke-width="2" d="M539.28,-662.67C400,-655.18 38,-625.81 38,-523 38,-523 38,-523 38,-449 38,-298.65 212.68,-363.98 313,-252 329.72,-233.34 343.22,-208.15 351.96,-189.33"/>
<polygon fill="grey" stroke="grey" stroke-width="2" points="355.18,-190.7 356.08,-180.14 348.79,-187.83 355.18,-190.7"/>
</g>
<!-- 13&#45;&gt;14 -->
<g id="edge33" class="edge">
<title>13&#45;&gt;14</title>
<path fill="none" stroke="grey" stroke-width="2" d="M591.99,-647.97C589.15,-600.29 581.12,-465.18 577.64,-406.63"/>
<polygon fill="grey" stroke="grey" stroke-width="2" points="581.12,-406.08 577.03,-396.31 574.13,-406.5 581.12,-406.08"/>
</g>
<!-- 14&#45;&gt;2 -->
<g id="edge4" class="edge">
<title>14&#45;&gt;2</title>
<path fill="none" stroke="grey" stroke-width="2" d="M571.06,-359.7C568.83,-351.9 566.15,-342.51 563.67,-333.83"/>
<polygon fill="grey" stroke="grey" stroke-width="2" points="567,-332.76 560.89,-324.1 560.27,-334.68 567,-332.76"/>
</g>
</g>
</svg>
