<?xml version="1.0" encoding="UTF-8" standalone="no"?>
<!DOCTYPE svg PUBLIC "-//W3C//DTD SVG 1.1//EN"
 "http://www.w3.org/Graphics/SVG/1.1/DTD/svg11.dtd">
<!-- Generated by graphviz version 2.42.3 (20191010.1750)
 -->
<!-- Title: snakemake_dag Pages: 1 -->
<svg width="1475pt" height="908pt"
 viewBox="0.00 0.00 1475.00 908.00" xmlns="http://www.w3.org/2000/svg" xmlns:xlink="http://www.w3.org/1999/xlink">
<g id="graph0" class="graph" transform="scale(1 1) rotate(0) translate(4 904)">
<title>snakemake_dag</title>
<polygon fill="white" stroke="transparent" points="-4,4 -4,-904 1471,-904 1471,4 -4,4"/>
<!-- 0 -->
<g id="node1" class="node">
<title>0</title>
<path fill="none" stroke="#78d856" stroke-width="2" d="M116,-252C116,-252 12,-252 12,-252 6,-252 0,-246 0,-240 0,-240 0,-228 0,-228 0,-222 6,-216 12,-216 12,-216 116,-216 116,-216 122,-216 128,-222 128,-228 128,-228 128,-240 128,-240 128,-246 122,-252 116,-252"/>
<text text-anchor="middle" x="64" y="-231.5" font-family="sans" font-size="10.00">report_subgroup_comp</text>
</g>
<!-- 15 -->
<g id="node16" class="node">
<title>15</title>
<path fill="none" stroke="#56b9d8" stroke-width="2" d="M847.5,-108C847.5,-108 766.5,-108 766.5,-108 760.5,-108 754.5,-102 754.5,-96 754.5,-96 754.5,-84 754.5,-84 754.5,-78 760.5,-72 766.5,-72 766.5,-72 847.5,-72 847.5,-72 853.5,-72 859.5,-78 859.5,-84 859.5,-84 859.5,-96 859.5,-96 859.5,-102 853.5,-108 847.5,-108"/>
<text text-anchor="middle" x="807" y="-87.5" font-family="sans" font-size="10.00">gene_unity_report</text>
</g>
<!-- 0&#45;&gt;15 -->
<g id="edge30" class="edge">
<title>0&#45;&gt;15</title>
<path fill="none" stroke="grey" stroke-width="2" d="M100.77,-215.98C146.94,-195.4 229.08,-161.36 303,-144 458.99,-107.37 648.1,-96.04 744.27,-92.54"/>
<polygon fill="grey" stroke="grey" stroke-width="2" points="744.53,-96.04 754.4,-92.19 744.29,-89.04 744.53,-96.04"/>
</g>
<!-- 1 -->
<g id="node2" class="node">
<title>1</title>
<path fill="none" stroke="#68d856" stroke-width="2" stroke-dasharray="5,2" d="M939,-468C939,-468 871,-468 871,-468 865,-468 859,-462 859,-456 859,-456 859,-444 859,-444 859,-438 865,-432 871,-432 871,-432 939,-432 939,-432 945,-432 951,-438 951,-444 951,-444 951,-456 951,-456 951,-462 945,-468 939,-468"/>
<text text-anchor="middle" x="905" y="-447.5" font-family="sans" font-size="10.00">diffex_pairwise</text>
</g>
<!-- 11 -->
<g id="node12" class="node">
<title>11</title>
<path fill="none" stroke="#5692d8" stroke-width="2" stroke-dasharray="5,2" d="M1275,-324C1275,-324 1207,-324 1207,-324 1201,-324 1195,-318 1195,-312 1195,-312 1195,-300 1195,-300 1195,-294 1201,-288 1207,-288 1207,-288 1275,-288 1275,-288 1281,-288 1287,-294 1287,-300 1287,-300 1287,-312 1287,-312 1287,-318 1281,-324 1275,-324"/>
<text text-anchor="middle" x="1241" y="-303.5" font-family="sans" font-size="10.00">pairwise_report</text>
</g>
<!-- 1&#45;&gt;11 -->
<g id="edge25" class="edge">
<title>1&#45;&gt;11</title>
<path fill="none" stroke="grey" stroke-width="2" d="M951.19,-444.52C1019.87,-437.15 1144.81,-420.75 1182,-396 1204.68,-380.91 1220.76,-353.81 1230.35,-333.47"/>
<polygon fill="grey" stroke="grey" stroke-width="2" points="1233.65,-334.67 1234.53,-324.11 1227.26,-331.81 1233.65,-334.67"/>
</g>
<!-- 2 -->
<g id="node3" class="node">
<title>2</title>
<path fill="none" stroke="#d85656" stroke-width="2" stroke-dasharray="5,2" d="M1161,-396C1161,-396 1095,-396 1095,-396 1089,-396 1083,-390 1083,-384 1083,-384 1083,-372 1083,-372 1083,-366 1089,-360 1095,-360 1095,-360 1161,-360 1161,-360 1167,-360 1173,-366 1173,-372 1173,-372 1173,-384 1173,-384 1173,-390 1167,-396 1161,-396"/>
<text text-anchor="middle" x="1128" y="-375.5" font-family="sans" font-size="10.00">survival_colors</text>
</g>
<!-- 5 -->
<g id="node6" class="node">
<title>5</title>
<path fill="none" stroke="#d87d56" stroke-width="2" stroke-dasharray="5,2" d="M1259,-252C1259,-252 1141,-252 1141,-252 1135,-252 1129,-246 1129,-240 1129,-240 1129,-228 1129,-228 1129,-222 1135,-216 1141,-216 1141,-216 1259,-216 1259,-216 1265,-216 1271,-222 1271,-228 1271,-228 1271,-240 1271,-240 1271,-246 1265,-252 1259,-252"/>
<text text-anchor="middle" x="1200" y="-231.5" font-family="sans" font-size="10.00">report_genewise_survival</text>
</g>
<!-- 2&#45;&gt;5 -->
<g id="edge10" class="edge">
<title>2&#45;&gt;5</title>
<path fill="none" stroke="grey" stroke-width="2" d="M1136.68,-359.87C1149.12,-335.35 1172.1,-290.03 1186.69,-261.26"/>
<polygon fill="grey" stroke="grey" stroke-width="2" points="1189.88,-262.69 1191.28,-252.19 1183.64,-259.53 1189.88,-262.69"/>
</g>
<!-- 2&#45;&gt;11 -->
<g id="edge26" class="edge">
<title>2&#45;&gt;11</title>
<path fill="none" stroke="grey" stroke-width="2" d="M1155.64,-359.88C1170.42,-350.72 1188.79,-339.34 1204.7,-329.48"/>
<polygon fill="grey" stroke="grey" stroke-width="2" points="1206.59,-332.43 1213.25,-324.19 1202.91,-326.48 1206.59,-332.43"/>
</g>
<!-- 23 -->
<g id="node24" class="node">
<title>23</title>
<path fill="none" stroke="#97d856" stroke-width="2" stroke-dasharray="5,2" d="M1127,-324C1127,-324 1041,-324 1041,-324 1035,-324 1029,-318 1029,-312 1029,-312 1029,-300 1029,-300 1029,-294 1035,-288 1041,-288 1041,-288 1127,-288 1127,-288 1133,-288 1139,-294 1139,-300 1139,-300 1139,-312 1139,-312 1139,-318 1133,-324 1127,-324"/>
<text text-anchor="middle" x="1084" y="-303.5" font-family="sans" font-size="10.00">one_vs_rest_report</text>
</g>
<!-- 2&#45;&gt;23 -->
<g id="edge66" class="edge">
<title>2&#45;&gt;23</title>
<path fill="none" stroke="grey" stroke-width="2" d="M1117.12,-359.7C1112.01,-351.56 1105.8,-341.69 1100.16,-332.7"/>
<polygon fill="grey" stroke="grey" stroke-width="2" points="1103.04,-330.71 1094.75,-324.1 1097.11,-334.43 1103.04,-330.71"/>
</g>
<!-- 24 -->
<g id="node25" class="node">
<title>24</title>
<path fill="none" stroke="#88d856" stroke-width="2" stroke-dasharray="5,2" d="M833,-252C833,-252 709,-252 709,-252 703,-252 697,-246 697,-240 697,-240 697,-228 697,-228 697,-222 703,-216 709,-216 709,-216 833,-216 833,-216 839,-216 845,-222 845,-228 845,-228 845,-240 845,-240 845,-246 839,-252 833,-252"/>
<text text-anchor="middle" x="771" y="-231.5" font-family="sans" font-size="10.00">report_interaction_survival</text>
</g>
<!-- 2&#45;&gt;24 -->
<g id="edge70" class="edge">
<title>2&#45;&gt;24</title>
<path fill="none" stroke="grey" stroke-width="2" d="M1087.51,-359.94C1066.68,-350.48 1041.27,-337.84 1020,-324 999.11,-310.41 999.17,-299.39 977,-288 955.49,-276.96 902.1,-263.34 855.06,-252.68"/>
<polygon fill="grey" stroke="grey" stroke-width="2" points="855.65,-249.23 845.13,-250.45 854.12,-256.06 855.65,-249.23"/>
</g>
<!-- 3 -->
<g id="node4" class="node">
<title>3</title>
<path fill="none" stroke="#56d87b" stroke-width="2" stroke-dasharray="5,2" d="M267.5,-396C267.5,-396 196.5,-396 196.5,-396 190.5,-396 184.5,-390 184.5,-384 184.5,-384 184.5,-372 184.5,-372 184.5,-366 190.5,-360 196.5,-360 196.5,-360 267.5,-360 267.5,-360 273.5,-360 279.5,-366 279.5,-372 279.5,-372 279.5,-384 279.5,-384 279.5,-390 273.5,-396 267.5,-396"/>
<text text-anchor="middle" x="232" y="-375.5" font-family="sans" font-size="10.00">subgroup_diffex</text>
</g>
<!-- 3&#45;&gt;0 -->
<g id="edge1" class="edge">
<title>3&#45;&gt;0</title>
<path fill="none" stroke="grey" stroke-width="2" d="M211.74,-359.87C181.84,-334.6 125.82,-287.25 92.01,-258.68"/>
<polygon fill="grey" stroke="grey" stroke-width="2" points="94.23,-255.97 84.34,-252.19 89.71,-261.32 94.23,-255.97"/>
</g>
<!-- 4 -->
<g id="node5" class="node">
<title>4</title>
<path fill="none" stroke="#d87556" stroke-width="2" stroke-dasharray="5,2" d="M677,-612C677,-612 643,-612 643,-612 637,-612 631,-606 631,-600 631,-600 631,-588 631,-588 631,-582 637,-576 643,-576 643,-576 677,-576 677,-576 683,-576 689,-582 689,-588 689,-588 689,-600 689,-600 689,-606 683,-612 677,-612"/>
<text text-anchor="middle" x="660" y="-591.5" font-family="sans" font-size="10.00">surv_est</text>
</g>
<!-- 10 -->
<g id="node11" class="node">
<title>10</title>
<path fill="none" stroke="#56d8d8" stroke-width="2" stroke-dasharray="5,2" d="M699.5,-396C699.5,-396 616.5,-396 616.5,-396 610.5,-396 604.5,-390 604.5,-384 604.5,-384 604.5,-372 604.5,-372 604.5,-366 610.5,-360 616.5,-360 616.5,-360 699.5,-360 699.5,-360 705.5,-360 711.5,-366 711.5,-372 711.5,-372 711.5,-384 711.5,-384 711.5,-390 705.5,-396 699.5,-396"/>
<text text-anchor="middle" x="658" y="-375.5" font-family="sans" font-size="10.00">genewise_survival</text>
</g>
<!-- 4&#45;&gt;10 -->
<g id="edge21" class="edge">
<title>4&#45;&gt;10</title>
<path fill="none" stroke="grey" stroke-width="2" d="M659.84,-575.85C659.49,-538.83 658.67,-451.18 658.26,-406.39"/>
<polygon fill="grey" stroke="grey" stroke-width="2" points="661.75,-406.2 658.16,-396.23 654.75,-406.26 661.75,-406.2"/>
</g>
<!-- 25 -->
<g id="node26" class="node">
<title>25</title>
<path fill="none" stroke="#5663d8" stroke-width="2" stroke-dasharray="5,2" d="M635.5,-540C635.5,-540 576.5,-540 576.5,-540 570.5,-540 564.5,-534 564.5,-528 564.5,-528 564.5,-516 564.5,-516 564.5,-510 570.5,-504 576.5,-504 576.5,-504 635.5,-504 635.5,-504 641.5,-504 647.5,-510 647.5,-516 647.5,-516 647.5,-528 647.5,-528 647.5,-534 641.5,-540 635.5,-540"/>
<text text-anchor="middle" x="606" y="-519.5" font-family="sans" font-size="10.00">batch_effects</text>
</g>
<!-- 4&#45;&gt;25 -->
<g id="edge76" class="edge">
<title>4&#45;&gt;25</title>
<path fill="none" stroke="grey" stroke-width="2" d="M646.65,-575.7C640.24,-567.39 632.44,-557.28 625.39,-548.14"/>
<polygon fill="grey" stroke="grey" stroke-width="2" points="628.07,-545.88 619.19,-540.1 622.53,-550.16 628.07,-545.88"/>
</g>
<!-- 5&#45;&gt;15 -->
<g id="edge32" class="edge">
<title>5&#45;&gt;15</title>
<path fill="none" stroke="grey" stroke-width="2" d="M1188.78,-215.76C1174.34,-195.12 1147.25,-161.18 1115,-144 1037.38,-102.66 934.59,-92.42 869.61,-90.47"/>
<polygon fill="grey" stroke="grey" stroke-width="2" points="869.6,-86.97 859.51,-90.23 869.43,-93.97 869.6,-86.97"/>
</g>
<!-- 19 -->
<g id="node20" class="node">
<title>19</title>
<path fill="none" stroke="#a7d856" stroke-width="2" stroke-dasharray="5,2" d="M1061,-180C1061,-180 955,-180 955,-180 949,-180 943,-174 943,-168 943,-168 943,-156 943,-156 943,-150 949,-144 955,-144 955,-144 1061,-144 1061,-144 1067,-144 1073,-150 1073,-156 1073,-156 1073,-168 1073,-168 1073,-174 1067,-180 1061,-180"/>
<text text-anchor="middle" x="1008" y="-159.5" font-family="sans" font-size="10.00">report_all_inv_cox_glm</text>
</g>
<!-- 5&#45;&gt;19 -->
<g id="edge50" class="edge">
<title>5&#45;&gt;19</title>
<path fill="none" stroke="grey" stroke-width="2" d="M1153.03,-215.88C1126.32,-206.14 1092.68,-193.87 1064.53,-183.61"/>
<polygon fill="grey" stroke="grey" stroke-width="2" points="1065.41,-180.21 1054.82,-180.07 1063.01,-186.78 1065.41,-180.21"/>
</g>
<!-- 20 -->
<g id="node21" class="node">
<title>20</title>
<path fill="none" stroke="#569ad8" stroke-width="2" stroke-dasharray="5,2" d="M912.5,-180C912.5,-180 823.5,-180 823.5,-180 817.5,-180 811.5,-174 811.5,-168 811.5,-168 811.5,-156 811.5,-156 811.5,-150 817.5,-144 823.5,-144 823.5,-144 912.5,-144 912.5,-144 918.5,-144 924.5,-150 924.5,-156 924.5,-156 924.5,-168 924.5,-168 924.5,-174 918.5,-180 912.5,-180"/>
<text text-anchor="middle" x="868" y="-159.5" font-family="sans" font-size="10.00">report_inv_cox_glm</text>
</g>
<!-- 5&#45;&gt;20 -->
<g id="edge57" class="edge">
<title>5&#45;&gt;20</title>
<path fill="none" stroke="grey" stroke-width="2" d="M1128.93,-219.95C1077.63,-210.27 1006.5,-196.33 934.93,-180.15"/>
<polygon fill="grey" stroke="grey" stroke-width="2" points="935.36,-176.66 924.83,-177.85 933.81,-183.48 935.36,-176.66"/>
</g>
<!-- 26 -->
<g id="node27" class="node">
<title>26</title>
<path fill="none" stroke="#56d892" stroke-width="2" stroke-dasharray="5,2" d="M781,-180C781,-180 713,-180 713,-180 707,-180 701,-174 701,-168 701,-168 701,-156 701,-156 701,-150 707,-144 713,-144 713,-144 781,-144 781,-144 787,-144 793,-150 793,-156 793,-156 793,-168 793,-168 793,-174 787,-180 781,-180"/>
<text text-anchor="middle" x="747" y="-159.5" font-family="sans" font-size="10.00">report_cox_glm</text>
</g>
<!-- 5&#45;&gt;26 -->
<g id="edge81" class="edge">
<title>5&#45;&gt;26</title>
<path fill="none" stroke="grey" stroke-width="2" d="M1128.92,-227.15C1051.01,-219.93 922.3,-205.62 803.09,-180.04"/>
<polygon fill="grey" stroke="grey" stroke-width="2" points="803.58,-176.56 793.06,-177.85 802.09,-183.4 803.58,-176.56"/>
</g>
<!-- 6 -->
<g id="node7" class="node">
<title>6</title>
<path fill="none" stroke="#56d88a" stroke-width="2" stroke-dasharray="5,2" d="M553,-252C553,-252 515,-252 515,-252 509,-252 503,-246 503,-240 503,-240 503,-228 503,-228 503,-222 509,-216 515,-216 515,-216 553,-216 553,-216 559,-216 565,-222 565,-228 565,-228 565,-240 565,-240 565,-246 559,-252 553,-252"/>
<text text-anchor="middle" x="534" y="-231.5" font-family="sans" font-size="10.00">lrt_report</text>
</g>
<!-- 6&#45;&gt;15 -->
<g id="edge41" class="edge">
<title>6&#45;&gt;15</title>
<path fill="none" stroke="grey" stroke-width="2" d="M559.83,-215.94C588.88,-197.12 637.79,-166.53 682,-144 704.88,-132.34 730.92,-121.01 753.29,-111.84"/>
<polygon fill="grey" stroke="grey" stroke-width="2" points="754.69,-115.05 762.64,-108.04 752.05,-108.56 754.69,-115.05"/>
</g>
<!-- 6&#45;&gt;19 -->
<g id="edge51" class="edge">
<title>6&#45;&gt;19</title>
<path fill="none" stroke="grey" stroke-width="2" d="M565.13,-218.72C568.09,-217.68 571.08,-216.75 574,-216 726.15,-177 772.82,-204.59 932.47,-179.93"/>
<polygon fill="grey" stroke="grey" stroke-width="2" points="933.32,-183.34 942.65,-178.31 932.22,-176.42 933.32,-183.34"/>
</g>
<!-- 6&#45;&gt;20 -->
<g id="edge58" class="edge">
<title>6&#45;&gt;20</title>
<path fill="none" stroke="grey" stroke-width="2" d="M565.18,-218.89C568.13,-217.82 571.1,-216.83 574,-216 669.53,-188.61 699.67,-200.04 801.15,-180.03"/>
<polygon fill="grey" stroke="grey" stroke-width="2" points="802.09,-183.41 811.2,-178 800.7,-176.55 802.09,-183.41"/>
</g>
<!-- 6&#45;&gt;26 -->
<g id="edge82" class="edge">
<title>6&#45;&gt;26</title>
<path fill="none" stroke="grey" stroke-width="2" d="M565.32,-219.32C568.24,-218.16 571.16,-217.03 574,-216 612.55,-201.95 656.79,-188.44 690.89,-178.58"/>
<polygon fill="grey" stroke="grey" stroke-width="2" points="692.03,-181.89 700.67,-175.77 690.09,-175.16 692.03,-181.89"/>
</g>
<!-- 7 -->
<g id="node8" class="node">
<title>7</title>
<path fill="none" stroke="#56d8a2" stroke-width="2" stroke-dasharray="5,2" d="M731,-828C731,-828 683,-828 683,-828 677,-828 671,-822 671,-816 671,-816 671,-804 671,-804 671,-798 677,-792 683,-792 683,-792 731,-792 731,-792 737,-792 743,-798 743,-804 743,-804 743,-816 743,-816 743,-822 737,-828 731,-828"/>
<text text-anchor="middle" x="707" y="-807.5" font-family="sans" font-size="10.00">QC_salmon</text>
</g>
<!-- 22 -->
<g id="node23" class="node">
<title>22</title>
<path fill="none" stroke="#5673d8" stroke-width="2" stroke-dasharray="5,2" d="M730,-756C730,-756 684,-756 684,-756 678,-756 672,-750 672,-744 672,-744 672,-732 672,-732 672,-726 678,-720 684,-720 684,-720 730,-720 730,-720 736,-720 742,-726 742,-732 742,-732 742,-744 742,-744 742,-750 736,-756 730,-756"/>
<text text-anchor="middle" x="707" y="-735.5" font-family="sans" font-size="10.00">pam50_ihc</text>
</g>
<!-- 7&#45;&gt;22 -->
<g id="edge61" class="edge">
<title>7&#45;&gt;22</title>
<path fill="none" stroke="grey" stroke-width="2" d="M707,-791.7C707,-783.98 707,-774.71 707,-766.11"/>
<polygon fill="grey" stroke="grey" stroke-width="2" points="710.5,-766.1 707,-756.1 703.5,-766.1 710.5,-766.1"/>
</g>
<!-- 8 -->
<g id="node9" class="node">
<title>8</title>
<path fill="none" stroke="#56d8c1" stroke-width="2" stroke-dasharray="5,2" d="M936.5,-900C936.5,-900 853.5,-900 853.5,-900 847.5,-900 841.5,-894 841.5,-888 841.5,-888 841.5,-876 841.5,-876 841.5,-870 847.5,-864 853.5,-864 853.5,-864 936.5,-864 936.5,-864 942.5,-864 948.5,-870 948.5,-876 948.5,-876 948.5,-888 948.5,-888 948.5,-894 942.5,-900 936.5,-900"/>
<text text-anchor="middle" x="895" y="-879.5" font-family="sans" font-size="10.00">process_metadata</text>
</g>
<!-- 8&#45;&gt;4 -->
<g id="edge4" class="edge">
<title>8&#45;&gt;4</title>
<path fill="none" stroke="grey" stroke-width="2" d="M841.27,-876.37C779.61,-869.83 684.11,-855.47 662,-828 613.9,-768.26 635.95,-669.21 650.62,-621.84"/>
<polygon fill="grey" stroke="grey" stroke-width="2" points="653.97,-622.88 653.7,-612.29 647.3,-620.73 653.97,-622.88"/>
</g>
<!-- 8&#45;&gt;5 -->
<g id="edge7" class="edge">
<title>8&#45;&gt;5</title>
<path fill="none" stroke="grey" stroke-width="2" d="M948.89,-875.79C1069.95,-862.59 1353,-822.77 1353,-739 1353,-739 1353,-739 1353,-377 1353,-333.63 1343.42,-318.91 1313,-288 1299.79,-274.58 1282.53,-264.16 1265.49,-256.25"/>
<polygon fill="grey" stroke="grey" stroke-width="2" points="1266.63,-252.93 1256.07,-252.12 1263.82,-259.34 1266.63,-252.93"/>
</g>
<!-- 8&#45;&gt;6 -->
<g id="edge14" class="edge">
<title>8&#45;&gt;6</title>
<path fill="none" stroke="grey" stroke-width="2" d="M841.3,-880.16C727.7,-877.62 467.12,-867.53 389,-828 341.28,-803.85 308,-792.48 308,-739 308,-739 308,-739 308,-449 308,-364.77 342.31,-340.73 408,-288 433.11,-267.85 466.99,-254.17 493.3,-245.76"/>
<polygon fill="grey" stroke="grey" stroke-width="2" points="494.44,-249.07 502.97,-242.8 492.39,-242.38 494.44,-249.07"/>
</g>
<!-- 8&#45;&gt;7 -->
<g id="edge17" class="edge">
<title>8&#45;&gt;7</title>
<path fill="none" stroke="grey" stroke-width="2" d="M849.01,-863.88C819.71,-852.97 781.9,-838.89 752.67,-828"/>
<polygon fill="grey" stroke="grey" stroke-width="2" points="753.7,-824.65 743.11,-824.44 751.26,-831.21 753.7,-824.65"/>
</g>
<!-- 8&#45;&gt;10 -->
<g id="edge19" class="edge">
<title>8&#45;&gt;10</title>
<path fill="none" stroke="grey" stroke-width="2" d="M880.77,-863.84C853.97,-830.84 795.56,-755.45 760,-684 734.73,-633.22 685.32,-470.91 666.01,-406.1"/>
<polygon fill="grey" stroke="grey" stroke-width="2" points="669.27,-404.81 663.07,-396.22 662.56,-406.8 669.27,-404.81"/>
</g>
<!-- 8&#45;&gt;11 -->
<g id="edge23" class="edge">
<title>8&#45;&gt;11</title>
<path fill="none" stroke="grey" stroke-width="2" d="M948.52,-872.61C1053.65,-854.62 1277,-808.25 1277,-739 1277,-739 1277,-739 1277,-449 1277,-407.78 1262.57,-361.83 1251.98,-333.66"/>
<polygon fill="grey" stroke="grey" stroke-width="2" points="1255.16,-332.19 1248.29,-324.13 1248.64,-334.72 1255.16,-332.19"/>
</g>
<!-- 8&#45;&gt;15 -->
<g id="edge35" class="edge">
<title>8&#45;&gt;15</title>
<path fill="none" stroke="grey" stroke-width="2" d="M948.5,-880.02C1059.65,-877.21 1311.48,-866.64 1387,-828 1434.35,-803.77 1467,-792.19 1467,-739 1467,-739 1467,-739 1467,-233 1467,-111.65 1035.15,-93.71 870.1,-91.28"/>
<polygon fill="grey" stroke="grey" stroke-width="2" points="869.66,-87.77 859.62,-91.14 869.57,-94.77 869.66,-87.77"/>
</g>
<!-- 16 -->
<g id="node17" class="node">
<title>16</title>
<path fill="none" stroke="#ced856" stroke-width="2" stroke-dasharray="5,2" d="M733,-324C733,-324 681,-324 681,-324 675,-324 669,-318 669,-312 669,-312 669,-300 669,-300 669,-294 675,-288 681,-288 681,-288 733,-288 733,-288 739,-288 745,-294 745,-300 745,-300 745,-312 745,-312 745,-318 739,-324 733,-324"/>
<text text-anchor="middle" x="707" y="-303.5" font-family="sans" font-size="10.00">surv_inv_int</text>
</g>
<!-- 8&#45;&gt;16 -->
<g id="edge42" class="edge">
<title>8&#45;&gt;16</title>
<path fill="none" stroke="grey" stroke-width="2" d="M924.84,-863.83C960.96,-840.57 1017,-795.39 1017,-739 1017,-739 1017,-739 1017,-665 1017,-558.39 1026.7,-515.17 960,-432 946.04,-414.59 823.82,-358.66 754.5,-327.84"/>
<polygon fill="grey" stroke="grey" stroke-width="2" points="755.64,-324.52 745.08,-323.67 752.8,-330.92 755.64,-324.52"/>
</g>
<!-- 8&#45;&gt;19 -->
<g id="edge46" class="edge">
<title>8&#45;&gt;19</title>
<path fill="none" stroke="grey" stroke-width="2" d="M948.84,-878.87C1051.34,-874.12 1270.32,-860.41 1338,-828 1389.02,-803.56 1429,-795.57 1429,-739 1429,-739 1429,-739 1429,-305 1429,-234.61 1363.14,-242.68 1298,-216 1228.49,-187.53 1143.37,-174.28 1083.38,-168.16"/>
<polygon fill="grey" stroke="grey" stroke-width="2" points="1083.52,-164.66 1073.23,-167.17 1082.84,-171.63 1083.52,-164.66"/>
</g>
<!-- 8&#45;&gt;20 -->
<g id="edge53" class="edge">
<title>8&#45;&gt;20</title>
<path fill="none" stroke="grey" stroke-width="2" d="M948.57,-877.26C1040.3,-870.27 1223.24,-853.57 1282,-828 1339.35,-803.05 1391,-801.54 1391,-739 1391,-739 1391,-739 1391,-377 1391,-290.09 1357.02,-256.27 1280,-216 1145.93,-145.9 1088.65,-204.71 935.02,-179.95"/>
<polygon fill="grey" stroke="grey" stroke-width="2" points="935.21,-176.43 924.76,-178.19 934.03,-183.33 935.21,-176.43"/>
</g>
<!-- 8&#45;&gt;23 -->
<g id="edge65" class="edge">
<title>8&#45;&gt;23</title>
<path fill="none" stroke="grey" stroke-width="2" d="M948.58,-867.55C1007.22,-849.24 1093,-810.28 1093,-739 1093,-739 1093,-739 1093,-593 1093,-505.04 1078.23,-483.86 1074,-396 1073.23,-380.02 1072.51,-375.93 1074,-360 1074.8,-351.48 1076.3,-342.28 1077.9,-333.99"/>
<polygon fill="grey" stroke="grey" stroke-width="2" points="1081.36,-334.57 1079.94,-324.07 1074.5,-333.16 1081.36,-334.57"/>
</g>
<!-- 8&#45;&gt;24 -->
<g id="edge67" class="edge">
<title>8&#45;&gt;24</title>
<path fill="none" stroke="grey" stroke-width="2" d="M841.36,-878.53C703.22,-870.7 346,-840.65 346,-739 346,-739 346,-739 346,-449 346,-329.52 479.23,-381.43 584,-324 612.28,-308.5 618.13,-302.36 647,-288 670.02,-276.55 696.11,-265.17 718.39,-255.91"/>
<polygon fill="grey" stroke="grey" stroke-width="2" points="719.78,-259.12 727.69,-252.08 717.11,-252.65 719.78,-259.12"/>
</g>
<!-- 8&#45;&gt;25 -->
<g id="edge74" class="edge">
<title>8&#45;&gt;25</title>
<path fill="none" stroke="grey" stroke-width="2" d="M841.23,-875.83C775.46,-868.51 669.15,-853.15 639,-828 606.24,-800.67 603,-781.67 603,-739 603,-739 603,-739 603,-665 603,-624.99 604.21,-578.65 605.09,-550.08"/>
<polygon fill="grey" stroke="grey" stroke-width="2" points="608.59,-550.15 605.41,-540.05 601.59,-549.93 608.59,-550.15"/>
</g>
<!-- 8&#45;&gt;26 -->
<g id="edge77" class="edge">
<title>8&#45;&gt;26</title>
<path fill="none" stroke="grey" stroke-width="2" d="M841.09,-878.67C718.27,-872.93 420.87,-856.47 325,-828 243.62,-803.83 156,-823.89 156,-739 156,-739 156,-739 156,-305 156,-195.77 542.53,-170.34 690.4,-164.61"/>
<polygon fill="grey" stroke="grey" stroke-width="2" points="690.76,-168.1 700.63,-164.23 690.5,-161.1 690.76,-168.1"/>
</g>
<!-- 9 -->
<g id="node10" class="node">
<title>9</title>
<path fill="none" stroke="#56d8d0" stroke-width="2" stroke-dasharray="5,2" d="M843,-684C843,-684 781,-684 781,-684 775,-684 769,-678 769,-672 769,-672 769,-660 769,-660 769,-654 775,-648 781,-648 781,-648 843,-648 843,-648 849,-648 855,-654 855,-660 855,-660 855,-672 855,-672 855,-678 849,-684 843,-684"/>
<text text-anchor="middle" x="812" y="-663.5" font-family="sans" font-size="10.00">color_palettes</text>
</g>
<!-- 9&#45;&gt;4 -->
<g id="edge5" class="edge">
<title>9&#45;&gt;4</title>
<path fill="none" stroke="grey" stroke-width="2" d="M774.82,-647.88C751.64,-637.2 721.89,-623.5 698.47,-612.72"/>
<polygon fill="grey" stroke="grey" stroke-width="2" points="699.74,-609.45 689.19,-608.44 696.81,-615.81 699.74,-609.45"/>
</g>
<!-- 9&#45;&gt;5 -->
<g id="edge8" class="edge">
<title>9&#45;&gt;5</title>
<path fill="none" stroke="grey" stroke-width="2" d="M855.25,-654.65C889.88,-645.59 939.22,-630.92 980,-612 1079.36,-565.9 1103.28,-546.18 1180,-468 1237.56,-409.34 1268.67,-401.5 1296,-324 1301.32,-308.91 1304.13,-301.78 1296,-288 1288.14,-274.69 1275.61,-264.48 1262.16,-256.76"/>
<polygon fill="grey" stroke="grey" stroke-width="2" points="1263.7,-253.62 1253.22,-252.04 1260.43,-259.81 1263.7,-253.62"/>
</g>
<!-- 9&#45;&gt;6 -->
<g id="edge15" class="edge">
<title>9&#45;&gt;6</title>
<path fill="none" stroke="grey" stroke-width="2" d="M803.95,-647.9C783.84,-606.61 727.83,-499.86 656,-432 622.37,-400.23 500.57,-364.39 478,-324 470.2,-310.03 471.67,-302.7 478,-288 482.79,-276.87 491.19,-266.99 500.05,-258.86"/>
<polygon fill="grey" stroke="grey" stroke-width="2" points="502.54,-261.34 507.88,-252.18 498,-256.01 502.54,-261.34"/>
</g>
<!-- 9&#45;&gt;11 -->
<g id="edge24" class="edge">
<title>9&#45;&gt;11</title>
<path fill="none" stroke="grey" stroke-width="2" d="M854.66,-647.95C936.45,-613.1 1115.82,-525.88 1213,-396 1226.53,-377.92 1233.63,-353.14 1237.29,-334.31"/>
<polygon fill="grey" stroke="grey" stroke-width="2" points="1240.76,-334.73 1239.02,-324.28 1233.87,-333.54 1240.76,-334.73"/>
</g>
<!-- 9&#45;&gt;23 -->
<g id="edge63" class="edge">
<title>9&#45;&gt;23</title>
<path fill="none" stroke="grey" stroke-width="2" d="M824.87,-647.88C850.57,-613.69 910.05,-534.54 960,-468 996.02,-420.01 1004.09,-407.31 1041,-360 1048.18,-350.8 1056.2,-340.83 1063.35,-332.05"/>
<polygon fill="grey" stroke="grey" stroke-width="2" points="1066.27,-334.01 1069.89,-324.05 1060.85,-329.58 1066.27,-334.01"/>
</g>
<!-- 9&#45;&gt;24 -->
<g id="edge68" class="edge">
<title>9&#45;&gt;24</title>
<path fill="none" stroke="grey" stroke-width="2" d="M812.98,-647.91C815.61,-608.79 824.44,-510.1 850,-432 871.31,-366.89 943.52,-344.66 905,-288 893.04,-270.41 874.24,-258.65 854.47,-250.8"/>
<polygon fill="grey" stroke="grey" stroke-width="2" points="855.61,-247.5 845.02,-247.36 853.22,-254.07 855.61,-247.5"/>
</g>
<!-- 9&#45;&gt;25 -->
<g id="edge75" class="edge">
<title>9&#45;&gt;25</title>
<path fill="none" stroke="grey" stroke-width="2" d="M791.65,-647.69C769.33,-629.06 732.15,-599 698,-576 681.9,-565.15 663.47,-554.26 647.36,-545.2"/>
<polygon fill="grey" stroke="grey" stroke-width="2" points="648.62,-541.89 638.18,-540.08 645.21,-548.01 648.62,-541.89"/>
</g>
<!-- 10&#45;&gt;5 -->
<g id="edge9" class="edge">
<title>10&#45;&gt;5</title>
<path fill="none" stroke="grey" stroke-width="2" d="M711.82,-366.93C762.08,-357.18 839.05,-341.36 905,-324 956.79,-310.37 968.75,-303.56 1020,-288 1056.74,-276.84 1097.8,-264.72 1131.42,-254.89"/>
<polygon fill="grey" stroke="grey" stroke-width="2" points="1132.53,-258.22 1141.15,-252.05 1130.57,-251.5 1132.53,-258.22"/>
</g>
<!-- 12 -->
<g id="node13" class="node">
<title>12</title>
<path fill="none" stroke="#61d856" stroke-width="2" stroke-dasharray="5,2" d="M629,-252C629,-252 595,-252 595,-252 589,-252 583,-246 583,-240 583,-240 583,-228 583,-228 583,-222 589,-216 595,-216 595,-216 629,-216 629,-216 635,-216 641,-222 641,-228 641,-228 641,-240 641,-240 641,-246 635,-252 629,-252"/>
<text text-anchor="middle" x="612" y="-231.5" font-family="sans" font-size="10.00">cox_glm</text>
</g>
<!-- 10&#45;&gt;12 -->
<g id="edge27" class="edge">
<title>10&#45;&gt;12</title>
<path fill="none" stroke="grey" stroke-width="2" d="M604.39,-367.42C560,-358.26 502.02,-343.05 488,-324 478.52,-311.11 479.14,-301.32 488,-288 509.39,-255.86 532.56,-266.65 573.65,-251.78"/>
<polygon fill="grey" stroke="grey" stroke-width="2" points="574.99,-255.01 582.99,-248.07 572.4,-248.51 574.99,-255.01"/>
</g>
<!-- 14 -->
<g id="node15" class="node">
<title>14</title>
<path fill="none" stroke="#56c9d8" stroke-width="2" stroke-dasharray="5,2" d="M884.5,-324C884.5,-324 813.5,-324 813.5,-324 807.5,-324 801.5,-318 801.5,-312 801.5,-312 801.5,-300 801.5,-300 801.5,-294 807.5,-288 813.5,-288 813.5,-288 884.5,-288 884.5,-288 890.5,-288 896.5,-294 896.5,-300 896.5,-300 896.5,-312 896.5,-312 896.5,-318 890.5,-324 884.5,-324"/>
<text text-anchor="middle" x="849" y="-303.5" font-family="sans" font-size="10.00">all_inv_cox_glm</text>
</g>
<!-- 10&#45;&gt;14 -->
<g id="edge29" class="edge">
<title>10&#45;&gt;14</title>
<path fill="none" stroke="grey" stroke-width="2" d="M704.72,-359.88C731.3,-350.14 764.76,-337.87 792.77,-327.61"/>
<polygon fill="grey" stroke="grey" stroke-width="2" points="794.24,-330.8 802.43,-324.07 791.83,-324.22 794.24,-330.8"/>
</g>
<!-- 10&#45;&gt;15 -->
<g id="edge36" class="edge">
<title>10&#45;&gt;15</title>
<path fill="none" stroke="grey" stroke-width="2" d="M604.48,-368.46C557.14,-359.67 493.27,-344.41 478,-324 462.17,-302.83 486.36,-226.51 494,-216 552.37,-135.63 670.97,-106.88 744.25,-96.64"/>
<polygon fill="grey" stroke="grey" stroke-width="2" points="744.82,-100.09 754.28,-95.31 743.91,-93.15 744.82,-100.09"/>
</g>
<!-- 10&#45;&gt;16 -->
<g id="edge43" class="edge">
<title>10&#45;&gt;16</title>
<path fill="none" stroke="grey" stroke-width="2" d="M670.11,-359.7C675.87,-351.47 682.86,-341.48 689.21,-332.42"/>
<polygon fill="grey" stroke="grey" stroke-width="2" points="692.16,-334.3 695.03,-324.1 686.42,-330.29 692.16,-334.3"/>
</g>
<!-- 21 -->
<g id="node22" class="node">
<title>21</title>
<path fill="none" stroke="#afd856" stroke-width="2" stroke-dasharray="5,2" d="M563,-324C563,-324 509,-324 509,-324 503,-324 497,-318 497,-312 497,-312 497,-300 497,-300 497,-294 503,-288 509,-288 509,-288 563,-288 563,-288 569,-288 575,-294 575,-300 575,-300 575,-312 575,-312 575,-318 569,-324 563,-324"/>
<text text-anchor="middle" x="536" y="-303.5" font-family="sans" font-size="10.00">inv_cox_glm</text>
</g>
<!-- 10&#45;&gt;21 -->
<g id="edge60" class="edge">
<title>10&#45;&gt;21</title>
<path fill="none" stroke="grey" stroke-width="2" d="M628.16,-359.88C612.06,-350.64 592,-339.13 574.71,-329.21"/>
<polygon fill="grey" stroke="grey" stroke-width="2" points="576.37,-326.13 565.96,-324.19 572.89,-332.2 576.37,-326.13"/>
</g>
<!-- 10&#45;&gt;24 -->
<g id="edge69" class="edge">
<title>10&#45;&gt;24</title>
<path fill="none" stroke="grey" stroke-width="2" d="M653.4,-359.72C649.37,-340.57 646.07,-309.55 660,-288 668.83,-274.34 682.24,-264.11 696.72,-256.49"/>
<polygon fill="grey" stroke="grey" stroke-width="2" points="698.36,-259.58 705.84,-252.07 695.31,-253.28 698.36,-259.58"/>
</g>
<!-- 11&#45;&gt;5 -->
<g id="edge12" class="edge">
<title>11&#45;&gt;5</title>
<path fill="none" stroke="grey" stroke-width="2" d="M1230.87,-287.7C1226.15,-279.64 1220.44,-269.89 1215.22,-260.98"/>
<polygon fill="grey" stroke="grey" stroke-width="2" points="1218.09,-258.96 1210.02,-252.1 1212.05,-262.5 1218.09,-258.96"/>
</g>
<!-- 11&#45;&gt;15 -->
<g id="edge34" class="edge">
<title>11&#45;&gt;15</title>
<path fill="none" stroke="grey" stroke-width="2" d="M1267.58,-287.91C1279.24,-278.81 1291.69,-266.49 1298,-252 1304.39,-237.33 1306.45,-229.59 1298,-216 1252.75,-143.24 992.01,-108.83 869.97,-96.54"/>
<polygon fill="grey" stroke="grey" stroke-width="2" points="869.96,-93.02 859.66,-95.52 869.27,-99.99 869.96,-93.02"/>
</g>
<!-- 11&#45;&gt;19 -->
<g id="edge52" class="edge">
<title>11&#45;&gt;19</title>
<path fill="none" stroke="grey" stroke-width="2" d="M1258.67,-287.75C1276.12,-268.62 1297.81,-237.61 1280,-216 1255.51,-186.27 1155.24,-173 1083.57,-167.22"/>
<polygon fill="grey" stroke="grey" stroke-width="2" points="1083.45,-163.71 1073.22,-166.43 1082.92,-170.68 1083.45,-163.71"/>
</g>
<!-- 11&#45;&gt;20 -->
<g id="edge59" class="edge">
<title>11&#45;&gt;20</title>
<path fill="none" stroke="grey" stroke-width="2" d="M1196.01,-287.87C1127.3,-261.72 996.44,-211.9 922.47,-183.74"/>
<polygon fill="grey" stroke="grey" stroke-width="2" points="923.45,-180.37 912.86,-180.08 920.96,-186.91 923.45,-180.37"/>
</g>
<!-- 11&#45;&gt;24 -->
<g id="edge73" class="edge">
<title>11&#45;&gt;24</title>
<path fill="none" stroke="grey" stroke-width="2" d="M1194.71,-296.15C1179.82,-293.41 1163.23,-290.46 1148,-288 1047.62,-271.78 931.74,-255.91 855.24,-245.83"/>
<polygon fill="grey" stroke="grey" stroke-width="2" points="855.54,-242.34 845.17,-244.51 854.63,-249.28 855.54,-242.34"/>
</g>
<!-- 11&#45;&gt;26 -->
<g id="edge83" class="edge">
<title>11&#45;&gt;26</title>
<path fill="none" stroke="grey" stroke-width="2" d="M1194.65,-296.91C1146.99,-288.03 1070.92,-272.3 1007,-252 967.12,-239.33 959.39,-230.12 920,-216 871.21,-198.51 856.06,-196.3 802.84,-180.23"/>
<polygon fill="grey" stroke="grey" stroke-width="2" points="803.8,-176.86 793.21,-177.3 801.76,-183.56 803.8,-176.86"/>
</g>
<!-- 12&#45;&gt;26 -->
<g id="edge78" class="edge">
<title>12&#45;&gt;26</title>
<path fill="none" stroke="grey" stroke-width="2" d="M641.29,-217.81C659.94,-208.14 684.38,-195.47 705.06,-184.74"/>
<polygon fill="grey" stroke="grey" stroke-width="2" points="706.7,-187.84 713.97,-180.13 703.48,-181.62 706.7,-187.84"/>
</g>
<!-- 13 -->
<g id="node14" class="node">
<title>13</title>
<path fill="none" stroke="#56d86b" stroke-width="2" stroke-dasharray="5,2" d="M635.5,-468C635.5,-468 550.5,-468 550.5,-468 544.5,-468 538.5,-462 538.5,-456 538.5,-456 538.5,-444 538.5,-444 538.5,-438 544.5,-432 550.5,-432 550.5,-432 635.5,-432 635.5,-432 641.5,-432 647.5,-438 647.5,-444 647.5,-444 647.5,-456 647.5,-456 647.5,-462 641.5,-468 635.5,-468"/>
<text text-anchor="middle" x="593" y="-447.5" font-family="sans" font-size="10.00">diffex_one_vs_rest</text>
</g>
<!-- 13&#45;&gt;3 -->
<g id="edge3" class="edge">
<title>13&#45;&gt;3</title>
<path fill="none" stroke="grey" stroke-width="2" d="M538.17,-438.37C471.1,-425.36 358.07,-403.45 289.71,-390.19"/>
<polygon fill="grey" stroke="grey" stroke-width="2" points="290.03,-386.69 279.55,-388.22 288.7,-393.56 290.03,-386.69"/>
</g>
<!-- 13&#45;&gt;10 -->
<g id="edge20" class="edge">
<title>13&#45;&gt;10</title>
<path fill="none" stroke="grey" stroke-width="2" d="M609.07,-431.7C616.94,-423.22 626.56,-412.86 635.17,-403.58"/>
<polygon fill="grey" stroke="grey" stroke-width="2" points="637.88,-405.81 642.12,-396.1 632.75,-401.05 637.88,-405.81"/>
</g>
<!-- 13&#45;&gt;15 -->
<g id="edge31" class="edge">
<title>13&#45;&gt;15</title>
<path fill="none" stroke="grey" stroke-width="2" d="M560.61,-431.97C545.01,-422.73 526.76,-410.27 513,-396 456.38,-337.27 449.45,-292.79 477,-216 489.91,-180.03 492.22,-165.22 524,-144 559.26,-120.45 672.08,-104.84 744.17,-96.98"/>
<polygon fill="grey" stroke="grey" stroke-width="2" points="744.92,-100.42 754.5,-95.88 744.18,-93.46 744.92,-100.42"/>
</g>
<!-- 13&#45;&gt;23 -->
<g id="edge64" class="edge">
<title>13&#45;&gt;23</title>
<path fill="none" stroke="grey" stroke-width="2" d="M647.89,-433.12C739.1,-406.75 921.46,-354.01 1018.97,-325.81"/>
<polygon fill="grey" stroke="grey" stroke-width="2" points="1020.07,-329.13 1028.71,-322.99 1018.13,-322.41 1020.07,-329.13"/>
</g>
<!-- 14&#45;&gt;19 -->
<g id="edge47" class="edge">
<title>14&#45;&gt;19</title>
<path fill="none" stroke="grey" stroke-width="2" d="M868.18,-287.87C896.35,-262.71 949.04,-215.65 981.08,-187.04"/>
<polygon fill="grey" stroke="grey" stroke-width="2" points="983.63,-189.46 988.75,-180.19 978.96,-184.24 983.63,-189.46"/>
</g>
<!-- 18 -->
<g id="node19" class="node">
<title>18</title>
<path fill="none" stroke="#56a9d8" stroke-width="2" d="M822,-36C822,-36 792,-36 792,-36 786,-36 780,-30 780,-24 780,-24 780,-12 780,-12 780,-6 786,0 792,0 792,0 822,0 822,0 828,0 834,-6 834,-12 834,-12 834,-24 834,-24 834,-30 828,-36 822,-36"/>
<text text-anchor="middle" x="807" y="-15.5" font-family="sans" font-size="10.00">all</text>
</g>
<!-- 15&#45;&gt;18 -->
<g id="edge45" class="edge">
<title>15&#45;&gt;18</title>
<path fill="none" stroke="grey" stroke-width="2" d="M807,-71.7C807,-63.98 807,-54.71 807,-46.11"/>
<polygon fill="grey" stroke="grey" stroke-width="2" points="810.5,-46.1 807,-36.1 803.5,-46.1 810.5,-46.1"/>
</g>
<!-- 16&#45;&gt;24 -->
<g id="edge71" class="edge">
<title>16&#45;&gt;24</title>
<path fill="none" stroke="grey" stroke-width="2" d="M722.82,-287.7C730.57,-279.22 740.04,-268.86 748.52,-259.58"/>
<polygon fill="grey" stroke="grey" stroke-width="2" points="751.2,-261.85 755.36,-252.1 746.03,-257.12 751.2,-261.85"/>
</g>
<!-- 17 -->
<g id="node18" class="node">
<title>17</title>
<path fill="none" stroke="#bed856" stroke-width="2" stroke-dasharray="5,2" d="M976.5,-396C976.5,-396 939.5,-396 939.5,-396 933.5,-396 927.5,-390 927.5,-384 927.5,-384 927.5,-372 927.5,-372 927.5,-366 933.5,-360 939.5,-360 939.5,-360 976.5,-360 976.5,-360 982.5,-360 988.5,-366 988.5,-372 988.5,-372 988.5,-384 988.5,-384 988.5,-390 982.5,-396 976.5,-396"/>
<text text-anchor="middle" x="958" y="-375.5" font-family="sans" font-size="10.00">lrt_diffex</text>
</g>
<!-- 17&#45;&gt;6 -->
<g id="edge13" class="edge">
<title>17&#45;&gt;6</title>
<path fill="none" stroke="grey" stroke-width="2" d="M927.12,-365C922.41,-363.27 917.59,-361.55 913,-360 859.83,-342.07 840.59,-352.06 792,-324 771.85,-312.36 774.66,-298.7 754,-288 684.39,-251.94 654.33,-274.18 575.12,-251.92"/>
<polygon fill="grey" stroke="grey" stroke-width="2" points="575.8,-248.47 565.22,-248.98 573.81,-255.18 575.8,-248.47"/>
</g>
<!-- 17&#45;&gt;11 -->
<g id="edge22" class="edge">
<title>17&#45;&gt;11</title>
<path fill="none" stroke="grey" stroke-width="2" d="M988.55,-369.44C1035.51,-357.83 1126.13,-335.41 1185.05,-320.84"/>
<polygon fill="grey" stroke="grey" stroke-width="2" points="1186.08,-324.19 1194.95,-318.39 1184.4,-317.39 1186.08,-324.19"/>
</g>
<!-- 17&#45;&gt;23 -->
<g id="edge62" class="edge">
<title>17&#45;&gt;23</title>
<path fill="none" stroke="grey" stroke-width="2" d="M988.5,-360.05C1005.25,-350.75 1026.21,-339.11 1044.23,-329.1"/>
<polygon fill="grey" stroke="grey" stroke-width="2" points="1046.3,-331.95 1053.34,-324.03 1042.9,-325.83 1046.3,-331.95"/>
</g>
<!-- 19&#45;&gt;15 -->
<g id="edge39" class="edge">
<title>19&#45;&gt;15</title>
<path fill="none" stroke="grey" stroke-width="2" d="M959.09,-143.97C931,-134.19 895.54,-121.84 865.93,-111.52"/>
<polygon fill="grey" stroke="grey" stroke-width="2" points="866.73,-108.09 856.13,-108.11 864.43,-114.71 866.73,-108.09"/>
</g>
<!-- 20&#45;&gt;15 -->
<g id="edge33" class="edge">
<title>20&#45;&gt;15</title>
<path fill="none" stroke="grey" stroke-width="2" d="M852.92,-143.7C845.61,-135.3 836.69,-125.07 828.66,-115.86"/>
<polygon fill="grey" stroke="grey" stroke-width="2" points="831.11,-113.34 821.91,-108.1 825.84,-117.94 831.11,-113.34"/>
</g>
<!-- 21&#45;&gt;20 -->
<g id="edge56" class="edge">
<title>21&#45;&gt;20</title>
<path fill="none" stroke="grey" stroke-width="2" d="M575.14,-290.49C597.95,-281.16 626.71,-267.82 650,-252 669.24,-238.93 667.84,-227.61 688,-216 698.21,-210.12 754.39,-193.95 801.31,-181.01"/>
<polygon fill="grey" stroke="grey" stroke-width="2" points="802.45,-184.32 811.16,-178.3 800.59,-177.58 802.45,-184.32"/>
</g>
<!-- 22&#45;&gt;4 -->
<g id="edge6" class="edge">
<title>22&#45;&gt;4</title>
<path fill="none" stroke="grey" stroke-width="2" d="M701.33,-719.87C693.29,-695.56 678.48,-650.82 668.94,-622.01"/>
<polygon fill="grey" stroke="grey" stroke-width="2" points="672.15,-620.58 665.69,-612.19 665.51,-622.78 672.15,-620.58"/>
</g>
<!-- 22&#45;&gt;9 -->
<g id="edge18" class="edge">
<title>22&#45;&gt;9</title>
<path fill="none" stroke="grey" stroke-width="2" d="M732.69,-719.88C746.29,-710.81 763.17,-699.55 777.86,-689.76"/>
<polygon fill="grey" stroke="grey" stroke-width="2" points="779.84,-692.65 786.22,-684.19 775.95,-686.82 779.84,-692.65"/>
</g>
<!-- 23&#45;&gt;5 -->
<g id="edge11" class="edge">
<title>23&#45;&gt;5</title>
<path fill="none" stroke="grey" stroke-width="2" d="M1112.38,-287.88C1127.54,-278.72 1146.41,-267.34 1162.74,-257.48"/>
<polygon fill="grey" stroke="grey" stroke-width="2" points="1164.76,-260.35 1171.51,-252.19 1161.14,-254.36 1164.76,-260.35"/>
</g>
<!-- 23&#45;&gt;15 -->
<g id="edge37" class="edge">
<title>23&#45;&gt;15</title>
<path fill="none" stroke="grey" stroke-width="2" d="M1090.14,-287.56C1100.34,-255.15 1116.43,-185.17 1082,-144 1055.47,-112.27 942.74,-99.31 870.11,-94.18"/>
<polygon fill="grey" stroke="grey" stroke-width="2" points="869.91,-90.66 859.7,-93.48 869.44,-97.64 869.91,-90.66"/>
</g>
<!-- 23&#45;&gt;19 -->
<g id="edge48" class="edge">
<title>23&#45;&gt;19</title>
<path fill="none" stroke="grey" stroke-width="2" d="M1074.83,-287.87C1061.71,-263.35 1037.45,-218.03 1022.05,-189.26"/>
<polygon fill="grey" stroke="grey" stroke-width="2" points="1025,-187.35 1017.2,-180.19 1018.83,-190.66 1025,-187.35"/>
</g>
<!-- 23&#45;&gt;20 -->
<g id="edge54" class="edge">
<title>23&#45;&gt;20</title>
<path fill="none" stroke="grey" stroke-width="2" d="M1057.95,-287.87C1019.11,-262.34 945.96,-214.25 902.65,-185.78"/>
<polygon fill="grey" stroke="grey" stroke-width="2" points="904.43,-182.76 894.15,-180.19 900.58,-188.61 904.43,-182.76"/>
</g>
<!-- 23&#45;&gt;24 -->
<g id="edge72" class="edge">
<title>23&#45;&gt;24</title>
<path fill="none" stroke="grey" stroke-width="2" d="M1028.67,-291.23C1024.05,-290.12 1019.45,-289.03 1015,-288 961.87,-275.69 902.04,-262.68 854.92,-252.63"/>
<polygon fill="grey" stroke="grey" stroke-width="2" points="855.57,-249.19 845.06,-250.53 854.11,-256.04 855.57,-249.19"/>
</g>
<!-- 23&#45;&gt;26 -->
<g id="edge79" class="edge">
<title>23&#45;&gt;26</title>
<path fill="none" stroke="grey" stroke-width="2" d="M1038.11,-287.9C1011.39,-277.78 977.14,-264.53 947,-252 893.88,-229.92 833.66,-202.84 793.3,-184.39"/>
<polygon fill="grey" stroke="grey" stroke-width="2" points="794.54,-181.1 783.99,-180.12 791.62,-187.47 794.54,-181.1"/>
</g>
<!-- 24&#45;&gt;15 -->
<g id="edge38" class="edge">
<title>24&#45;&gt;15</title>
<path fill="none" stroke="grey" stroke-width="2" d="M730.32,-215.88C715.48,-207.41 700.32,-195.59 692,-180 684.47,-165.88 683.37,-157.47 692,-144 703.97,-125.3 724.4,-113.11 744.75,-105.19"/>
<polygon fill="grey" stroke="grey" stroke-width="2" points="746.14,-108.41 754.37,-101.75 743.78,-101.82 746.14,-108.41"/>
</g>
<!-- 24&#45;&gt;19 -->
<g id="edge49" class="edge">
<title>24&#45;&gt;19</title>
<path fill="none" stroke="grey" stroke-width="2" d="M828.67,-215.97C862.36,-206.01 905.05,-193.41 940.33,-182.99"/>
<polygon fill="grey" stroke="grey" stroke-width="2" points="941.47,-186.3 950.07,-180.11 939.49,-179.59 941.47,-186.3"/>
</g>
<!-- 24&#45;&gt;20 -->
<g id="edge55" class="edge">
<title>24&#45;&gt;20</title>
<path fill="none" stroke="grey" stroke-width="2" d="M794.98,-215.7C807.31,-206.8 822.52,-195.82 835.85,-186.2"/>
<polygon fill="grey" stroke="grey" stroke-width="2" points="838.24,-188.79 844.3,-180.1 834.14,-183.12 838.24,-188.79"/>
</g>
<!-- 24&#45;&gt;26 -->
<g id="edge80" class="edge">
<title>24&#45;&gt;26</title>
<path fill="none" stroke="grey" stroke-width="2" d="M765.07,-215.7C762.39,-207.9 759.17,-198.51 756.2,-189.83"/>
<polygon fill="grey" stroke="grey" stroke-width="2" points="759.42,-188.43 752.86,-180.1 752.8,-190.7 759.42,-188.43"/>
</g>
<!-- 25&#45;&gt;1 -->
<g id="edge2" class="edge">
<title>25&#45;&gt;1</title>
<path fill="none" stroke="grey" stroke-width="2" d="M647.57,-511.27C700.06,-498.98 790.54,-477.8 849.05,-464.1"/>
<polygon fill="grey" stroke="grey" stroke-width="2" points="849.94,-467.49 858.88,-461.8 848.34,-460.67 849.94,-467.49"/>
</g>
<!-- 25&#45;&gt;6 -->
<g id="edge16" class="edge">
<title>25&#45;&gt;6</title>
<path fill="none" stroke="grey" stroke-width="2" d="M576.63,-503.81C561.56,-494.26 543.4,-481.59 529,-468 470.02,-412.36 443.31,-400.69 417,-324 411.81,-308.87 408.33,-301.45 417,-288 433.66,-262.16 466.32,-248.78 492.9,-241.93"/>
<polygon fill="grey" stroke="grey" stroke-width="2" points="493.82,-245.31 502.75,-239.62 492.22,-238.5 493.82,-245.31"/>
</g>
<!-- 25&#45;&gt;13 -->
<g id="edge28" class="edge">
<title>25&#45;&gt;13</title>
<path fill="none" stroke="grey" stroke-width="2" d="M602.79,-503.7C601.35,-495.98 599.63,-486.71 598.04,-478.11"/>
<polygon fill="grey" stroke="grey" stroke-width="2" points="601.44,-477.3 596.18,-468.1 594.56,-478.58 601.44,-477.3"/>
</g>
<!-- 25&#45;&gt;17 -->
<g id="edge44" class="edge">
<title>25&#45;&gt;17</title>
<path fill="none" stroke="grey" stroke-width="2" d="M647.76,-504.15C715.98,-476.63 850.43,-422.39 917.69,-395.26"/>
<polygon fill="grey" stroke="grey" stroke-width="2" points="919.15,-398.45 927.11,-391.46 916.53,-391.96 919.15,-398.45"/>
</g>
<!-- 26&#45;&gt;15 -->
<g id="edge40" class="edge">
<title>26&#45;&gt;15</title>
<path fill="none" stroke="grey" stroke-width="2" d="M761.83,-143.7C769.02,-135.3 777.8,-125.07 785.69,-115.86"/>
<polygon fill="grey" stroke="grey" stroke-width="2" points="788.49,-117.97 792.34,-108.1 783.17,-113.42 788.49,-117.97"/>
</g>
</g>
</svg>
