<?xml version="1.0" encoding="UTF-8" standalone="no"?>
<!DOCTYPE svg PUBLIC "-//W3C//DTD SVG 1.1//EN"
 "http://www.w3.org/Graphics/SVG/1.1/DTD/svg11.dtd">
<!-- Generated by graphviz version 2.42.3 (20191010.1750)
 -->
<!-- Title: snakemake_dag Pages: 1 -->
<svg width="274pt" height="620pt"
 viewBox="0.00 0.00 274.00 620.00" xmlns="http://www.w3.org/2000/svg" xmlns:xlink="http://www.w3.org/1999/xlink">
<g id="graph0" class="graph" transform="scale(1 1) rotate(0) translate(4 616)">
<title>snakemake_dag</title>
<polygon fill="white" stroke="transparent" points="-4,4 -4,-616 270,-616 270,4 -4,4"/>
<!-- 0 -->
<g id="node1" class="node">
<title>0</title>
<path fill="none" stroke="#d87556" stroke-width="2" stroke-dasharray="5,2" d="M201,-468C201,-468 155,-468 155,-468 149,-468 143,-462 143,-456 143,-456 143,-444 143,-444 143,-438 149,-432 155,-432 155,-432 201,-432 201,-432 207,-432 213,-438 213,-444 213,-444 213,-456 213,-456 213,-462 207,-468 201,-468"/>
<text text-anchor="middle" x="178" y="-447.5" font-family="sans" font-size="10.00">pam50_ihc</text>
</g>
<!-- 4 -->
<g id="node5" class="node">
<title>4</title>
<path fill="none" stroke="#56d8d0" stroke-width="2" stroke-dasharray="5,2" d="M254,-396C254,-396 192,-396 192,-396 186,-396 180,-390 180,-384 180,-384 180,-372 180,-372 180,-366 186,-360 192,-360 192,-360 254,-360 254,-360 260,-360 266,-366 266,-372 266,-372 266,-384 266,-384 266,-390 260,-396 254,-396"/>
<text text-anchor="middle" x="223" y="-375.5" font-family="sans" font-size="10.00">color_palettes</text>
</g>
<!-- 0&#45;&gt;4 -->
<g id="edge5" class="edge">
<title>0&#45;&gt;4</title>
<path fill="none" stroke="grey" stroke-width="2" d="M189.12,-431.7C194.36,-423.56 200.7,-413.69 206.48,-404.7"/>
<polygon fill="grey" stroke="grey" stroke-width="2" points="209.54,-406.41 212,-396.1 203.65,-402.62 209.54,-406.41"/>
</g>
<!-- 6 -->
<g id="node7" class="node">
<title>6</title>
<path fill="none" stroke="#567bd8" stroke-width="2" stroke-dasharray="5,2" d="M150,-324C150,-324 116,-324 116,-324 110,-324 104,-318 104,-312 104,-312 104,-300 104,-300 104,-294 110,-288 116,-288 116,-288 150,-288 150,-288 156,-288 162,-294 162,-300 162,-300 162,-312 162,-312 162,-318 156,-324 150,-324"/>
<text text-anchor="middle" x="133" y="-303.5" font-family="sans" font-size="10.00">surv_est</text>
</g>
<!-- 0&#45;&gt;6 -->
<g id="edge10" class="edge">
<title>0&#45;&gt;6</title>
<path fill="none" stroke="grey" stroke-width="2" d="M172.57,-431.87C164.87,-407.56 150.69,-362.82 141.56,-334.01"/>
<polygon fill="grey" stroke="grey" stroke-width="2" points="144.8,-332.66 138.45,-324.19 138.13,-334.78 144.8,-332.66"/>
</g>
<!-- 1 -->
<g id="node2" class="node">
<title>1</title>
<path fill="none" stroke="#88d856" stroke-width="2" stroke-dasharray="5,2" d="M117.5,-612C117.5,-612 34.5,-612 34.5,-612 28.5,-612 22.5,-606 22.5,-600 22.5,-600 22.5,-588 22.5,-588 22.5,-582 28.5,-576 34.5,-576 34.5,-576 117.5,-576 117.5,-576 123.5,-576 129.5,-582 129.5,-588 129.5,-588 129.5,-600 129.5,-600 129.5,-606 123.5,-612 117.5,-612"/>
<text text-anchor="middle" x="76" y="-591.5" font-family="sans" font-size="10.00">process_metadata</text>
</g>
<!-- 3 -->
<g id="node4" class="node">
<title>3</title>
<path fill="none" stroke="#ced856" stroke-width="2" stroke-dasharray="5,2" d="M84.5,-180C84.5,-180 47.5,-180 47.5,-180 41.5,-180 35.5,-174 35.5,-168 35.5,-168 35.5,-156 35.5,-156 35.5,-150 41.5,-144 47.5,-144 47.5,-144 84.5,-144 84.5,-144 90.5,-144 96.5,-150 96.5,-156 96.5,-156 96.5,-168 96.5,-168 96.5,-174 90.5,-180 84.5,-180"/>
<text text-anchor="middle" x="66" y="-159.5" font-family="sans" font-size="10.00">lrt_diffex</text>
</g>
<!-- 1&#45;&gt;3 -->
<g id="edge4" class="edge">
<title>1&#45;&gt;3</title>
<path fill="none" stroke="grey" stroke-width="2" d="M68.31,-575.91C57.21,-549.62 38,-497.45 38,-451 38,-451 38,-451 38,-305 38,-264.27 49.23,-218.19 57.46,-189.86"/>
<polygon fill="grey" stroke="grey" stroke-width="2" points="60.82,-190.86 60.33,-180.27 54.11,-188.85 60.82,-190.86"/>
</g>
<!-- 5 -->
<g id="node6" class="node">
<title>5</title>
<path fill="none" stroke="#56c1d8" stroke-width="2" d="M114,-108C114,-108 76,-108 76,-108 70,-108 64,-102 64,-96 64,-96 64,-84 64,-84 64,-78 70,-72 76,-72 76,-72 114,-72 114,-72 120,-72 126,-78 126,-84 126,-84 126,-96 126,-96 126,-102 120,-108 114,-108"/>
<text text-anchor="middle" x="95" y="-87.5" font-family="sans" font-size="10.00">lrt_report</text>
</g>
<!-- 1&#45;&gt;5 -->
<g id="edge9" class="edge">
<title>1&#45;&gt;5</title>
<path fill="none" stroke="grey" stroke-width="2" d="M59.51,-575.77C37.16,-550.53 0,-501.05 0,-451 0,-451 0,-451 0,-233 0,-191.79 2.73,-178.01 26,-144 33.95,-132.38 45.26,-122.19 56.43,-113.93"/>
<polygon fill="grey" stroke="grey" stroke-width="2" points="58.71,-116.61 64.89,-108.01 54.69,-110.88 58.71,-116.61"/>
</g>
<!-- 1&#45;&gt;6 -->
<g id="edge12" class="edge">
<title>1&#45;&gt;6</title>
<path fill="none" stroke="grey" stroke-width="2" d="M80.87,-575.89C83.73,-565.55 87.3,-552.07 90,-540 106.58,-465.99 121.58,-377.73 128.68,-334.13"/>
<polygon fill="grey" stroke="grey" stroke-width="2" points="132.17,-334.48 130.31,-324.05 125.26,-333.36 132.17,-334.48"/>
</g>
<!-- 7 -->
<g id="node8" class="node">
<title>7</title>
<path fill="none" stroke="#d8bc56" stroke-width="2" stroke-dasharray="5,2" d="M154.5,-252C154.5,-252 95.5,-252 95.5,-252 89.5,-252 83.5,-246 83.5,-240 83.5,-240 83.5,-228 83.5,-228 83.5,-222 89.5,-216 95.5,-216 95.5,-216 154.5,-216 154.5,-216 160.5,-216 166.5,-222 166.5,-228 166.5,-228 166.5,-240 166.5,-240 166.5,-246 160.5,-252 154.5,-252"/>
<text text-anchor="middle" x="125" y="-231.5" font-family="sans" font-size="10.00">batch_effects</text>
</g>
<!-- 1&#45;&gt;7 -->
<g id="edge15" class="edge">
<title>1&#45;&gt;7</title>
<path fill="none" stroke="grey" stroke-width="2" d="M76,-575.95C76,-549.29 76,-496.11 76,-451 76,-451 76,-451 76,-377 76,-336.55 80.65,-325.82 95,-288 98.53,-278.71 103.51,-269.09 108.4,-260.65"/>
<polygon fill="grey" stroke="grey" stroke-width="2" points="111.44,-262.38 113.6,-252.01 105.44,-258.77 111.44,-262.38"/>
</g>
<!-- 8 -->
<g id="node9" class="node">
<title>8</title>
<path fill="none" stroke="#56d88a" stroke-width="2" stroke-dasharray="5,2" d="M202,-540C202,-540 154,-540 154,-540 148,-540 142,-534 142,-528 142,-528 142,-516 142,-516 142,-510 148,-504 154,-504 154,-504 202,-504 202,-504 208,-504 214,-510 214,-516 214,-516 214,-528 214,-528 214,-534 208,-540 202,-540"/>
<text text-anchor="middle" x="178" y="-519.5" font-family="sans" font-size="10.00">QC_salmon</text>
</g>
<!-- 1&#45;&gt;8 -->
<g id="edge16" class="edge">
<title>1&#45;&gt;8</title>
<path fill="none" stroke="grey" stroke-width="2" d="M100.95,-575.88C114.04,-566.89 130.26,-555.76 144.44,-546.03"/>
<polygon fill="grey" stroke="grey" stroke-width="2" points="146.69,-548.73 152.95,-540.19 142.73,-542.96 146.69,-548.73"/>
</g>
<!-- 2 -->
<g id="node3" class="node">
<title>2</title>
<path fill="none" stroke="#56d86b" stroke-width="2" d="M110,-36C110,-36 80,-36 80,-36 74,-36 68,-30 68,-24 68,-24 68,-12 68,-12 68,-6 74,0 80,0 80,0 110,0 110,0 116,0 122,-6 122,-12 122,-12 122,-24 122,-24 122,-30 116,-36 110,-36"/>
<text text-anchor="middle" x="95" y="-15.5" font-family="sans" font-size="10.00">all</text>
</g>
<!-- 3&#45;&gt;5 -->
<g id="edge6" class="edge">
<title>3&#45;&gt;5</title>
<path fill="none" stroke="grey" stroke-width="2" d="M73.17,-143.7C76.43,-135.81 80.37,-126.3 84,-117.55"/>
<polygon fill="grey" stroke="grey" stroke-width="2" points="87.32,-118.68 87.91,-108.1 80.85,-116 87.32,-118.68"/>
</g>
<!-- 4&#45;&gt;5 -->
<g id="edge7" class="edge">
<title>4&#45;&gt;5</title>
<path fill="none" stroke="grey" stroke-width="2" d="M219.74,-359.97C213.61,-329.94 198.92,-266.03 176,-216 159.14,-179.2 132.61,-140.66 114.54,-116.28"/>
<polygon fill="grey" stroke="grey" stroke-width="2" points="117.34,-114.17 108.54,-108.27 111.74,-118.37 117.34,-114.17"/>
</g>
<!-- 4&#45;&gt;6 -->
<g id="edge11" class="edge">
<title>4&#45;&gt;6</title>
<path fill="none" stroke="grey" stroke-width="2" d="M200.75,-359.7C189.42,-350.88 175.47,-340.03 163.18,-330.47"/>
<polygon fill="grey" stroke="grey" stroke-width="2" points="165.03,-327.48 154.99,-324.1 160.74,-333.01 165.03,-327.48"/>
</g>
<!-- 4&#45;&gt;7 -->
<g id="edge13" class="edge">
<title>4&#45;&gt;7</title>
<path fill="none" stroke="grey" stroke-width="2" d="M214.13,-359.68C204.43,-341.31 187.99,-311.71 171,-288 164.15,-278.45 155.94,-268.57 148.35,-259.96"/>
<polygon fill="grey" stroke="grey" stroke-width="2" points="150.91,-257.57 141.62,-252.47 145.7,-262.25 150.91,-257.57"/>
</g>
<!-- 5&#45;&gt;2 -->
<g id="edge2" class="edge">
<title>5&#45;&gt;2</title>
<path fill="none" stroke="grey" stroke-width="2" d="M95,-71.7C95,-63.98 95,-54.71 95,-46.11"/>
<polygon fill="grey" stroke="grey" stroke-width="2" points="98.5,-46.1 95,-36.1 91.5,-46.1 98.5,-46.1"/>
</g>
<!-- 6&#45;&gt;7 -->
<g id="edge14" class="edge">
<title>6&#45;&gt;7</title>
<path fill="none" stroke="grey" stroke-width="2" d="M131.02,-287.7C130.14,-279.98 129.08,-270.71 128.1,-262.11"/>
<polygon fill="grey" stroke="grey" stroke-width="2" points="131.57,-261.64 126.95,-252.1 124.61,-262.44 131.57,-261.64"/>
</g>
<!-- 7&#45;&gt;3 -->
<g id="edge3" class="edge">
<title>7&#45;&gt;3</title>
<path fill="none" stroke="grey" stroke-width="2" d="M110.42,-215.7C103.34,-207.3 94.72,-197.07 86.95,-187.86"/>
<polygon fill="grey" stroke="grey" stroke-width="2" points="89.54,-185.49 80.42,-180.1 84.19,-190.01 89.54,-185.49"/>
</g>
<!-- 7&#45;&gt;5 -->
<g id="edge8" class="edge">
<title>7&#45;&gt;5</title>
<path fill="none" stroke="grey" stroke-width="2" d="M121.38,-215.87C116.25,-191.56 106.79,-146.82 100.71,-118.01"/>
<polygon fill="grey" stroke="grey" stroke-width="2" points="104.12,-117.25 98.63,-108.19 97.27,-118.7 104.12,-117.25"/>
</g>
<!-- 8&#45;&gt;0 -->
<g id="edge1" class="edge">
<title>8&#45;&gt;0</title>
<path fill="none" stroke="grey" stroke-width="2" d="M178,-503.7C178,-495.98 178,-486.71 178,-478.11"/>
<polygon fill="grey" stroke="grey" stroke-width="2" points="181.5,-478.1 178,-468.1 174.5,-478.1 181.5,-478.1"/>
</g>
</g>
</svg>
